<svg xmlns="http://www.w3.org/2000/svg" width="80" height="80" viewBox="0 0 80 80">
    <g data-name="그룹 2683">
        <path data-name="사각형 3269" style="fill:none" d="M0 0h80v80H0z"/>
        <g data-name="그룹 2668">
            <path data-name="패스 16540" d="M1844.944 3852.786a16.821 16.821 0 1 0 13.067 16.4 16.833 16.833 0 0 0-13.067-16.4z" transform="translate(-1801.189 -3829.182)" style="fill:#f3d700"/>
            <path data-name="패스 16541" d="m1843.75 3840.936 2.532-4.416 2.532 4.416z" transform="translate(-1806.282 -3825.02)" style="fill:#f3d700"/>
            <path data-name="패스 16542" d="m1832.785 3843.867.869-5.016 3.89 3.284z" transform="translate(-1803.401 -3825.633)" style="fill:#f3d700"/>
            <path data-name="패스 16543" d="m1823.235 3850.575-.9-5.01 4.778 1.755z" transform="translate(-1800.656 -3827.396)" style="fill:#f3d700"/>
            <path data-name="패스 16544" d="m1816.265 3860.25-2.559-4.4 5.09.016z" transform="translate(-1798.388 -3830.098)" style="fill:#f3d700"/>
            <path data-name="패스 16545" d="m1813.024 3871.11-3.909-3.26 4.788-1.727z" transform="translate(-1797.182 -3832.798)" style="fill:#f3d700"/>
            <path data-name="패스 16546" d="m1813.9 3882.454-4.788-1.727 3.909-3.26z" transform="translate(-1797.182 -3835.779)" style="fill:#f3d700"/>
            <path data-name="패스 16547" d="m1818.8 3892.922-5.09.015 2.559-4.4z" transform="translate(-1798.388 -3838.687)" style="fill:#f3d700"/>
            <path data-name="패스 16548" d="m1827.114 3901.249-4.778 1.755.9-5.01z" transform="translate(-1800.656 -3841.172)" style="fill:#f3d700"/>
            <path data-name="패스 16549" d="m1837.543 3906.431-3.89 3.284-.869-5.016z" transform="translate(-1803.401 -3842.933)" style="fill:#f3d700"/>
            <path data-name="패스 16550" d="m1848.814 3907.844-2.532 4.416-2.532-4.416z" transform="translate(-1806.282 -3843.76)" style="fill:#f3d700"/>
            <path data-name="패스 16551" d="m1859.889 3904.7-.869 5.016-3.89-3.284z" transform="translate(-1809.272 -3842.933)" style="fill:#f3d700"/>
            <path data-name="패스 16552" d="m1869.431 3897.994.9 5.01-4.778-1.755z" transform="translate(-1812.01 -3841.172)" style="fill:#f3d700"/>
            <path data-name="패스 16553" d="m1876.29 3888.536 2.558 4.4-5.09-.015z" transform="translate(-1814.166 -3838.687)" style="fill:#f3d700"/>
            <path data-name="패스 16554" d="m1879.638 3877.468 3.909 3.26-4.788 1.727z" transform="translate(-1815.48 -3835.779)" style="fill:#f3d700"/>
            <path data-name="패스 16555" d="m1878.759 3866.122 4.788 1.727-3.909 3.26z" transform="translate(-1815.48 -3832.798)" style="fill:#f3d700"/>
            <path data-name="패스 16556" d="m1873.758 3855.864 5.09-.016-2.558 4.4z" transform="translate(-1814.166 -3830.098)" style="fill:#f3d700"/>
            <path data-name="패스 16557" d="m1865.552 3847.319 4.778-1.755-.9 5.01z" transform="translate(-1812.01 -3827.396)" style="fill:#f3d700"/>
            <path data-name="패스 16558" d="m1855.13 3842.135 3.89-3.284.869 5.016z" transform="translate(-1809.272 -3825.633)" style="fill:#f3d700"/>
            <path data-name="패스 16559" d="m1848.905 3848.638 2.526-3.042 1.349 3.716z" transform="translate(-1807.636 -3827.405)" style="fill:#f3d700"/>
            <path data-name="패스 16560" d="m1840.1 3849.342 1.333-3.722 2.539 3.031z" transform="translate(-1805.322 -3827.411)" style="fill:#f3d700"/>
            <path data-name="패스 16561" d="m1832.133 3853.162-.021-3.954 3.423 1.979z" transform="translate(-1803.224 -3828.354)" style="fill:#f3d700"/>
            <path data-name="패스 16562" d="m1825.511 3859.638-1.372-3.708 3.893.689z" transform="translate(-1801.13 -3830.12)" style="fill:#f3d700"/>
            <path data-name="패스 16563" d="m1821.5 3867.744-2.557-3.015 3.894-.684z" transform="translate(-1799.765 -3832.252)" style="fill:#f3d700"/>
            <path data-name="패스 16564" d="m1820.593 3876.5-3.434-1.958 3.425-1.975z" transform="translate(-1799.296 -3834.491)" style="fill:#f3d700"/>
            <path data-name="패스 16565" d="m1822.89 3885.1-3.9-.666 2.543-3.027z" transform="translate(-1799.778 -3836.813)" style="fill:#f3d700"/>
            <path data-name="패스 16566" d="m1828.117 3892.5-3.89.707 1.355-3.714z" transform="translate(-1801.153 -3838.938)" style="fill:#f3d700"/>
            <path data-name="패스 16567" d="m1835.645 3897.811-3.414 1.995v-3.954z" transform="translate(-1803.256 -3840.609)" style="fill:#f3d700"/>
            <path data-name="패스 16568" d="m1844.083 3900.392-2.525 3.042-1.35-3.716z" transform="translate(-1805.351 -3841.625)" style="fill:#f3d700"/>
            <path data-name="패스 16569" d="m1852.894 3899.686-1.333 3.723-2.539-3.031z" transform="translate(-1807.667 -3841.616)" style="fill:#f3d700"/>
            <path data-name="패스 16570" d="m1861.016 3895.783.021 3.954-3.423-1.979z" transform="translate(-1809.925 -3840.591)" style="fill:#f3d700"/>
            <path data-name="패스 16571" d="m1867.47 3889.4 1.372 3.708-3.893-.689z" transform="translate(-1811.852 -3838.913)" style="fill:#f3d700"/>
            <path data-name="패스 16572" d="m1871.477 3881.292 2.557 3.015-3.894.684z" transform="translate(-1813.216 -3836.784)" style="fill:#f3d700"/>
            <path data-name="패스 16573" d="m1872.552 3872.452 3.434 1.958-3.426 1.975z" transform="translate(-1813.85 -3834.461)" style="fill:#f3d700"/>
            <path data-name="패스 16574" d="m1870.089 3863.939 3.9.667-2.543 3.027z" transform="translate(-1813.203 -3832.224)" style="fill:#f3d700"/>
            <path data-name="패스 16575" d="m1864.865 3856.531 3.89-.707-1.355 3.714z" transform="translate(-1811.83 -3830.092)" style="fill:#f3d700"/>
            <path data-name="패스 16576" d="m1857.507 3851.135 3.414-1.995v3.954z" transform="translate(-1809.897 -3828.336)" style="fill:#f3d700"/>
        </g>
    </g>
</svg>
