<svg xmlns="http://www.w3.org/2000/svg" width="100" height="48" viewBox="0 0 100 48">
    <defs>
        <clipPath id="btgf5svema">
            <path data-name="사각형 3276" transform="translate(2459.032 4240.316)" style="fill:none" d="M0 0h29.448v28.163H0z"/>
        </clipPath>
        <clipPath id="kq6htiqx5b">
            <path data-name="사각형 3277" transform="translate(2461.581 4235.572)" style="fill:none" d="M0 0h29.448v28.163H0z"/>
        </clipPath>
        <clipPath id="vhzum2lkrc">
            <path data-name="사각형 3276" style="fill:none" d="M0 0h21.133v20.211H0z"/>
        </clipPath>
        <clipPath id="nbrupboeqd">
            <path data-name="사각형 3277" style="fill:#fcee44" d="M0 0h21.133v20.211H0z"/>
        </clipPath>
    </defs>
    <g data-name="그룹 2696">
        <g data-name="그룹 1811">
            <g data-name="그룹 1808-2">
                <g data-name="그룹 2692">
                    <g data-name="그룹 2691" style="clip-path:url(#btgf5svema)" transform="translate(-2398.032 -4224.572)">
                        <g data-name="그룹 1807-3">
                            <path data-name="패스 1611-3" d="M2483.179 4253.577a4.493 4.493 0 0 0 3.413-3.584c.076-.564-.8-1.484-.887-2.424-.383-3.962-1.4-9.791-4.775-6.05s-5.294 9.394-5.9 11.407a17.974 17.974 0 0 1-.822-8.1v-.012a6.28 6.28 0 0 1 1.377-3.775 2.327 2.327 0 0 1 2.417-.073l.11-.225a2.583 2.583 0 0 0-2.677.1l-.019.009-.013.014a6.525 6.525 0 0 0-1.45 3.933 18.338 18.338 0 0 0 .949 8.548 16.7 16.7 0 0 0-.09.328l-.328-.1a18.358 18.358 0 0 0-6.7-5.389 6.492 6.492 0 0 0-4.095-.887h-.02l-.017.013a2.57 2.57 0 0 0-1.522 2.2l.248.029a2.32 2.32 0 0 1 1.359-2 6.27 6.27 0 0 1 3.932.862h.006a17.96 17.96 0 0 1 6.391 5.05c-2.023-.568-7.816-1.983-12.789-1.149s-.6 4.829 2.535 7.281c.744.583 1.051 1.814 1.569 2.053a4.49 4.49 0 0 0 4.855-.957s-2.178 7.331 2.307 7.087 3.407.788 4.7.713 2.084-6.586 2.084-6.586 5.92 2.829 6.673 1.783-.7-.695 1.918-4.344-4.737-5.753-4.737-5.753" style="fill:#1f5a2c"/>
                        </g>
                    </g>
                </g>
            </g>
            <g data-name="그룹 1809-2">
                <g data-name="그룹 2694">
                    <g data-name="그룹 2693" style="clip-path:url(#kq6htiqx5b)" transform="translate(-2398.032 -4224.572)">
                        <g data-name="그룹 1807-4">
                            <path data-name="패스 1611-4" d="M2485.727 4248.833a4.492 4.492 0 0 0 3.414-3.584c.075-.564-.8-1.484-.887-2.424-.384-3.962-1.4-9.791-4.776-6.05s-5.293 9.394-5.9 11.407a17.971 17.971 0 0 1-.823-8.1v-.012a6.292 6.292 0 0 1 1.377-3.775 2.328 2.328 0 0 1 2.418-.073l.109-.225a2.577 2.577 0 0 0-2.676.1l-.02.008-.013.014a6.519 6.519 0 0 0-1.449 3.933 18.33 18.33 0 0 0 .949 8.548c-.06.212-.091.328-.091.328l-.328-.1a18.347 18.347 0 0 0-6.7-5.389 6.5 6.5 0 0 0-4.095-.887h-.019l-.018.013a2.569 2.569 0 0 0-1.521 2.2l.248.029a2.32 2.32 0 0 1 1.358-2 6.283 6.283 0 0 1 3.933.862h.005a17.97 17.97 0 0 1 6.391 5.05c-2.023-.568-7.815-1.982-12.788-1.149s-.6 4.829 2.535 7.281c.744.584 1.051 1.815 1.568 2.053a4.494 4.494 0 0 0 4.856-.957s-2.178 7.331 2.307 7.087 3.407.788 4.7.713 2.084-6.585 2.084-6.585 5.919 2.829 6.673 1.782-.7-.7 1.918-4.344-4.738-5.753-4.738-5.753" style="fill:#f6c0fc"/>
                        </g>
                    </g>
                </g>
            </g>
        </g>
        <g data-name="그룹 1811">
            <g data-name="그룹 1808-2">
                <g data-name="그룹 2692">
                    <g data-name="그룹 2691" style="clip-path:url(#vhzum2lkrc)" transform="translate(38.038 7.242)">
                        <g data-name="그룹 1807-3">
                            <path data-name="패스 1611-3" d="M2476.361 4249.833a3.224 3.224 0 0 0 2.449-2.572c.055-.4-.573-1.065-.636-1.74-.275-2.843-1.008-7.027-3.427-4.342a23.319 23.319 0 0 0-4.233 8.186 12.9 12.9 0 0 1-.59-5.815v-.009a4.508 4.508 0 0 1 .988-2.709 1.67 1.67 0 0 1 1.735-.053l.079-.161a1.853 1.853 0 0 0-1.921.072l-.014.007-.009.01a4.679 4.679 0 0 0-1.041 2.823 13.159 13.159 0 0 0 .681 6.134l-.065.235-.235-.073a13.179 13.179 0 0 0-4.806-3.867 4.66 4.66 0 0 0-2.939-.636h-.014l-.012.009a1.845 1.845 0 0 0-1.092 1.577l.178.021a1.665 1.665 0 0 1 .975-1.434 4.5 4.5 0 0 1 2.822.619 12.887 12.887 0 0 1 4.586 3.625 23.344 23.344 0 0 0-9.178-.825c-3.569.6-.43 3.466 1.819 5.226.534.418.754 1.3 1.126 1.473a3.222 3.222 0 0 0 3.484-.687s-1.563 5.261 1.656 5.086 2.445.565 3.371.512 1.5-4.727 1.5-4.727 4.249 2.03 4.789 1.279-.5-.5 1.376-3.117-3.4-4.128-3.4-4.128" transform="translate(-2459.032 -4240.317)" style="fill:#1f5a2c"/>
                        </g>
                    </g>
                </g>
            </g>
            <g data-name="그룹 1809-2">
                <g data-name="그룹 2694">
                    <g data-name="그룹 2693" style="clip-path:url(#nbrupboeqd)" transform="translate(39.867 3.837)">
                        <g data-name="그룹 1807-4">
                            <path data-name="패스 1611-4" d="M2478.909 4245.089a3.224 3.224 0 0 0 2.45-2.572c.054-.4-.573-1.064-.637-1.739-.275-2.844-1.008-7.026-3.427-4.342a23.312 23.312 0 0 0-4.233 8.187 12.9 12.9 0 0 1-.591-5.815v-.009a4.518 4.518 0 0 1 .988-2.709 1.671 1.671 0 0 1 1.735-.052l.078-.162a1.85 1.85 0 0 0-1.92.073l-.014.006-.01.01a4.679 4.679 0 0 0-1.04 2.822 13.154 13.154 0 0 0 .681 6.135l-.065.235-.235-.072a13.168 13.168 0 0 0-4.806-3.867 4.662 4.662 0 0 0-2.939-.637h-.014l-.013.009a1.844 1.844 0 0 0-1.092 1.578l.178.021a1.664 1.664 0 0 1 .975-1.434 4.51 4.51 0 0 1 2.823.618 12.9 12.9 0 0 1 4.586 3.625 23.36 23.36 0 0 0-9.177-.825c-3.57.6-.431 3.465 1.819 5.225.534.419.754 1.3 1.125 1.474a3.226 3.226 0 0 0 3.485-.687s-1.563 5.261 1.656 5.086 2.445.565 3.371.512 1.5-4.726 1.5-4.726 4.248 2.03 4.789 1.279-.5-.5 1.376-3.118-3.4-4.128-3.4-4.128" transform="translate(-2461.58 -4235.573)" style="fill:#fcee44"/>
                        </g>
                    </g>
                </g>
            </g>
        </g>
        <g data-name="그룹 2695">
            <g data-name="그룹 1807-7">
                <path data-name="패스 1611-7" d="M3391.912 3500.893a3.17 3.17 0 0 1-2.41-2.53c-.055-.4.561-1.048.626-1.712.27-2.8.992-6.914 3.372-4.272a23.012 23.012 0 0 1 4.169 8.051 12.707 12.707 0 0 0 .581-5.721v-.006a4.443 4.443 0 0 0-.981-2.665 1.645 1.645 0 0 0-1.7-.051l-.079-.157a1.822 1.822 0 0 1 1.89.072l.012.007.009.011a4.607 4.607 0 0 1 1.023 2.775 12.96 12.96 0 0 1-.67 6.035c.043.15.064.232.064.232l.228-.071a12.95 12.95 0 0 1 4.733-3.81 4.586 4.586 0 0 1 2.89-.626h.014l.012.008a1.817 1.817 0 0 1 1.074 1.554l-.175.021a1.639 1.639 0 0 0-.96-1.411 4.424 4.424 0 0 0-2.773.608 12.675 12.675 0 0 0-4.513 3.565 22.986 22.986 0 0 1 9.03-.811c3.507.587.423 3.407-1.791 5.138-.525.412-.742 1.281-1.107 1.449a3.169 3.169 0 0 1-3.428-.675s1.538 5.177-1.629 5-2.405.557-3.314.5-1.471-4.65-1.471-4.65-4.179 2-4.712 1.259.487-.48-1.357-3.055 3.343-4.062 3.343-4.062" style="fill:#1f5a2c" transform="translate(-3379.374 -3468.181)"/>
            </g>
            <g data-name="그룹 1807-8">
                <path data-name="패스 1611-8" d="M3390.113 3497.544a3.17 3.17 0 0 1-2.41-2.53c-.055-.4.561-1.048.626-1.712.27-2.8.992-6.914 3.372-4.272a23 23 0 0 1 4.169 8.051 12.711 12.711 0 0 0 .581-5.721v-.006a4.442 4.442 0 0 0-.981-2.665 1.645 1.645 0 0 0-1.7-.051l-.079-.157a1.823 1.823 0 0 1 1.89.072l.012.007.009.011a4.607 4.607 0 0 1 1.023 2.775 12.958 12.958 0 0 1-.67 6.035c.043.15.064.232.064.232l.228-.071a12.951 12.951 0 0 1 4.733-3.81 4.587 4.587 0 0 1 2.89-.626h.014l.012.008a1.816 1.816 0 0 1 1.074 1.554l-.175.021a1.639 1.639 0 0 0-.96-1.411 4.424 4.424 0 0 0-2.773.608 12.675 12.675 0 0 0-4.513 3.565 22.991 22.991 0 0 1 9.03-.811c3.507.587.423 3.407-1.791 5.138-.525.412-.742 1.281-1.107 1.449a3.17 3.17 0 0 1-3.428-.675s1.538 5.177-1.629 5-2.405.557-3.314.5-1.471-4.65-1.471-4.65-4.179 2-4.712 1.259.487-.48-1.357-3.055 3.343-4.062 3.343-4.062" style="fill:#a3d0ff" transform="translate(-3379.374 -3468.181)"/>
            </g>
        </g>
        <path data-name="사각형 3278" style="fill:none" d="M0 0h100v48H0z"/>
    </g>
</svg>
