<svg xmlns="http://www.w3.org/2000/svg" width="80" height="80" viewBox="0 0 80 80">
    <g data-name="그룹 2686">
        <path data-name="사각형 3272" style="fill:none" d="M0 0h80v80H0z"/>
        <g data-name="그룹 2679" transform="translate(-1792.34 -4045.251)">
            <path data-name="패스 16587" d="m1838.2 4088.87-4.944-28.7a2.429 2.429 0 0 0-4.244-1.162l-2.747 3.23-.3.351-13.4 15.764a13.239 13.239 0 0 0-1.407 15.142q.113.2.233.392a13.245 13.245 0 0 0 1.459 1.922h-.006c-4.95 3.7-6.413 9.911-3.815 12.4 2.163 2.073 8.025 3.373 17.995-6.679l4.93-5.118 4.907-3.986a3.74 3.74 0 0 0 .811-.93c.058-.092.116-.186.165-.282l-.2-.127.268-.024.027-.059-.125-.3.2.128a3.842 3.842 0 0 0 .126-.412 3.76 3.76 0 0 0 .067-1.55z" transform="translate(0 -.724)" style="fill:#1f5a2c"/>
            <path data-name="패스 16588" d="m1868.025 4090.825-.568-.113c-.019.092-1.676 8.186-5.894 11.3a.673.673 0 0 0-.132-.565.457.457 0 0 0-.157-.1c3.353-4.677 1.594-12.28 1.512-12.625l-.563.135c.02.083 1.873 8.1-1.7 12.522-2.2.614-7.559 4.8-13.228 10.465-6.778 6.777-11.435 13.108-10.4 14.141s7.363-3.625 14.14-10.4c5.264-5.263 9.247-10.256 10.281-12.708 4.834-2.894 6.63-11.651 6.709-12.052z" transform="translate(-10.487 -11.788)" style="fill:#1f5a2c"/>
            <g data-name="그룹 2675" transform="translate(1812.525 4094.066)">
                <path data-name="패스 16589" d="m1843.149 4120.108-6.213 6.453c-11.239 11.331-17.848 9.865-20.285 7.528-2.929-2.809-1.28-9.812 4.3-13.981l7.167-4.542z" transform="translate(-1815.224 -4115.566)" style="fill:#56b36b"/>
                <ellipse data-name="타원 735" cx="5.137" cy="3.77" rx="5.137" ry="3.77" transform="rotate(-41.959 17.106 2.235)" style="fill:#458d38"/>
                <ellipse data-name="타원 736" cx="3.09" cy="2.268" rx="3.09" ry="2.268" transform="rotate(-41.959 18.042 -1.185)" style="fill:#ffed00"/>
                <path data-name="패스 16590" d="M1824.323 4136.033a4.442 4.442 0 0 1-3.4-1.4 4.621 4.621 0 0 1-.93-4.144 8.351 8.351 0 0 1 2.661-4.411c2.873-2.584 6.772-2.95 8.691-.816s1.142 5.972-1.731 8.557a8.363 8.363 0 0 1-4.669 2.178 6.183 6.183 0 0 1-.622.036zm3.618-11.7a7.678 7.678 0 0 0-4.976 2.091 7.894 7.894 0 0 0-2.517 4.161 3.878 3.878 0 0 0 4.452 4.952 7.9 7.9 0 0 0 4.405-2.062c2.682-2.413 3.443-5.956 1.7-7.9a4.011 4.011 0 0 0-3.063-1.24z" transform="translate(-1816.904 -4118.573)" style="fill:#458d38"/>
            </g>
            <g data-name="그룹 2676">
                <path data-name="패스 16591" d="m1840.157 4064-12.737 14.982 26.086 16.721z" transform="translate(-7.112 -2.837)" style="fill:#ffed00"/>
                <path data-name="패스 16592" d="m1861.36 4090.779-5.573-32.349a2.738 2.738 0 0 0-4.785-1.309l-3.1 3.642 13.381 31.78a4.226 4.226 0 0 0 .077-1.764z" transform="translate(-14.525)" style="fill:#ffed00"/>
                <path data-name="패스 16593" d="M1824.593 4121.219a14.919 14.919 0 0 0 19.135.272l6.616-5.373a4.218 4.218 0 0 0 .915-1.047l-29.625 2.686a14.889 14.889 0 0 0 2.959 3.462z" transform="translate(-5.018 -21.32)" style="fill:#ffed00"/>
                <path data-name="패스 16594" d="m1823.761 4088.032-2.066 2.431a14.924 14.924 0 0 0-1.586 17.069l29.85-2.706z" transform="translate(-3.755 -11.535)" style="fill:#ffed00"/>
                <path data-name="패스 16595" d="m1844.177 4101.465.176.417c.034-.079.076-.155.106-.235z" transform="translate(-13.176 -16.396)" style="fill:#fff"/>
                <path data-name="패스 16596" d="m1843.8 4102.283.28.18c.035-.07.064-.142.1-.214z" transform="translate(-13.04 -16.679)" style="fill:#fff"/>
            </g>
            <g data-name="그룹 2677">
                <path data-name="패스 16597" d="M1832.444 4098.9a6.578 6.578 0 0 0 2.89 4.857c3.243 2.091 7.9.694 10.518-3.1l-12.058-7.73a9.468 9.468 0 0 0-1.35 5.973z" transform="translate(-8.908 -13.31)" style="fill:none"/>
                <path data-name="패스 16598" d="M1845.639 4086.582a6.211 6.211 0 0 0-3.391-.979 7.445 7.445 0 0 0-2.226.352 9.52 9.52 0 0 0-5.05 3.932l12.077 7.741c2.504-3.987 1.886-8.92-1.41-11.046z" transform="translate(-9.845 -10.656)" style="fill:none"/>
                <path data-name="패스 16599" d="m1831.678 4090.313-4.43-2.839-.3.355 4.49 2.879c.066-.109.125-.221.193-.328.014-.023.032-.044.047-.067z" transform="translate(-6.941 -11.334)" style="fill:#1f5a2c"/>
                <path data-name="패스 16600" d="M1834.787 4092.384c-.069.107-.128.218-.192.327l12.058 7.73c.065-.094.134-.181.2-.277.022-.035.041-.072.063-.107l-12.077-7.741c-.019.023-.039.044-.052.068z" transform="translate(-9.709 -13.086)" style="fill:#ffed00"/>
                <path data-name="패스 16601" d="M1835.071 4103.619a6.577 6.577 0 0 1-2.89-4.858 9.465 9.465 0 0 1 1.35-5.968l-.39-.25a9.935 9.935 0 0 0-1.419 6.275 7.033 7.033 0 0 0 3.1 5.189 6.647 6.647 0 0 0 3.637 1.047 9.42 9.42 0 0 0 7.526-4.28l-.394-.252c-2.624 3.79-7.277 5.187-10.52 3.097z" transform="translate(-8.645 -13.169)" style="fill:#1f5a2c"/>
                <path data-name="패스 16602" d="M1839.8 4085.691a7.429 7.429 0 0 1 2.226-.352 6.2 6.2 0 0 1 3.391.979c3.3 2.125 3.914 7.059 1.41 11.045l.39.25c2.642-4.2 1.961-9.421-1.549-11.684a7.03 7.03 0 0 0-6.005-.682 9.986 9.986 0 0 0-5.3 4.125l.39.251a9.512 9.512 0 0 1 5.047-3.932z" transform="translate(-9.624 -10.394)" style="fill:#1f5a2c"/>
                <path data-name="패스 16603" d="M1834.566 4092.242c.015-.023.033-.045.048-.069l-.39-.25c-.015.023-.032.044-.048.068-.069.108-.128.218-.193.329l.391.249c.064-.109.126-.219.192-.327z" transform="translate(-9.487 -12.944)" style="fill:#1f5a2c"/>
                <path data-name="패스 16604" d="m1854.14 4104.7-.39-.25c-.022.035-.04.073-.062.107-.062.1-.131.184-.2.276l.394.254c.065-.094.13-.185.192-.28.026-.038.044-.076.066-.107z" transform="translate(-16.547 -17.476)" style="fill:#1f5a2c"/>
            </g>
            <ellipse data-name="타원 737" cx="7.952" cy="6.639" rx="7.952" ry="6.639" transform="rotate(-57.17 4661.934 371.979)" style="stroke:#1f5a2c;stroke-miterlimit:10;fill:#fff"/>
            <g data-name="그룹 2678" transform="translate(1824.777 4076.604)">
                <ellipse data-name="타원 738" cx="5.092" cy="4.251" rx="5.092" ry="4.251" transform="matrix(.542 -.84 .84 .542 0 8.559)" style="fill:#56b36b"/>
                <path data-name="패스 16605" d="M1840.71 4100.873a4.252 4.252 0 0 1-2.325-.671 4.476 4.476 0 0 1-1.979-3.3 6.187 6.187 0 0 1 .992-4.086c1.7-2.627 4.9-3.589 7.134-2.148a4.475 4.475 0 0 1 1.979 3.3 6.191 6.191 0 0 1-.994 4.085 5.887 5.887 0 0 1-4.807 2.82zm1.486-9.721a4.733 4.733 0 0 0-3.824 2.293 5.027 5.027 0 0 0-.817 3.316 3.333 3.333 0 0 0 1.458 2.466c1.7 1.1 4.183.289 5.531-1.8a5.028 5.028 0 0 0 .817-3.317 3.337 3.337 0 0 0-1.457-2.467 3.122 3.122 0 0 0-1.704-.492z" transform="translate(-1835.126 -4088.852)" style="fill:#1f5a2c"/>
            </g>
            <path data-name="패스 16606" d="m1851.631 4095.156-13.381-31.779-.336.4 13.349 31.7v-.007l-8.8-5.64c-.022.036-.04.073-.063.108-.062.1-.128.187-.192.279l8.864 5.683-29.851 2.706q.128.223.262.441l29.626-2.686.02-.035c.058-.093.116-.187.166-.283h-.007a4.277 4.277 0 0 0 .2-.423 4.143 4.143 0 0 0 .143-.464z" transform="translate(-4.869 -2.614)" style="fill:#1f5a2c"/>
        </g>
    </g>
</svg>
