<svg xmlns="http://www.w3.org/2000/svg" width="315" height="89" viewBox="0 0 315 89">
    <defs>
        <clipPath id="iptqzk6sxa">
            <path data-name="사각형 3254" transform="translate(0 -.4)" style="fill:none" d="M0 0h315v89H0z"/>
        </clipPath>
    </defs>
    <g data-name="그룹 2664">
        <g data-name="그룹 2663" style="clip-path:url(#iptqzk6sxa)" transform="translate(0 .4)">
            <path data-name="패스 16335" d="M0 131.418h315V90.985a28.222 28.222 0 0 0-22.1 10.662 19.767 19.767 0 0 0-27.188.02 28.242 28.242 0 0 0-44.207-.041 28.243 28.243 0 0 0-44.191.021 19.767 19.767 0 0 0-27.188.02 28.219 28.219 0 0 0-43.26-1.144 24.2 24.2 0 0 0-14.312 0 28.22 28.22 0 0 0-43.244 1.123 19.767 19.767 0 0 0-27.188.021A28.22 28.22 0 0 0 0 90.985z" transform="translate(0 -43.218)" style="fill:#418c48"/>
            <path data-name="패스 16336" d="M425.284 143.569a26.987 26.987 0 1 1 53.974 0z" transform="translate(-202.13 -55.369)" style="fill:#409b54"/>
            <path data-name="패스 16337" d="M389.864 149.571a20.357 20.357 0 1 1 40.715 0z" transform="translate(-185.296 -61.371)" style="fill:#409b54"/>
            <path data-name="패스 16338" d="M482.975 149.571a20.357 20.357 0 1 1 40.715 0z" transform="translate(-229.55 -61.371)" style="fill:#409b54"/>
            <path data-name="패스 16339" d="M557.162 116.567a27 27 0 0 0-26.987 27h36.809v-25.15a26.9 26.9 0 0 0-9.822-1.852" transform="translate(-251.983 -55.369)" style="fill:#409b54"/>
            <path data-name="패스 16340" d="M126.464 143.569a26.987 26.987 0 1 0-53.974 0z" transform="translate(-34.453 -55.369)" style="fill:#409b54"/>
            <path data-name="패스 16341" d="M173.894 149.571a20.357 20.357 0 1 0-40.715 0z" transform="translate(-63.298 -61.371)" style="fill:#409b54"/>
            <path data-name="패스 16342" d="M80.784 149.571a20.357 20.357 0 1 0-40.715 0z" transform="translate(-19.044 -61.371)" style="fill:#409b54"/>
            <path data-name="패스 16343" d="M9.822 116.567a26.994 26.994 0 0 1 26.987 27H0v-25.15a26.9 26.9 0 0 1 9.822-1.852" transform="translate(0 -55.369)" style="fill:#409b54"/>
            <path data-name="패스 16344" d="M52.7 36.308a9.724 9.724 0 1 1 19.449 0z" transform="translate(-25.048 -12.624)" style="fill:#418c48"/>
            <path data-name="패스 16345" d="M52.7 51.742a9.724 9.724 0 1 1 19.449 0z" transform="translate(-25.048 -19.956)" style="fill:#418c48"/>
            <path data-name="패스 16346" d="M52.7 67.176a9.724 9.724 0 1 1 19.449 0z" transform="translate(-25.048 -27.287)" style="fill:#418c48"/>
            <path data-name="패스 16347" d="M52.7 82.609a9.724 9.724 0 1 1 19.449 0z" transform="translate(-25.048 -34.617)" style="fill:#418c48"/>
            <path data-name="사각형 3116" transform="translate(36.495 17.235)" style="fill:#418c48" d="M0 0h1.767v39.008H0z"/>
            <path data-name="패스 16348" d="M78.365 58.438a9.724 9.724 0 1 1 19.449 0z" transform="translate(-37.246 -23.136)" style="fill:#409b54"/>
            <path data-name="패스 16349" d="M78.365 73.872a9.724 9.724 0 1 1 19.449 0z" transform="translate(-37.246 -30.467)" style="fill:#409b54"/>
            <path data-name="패스 16350" d="M78.365 89.3a9.724 9.724 0 1 1 19.449 0z" transform="translate(-37.246 -37.798)" style="fill:#409b54"/>
            <path data-name="패스 16351" d="M78.365 104.739a9.724 9.724 0 1 1 19.449 0z" transform="translate(-37.246 -45.129)" style="fill:#409b54"/>
            <path data-name="사각형 3117" transform="translate(49.961 28.854)" style="fill:#409b54" d="M0 0h1.767v39.008H0z"/>
            <path data-name="패스 16352" d="M29.549 58.438a9.724 9.724 0 1 1 19.449 0z" transform="translate(-14.044 -23.136)" style="fill:#409b54"/>
            <path data-name="패스 16353" d="M29.549 73.872a9.724 9.724 0 1 1 19.449 0z" transform="translate(-14.044 -30.467)" style="fill:#409b54"/>
            <path data-name="패스 16354" d="M29.549 89.3A9.724 9.724 0 1 1 49 89.3z" transform="translate(-14.044 -37.798)" style="fill:#409b54"/>
            <path data-name="패스 16355" d="M29.549 104.739a9.724 9.724 0 1 1 19.449 0z" transform="translate(-14.044 -45.129)" style="fill:#409b54"/>
            <path data-name="사각형 3118" transform="translate(24.346 28.854)" style="fill:#409b54" d="M0 0h1.767v39.008H0z"/>
            <path data-name="사각형 3119" transform="translate(279.241 26.701)" style="fill:#418c48" d="M0 0h1.841v40.653H0z"/>
            <path data-name="패스 16356" d="M534.449 24.271a5.517 5.517 0 1 1-5.517-5.52 5.519 5.519 0 0 1 5.517 5.52" transform="translate(-248.77 -8.907)" style="fill:#418c48"/>
            <path data-name="패스 16357" d="M534.449 78.323a5.517 5.517 0 1 1-5.517-5.52 5.519 5.519 0 0 1 5.517 5.52" transform="translate(-248.77 -34.581)" style="fill:#418c48"/>
            <path data-name="패스 16358" d="M528.079 34.784a5.517 5.517 0 1 1-5.517-5.52 5.518 5.518 0 0 1 5.517 5.52" transform="translate(-245.743 -13.9)" style="fill:#418c48"/>
            <path data-name="패스 16359" d="M540.9 34.784a5.517 5.517 0 1 1-5.517-5.52 5.519 5.519 0 0 1 5.517 5.52" transform="translate(-251.836 -13.9)" style="fill:#418c48"/>
            <path data-name="패스 16360" d="M528.079 67.809a5.517 5.517 0 1 1-5.517-5.52 5.518 5.518 0 0 1 5.517 5.52" transform="translate(-245.743 -29.587)" style="fill:#418c48"/>
            <path data-name="패스 16361" d="M540.9 67.809a5.517 5.517 0 1 1-5.517-5.52 5.519 5.519 0 0 1 5.517 5.52" transform="translate(-251.836 -29.587)" style="fill:#418c48"/>
            <path data-name="패스 16362" d="M534.922 47.04a10.537 10.537 0 1 1-10.538-10.54 10.54 10.54 0 0 1 10.538 10.54" transform="translate(-244.223 -17.336)" style="fill:#418c48"/>
            <path data-name="사각형 3120" transform="translate(265.097 32.784)" style="fill:#409b54" d="M0 0h1.841v40.653H0z"/>
            <path data-name="패스 16363" d="M507.493 35.859a5.517 5.517 0 1 1-5.517-5.52 5.518 5.518 0 0 1 5.517 5.52" transform="translate(-235.959 -14.411)" style="fill:#409b54"/>
            <path data-name="패스 16364" d="M507.493 89.911a5.517 5.517 0 1 1-5.517-5.52 5.518 5.518 0 0 1 5.517 5.52" transform="translate(-235.959 -40.085)" style="fill:#409b54"/>
            <path data-name="패스 16365" d="M501.124 46.372a5.517 5.517 0 1 1-5.517-5.52 5.518 5.518 0 0 1 5.517 5.52" transform="translate(-232.932 -19.405)" style="fill:#409b54"/>
            <path data-name="패스 16366" d="M513.943 46.372a5.517 5.517 0 1 1-5.517-5.52 5.518 5.518 0 0 1 5.517 5.52" transform="translate(-239.025 -19.405)" style="fill:#409b54"/>
            <path data-name="패스 16367" d="M501.124 79.4a5.517 5.517 0 1 1-5.517-5.52 5.518 5.518 0 0 1 5.517 5.52" transform="translate(-232.932 -35.091)" style="fill:#409b54"/>
            <path data-name="패스 16368" d="M513.943 79.4a5.517 5.517 0 1 1-5.517-5.52 5.518 5.518 0 0 1 5.517 5.52" transform="translate(-239.025 -35.091)" style="fill:#409b54"/>
            <path data-name="패스 16369" d="M507.967 58.628a10.537 10.537 0 1 1-10.537-10.543 10.54 10.54 0 0 1 10.537 10.543" transform="translate(-231.412 -22.84)" style="fill:#409b54"/>
            <path data-name="사각형 3121" transform="translate(292.553 32.784)" style="fill:#409b54" d="M0 0h1.841v40.653H0z"/>
            <path data-name="패스 16370" d="M559.819 35.859a5.517 5.517 0 1 1-5.517-5.52 5.518 5.518 0 0 1 5.517 5.52" transform="translate(-260.829 -14.411)" style="fill:#409b54"/>
            <path data-name="패스 16371" d="M559.819 89.911a5.517 5.517 0 1 1-5.517-5.52 5.518 5.518 0 0 1 5.517 5.52" transform="translate(-260.829 -40.085)" style="fill:#409b54"/>
            <path data-name="패스 16372" d="M553.449 46.372a5.517 5.517 0 1 1-5.517-5.52 5.518 5.518 0 0 1 5.517 5.52" transform="translate(-257.801 -19.405)" style="fill:#409b54"/>
            <path data-name="패스 16373" d="M566.269 46.372a5.517 5.517 0 1 1-5.517-5.52 5.518 5.518 0 0 1 5.517 5.52" transform="translate(-263.894 -19.405)" style="fill:#409b54"/>
            <path data-name="패스 16374" d="M553.449 79.4a5.517 5.517 0 1 1-5.517-5.52 5.518 5.518 0 0 1 5.517 5.52" transform="translate(-257.801 -35.091)" style="fill:#409b54"/>
            <path data-name="패스 16375" d="M566.269 79.4a5.517 5.517 0 1 1-5.517-5.52 5.518 5.518 0 0 1 5.517 5.52" transform="translate(-263.894 -35.091)" style="fill:#409b54"/>
            <path data-name="패스 16376" d="M560.292 58.628a10.537 10.537 0 1 1-10.537-10.543 10.54 10.54 0 0 1 10.537 10.543" transform="translate(-256.281 -22.84)" style="fill:#409b54"/>
            <path data-name="패스 16377" d="M305.166 37.717v-2.593h-1.693v-6.06a7.317 7.317 0 0 0-7.307-7.311h-20.52v-1.487H272.8a26.8 26.8 0 0 0-9.31-14.489 26.638 26.638 0 0 0-33.129 0 26.8 26.8 0 0 0-9.309 14.489h-2.795v1.487h-20.851a7.317 7.317 0 0 0-7.307 7.311v6.06h-3.528v2.593h-.971v3.5h.968v5.056a1.206 1.206 0 0 0 .7 1.094v1.4h.617v32.609h-.617V82.5h-.941v5.7h118.839v-5.7h-.941v-1.124h-.617V48.759h.617v-1.4a1.206 1.206 0 0 0 .7-1.094v-1.252h.24v-3.8h.659v-3.5z" transform="translate(-88.214)" style="fill:#fff"/>
            <path data-name="사각형 3122" transform="translate(157.41 48.125)" style="fill:#55b26b" d="M0 0h.488v5.856H0z"/>
            <path data-name="패스 16378" d="m293.064 99.237-8.158-5.215.263-.411 7.9 5.048 8.044-5.05.259.414z" transform="translate(-135.411 -44.464)" style="fill:#55b26b"/>
            <path data-name="패스 16379" d="M302.181 96.981h-33.645l.591-.44a27.34 27.34 0 0 1 32.463 0zm-32.154-.488h30.663a26.873 26.873 0 0 0-30.663 0" transform="translate(-127.631 -43.32)" style="fill:#55b26b"/>
            <path data-name="패스 16380" d="M301.429 99.394h-17.676l.591-.44a13.891 13.891 0 0 1 16.494 0zm-16.167-.488h14.657a13.425 13.425 0 0 0-14.657 0" transform="translate(-134.863 -45.714)" style="fill:#55b26b"/>
            <path data-name="패스 16381" d="M211.509 127.551h-10.662v-31.48a5.331 5.331 0 1 1 10.662 0zm-10.337-.326h10.012V96.071a5.006 5.006 0 1 0-10.012 0z" transform="translate(-95.459 -43.1)" style="fill:#55b26b"/>
            <path data-name="사각형 3123" transform="translate(105.55 53.36)" style="fill:#55b26b" d="M0 0h10.337v.326H0z"/>
            <path data-name="패스 16382" d="m207.53 98.392-3.939-4.213.237-.223 3.7 3.956 3.608-3.954.24.219z" transform="translate(-96.763 -44.629)" style="fill:#55b26b"/>
            <path data-name="사각형 3124" transform="translate(105.55 58.441)" style="fill:#55b26b" d="M0 0h10.337v.326H0z"/>
            <path data-name="사각형 3125" transform="translate(105.55 63.147)" style="fill:#55b26b" d="M0 0h10.337v.326H0z"/>
            <path data-name="사각형 3126" transform="translate(105.55 67.854)" style="fill:#55b26b" d="M0 0h10.337v.326H0z"/>
            <path data-name="사각형 3127" transform="translate(105.55 72.557)" style="fill:#55b26b" d="M0 0h10.337v.326H0z"/>
            <path data-name="사각형 3128" transform="translate(105.55 77.49)" style="fill:#55b26b" d="M0 0h10.337v.326H0z"/>
            <path data-name="사각형 3129" transform="translate(109.948 53.45)" style="fill:#fff" d="M0 0h1.635v29.136H0z"/>
            <path data-name="패스 16383" d="M211.179 130.953h-1.8v-29.3h1.8zm-1.636-.163h1.473v-28.972h-1.473z" transform="translate(-99.515 -48.286)" style="fill:#55b26b"/>
            <path data-name="사각형 3130" transform="translate(110.556 47.8)" style="fill:#55b26b" d="M0 0h.325v5.946H0z"/>
            <path data-name="패스 16384" d="M248.7 127.551h-10.658v-31.48a5.331 5.331 0 1 1 10.662 0zm-10.337-.326h10.012V96.071a5.006 5.006 0 1 0-10.012 0z" transform="translate(-113.137 -43.1)" style="fill:#55b26b"/>
            <path data-name="사각형 3131" transform="translate(125.067 53.36)" style="fill:#55b26b" d="M0 0h10.337v.326H0z"/>
            <path data-name="패스 16385" d="m244.724 98.392-3.939-4.213.237-.223 3.7 3.956 3.608-3.954.24.219z" transform="translate(-114.441 -44.629)" style="fill:#55b26b"/>
            <path data-name="사각형 3132" transform="translate(125.067 58.441)" style="fill:#55b26b" d="M0 0h10.337v.326H0z"/>
            <path data-name="사각형 3133" transform="translate(125.067 63.147)" style="fill:#55b26b" d="M0 0h10.337v.326H0z"/>
            <path data-name="사각형 3134" transform="translate(125.067 67.854)" style="fill:#55b26b" d="M0 0h10.337v.326H0z"/>
            <path data-name="사각형 3135" transform="translate(125.067 72.557)" style="fill:#55b26b" d="M0 0h10.337v.326H0z"/>
            <path data-name="사각형 3136" transform="translate(125.067 77.49)" style="fill:#55b26b" d="M0 0h10.337v.326H0z"/>
            <path data-name="사각형 3137" transform="translate(129.464 53.45)" style="fill:#fff" d="M0 0h1.635v29.136H0z"/>
            <path data-name="패스 16386" d="M248.375 130.953h-1.8v-29.3h1.8zm-1.636-.163h1.472v-28.972h-1.472z" transform="translate(-117.194 -48.286)" style="fill:#55b26b"/>
            <path data-name="사각형 3138" transform="translate(130.073 47.8)" style="fill:#55b26b" d="M0 0h.325v5.946H0z"/>
            <path data-name="패스 16387" d="M352.711 127.551h-10.662v-31.48a5.331 5.331 0 1 1 10.662 0zm-10.337-.326h10.012V96.071a5.006 5.006 0 1 0-10.012 0z" transform="translate(-162.57 -43.1)" style="fill:#55b26b"/>
            <path data-name="사각형 3139" transform="translate(179.641 53.36)" style="fill:#55b26b" d="M0 0h10.337v.326H0z"/>
            <path data-name="패스 16388" d="m348.731 98.392-3.939-4.213.238-.223 3.7 3.956 3.608-3.954.24.219z" transform="translate(-163.874 -44.629)" style="fill:#55b26b"/>
            <path data-name="사각형 3140" transform="translate(179.641 58.441)" style="fill:#55b26b" d="M0 0h10.337v.326H0z"/>
            <path data-name="사각형 3141" transform="translate(179.641 63.147)" style="fill:#55b26b" d="M0 0h10.337v.326H0z"/>
            <path data-name="사각형 3142" transform="translate(179.641 67.854)" style="fill:#55b26b" d="M0 0h10.337v.326H0z"/>
            <path data-name="사각형 3143" transform="translate(179.641 72.557)" style="fill:#55b26b" d="M0 0h10.337v.326H0z"/>
            <path data-name="사각형 3144" transform="translate(179.641 77.49)" style="fill:#55b26b" d="M0 0h10.337v.326H0z"/>
            <path data-name="사각형 3145" transform="translate(184.038 53.45)" style="fill:#fff" d="M0 0h1.635v29.136H0z"/>
            <path data-name="패스 16389" d="M352.382 130.953h-1.8v-29.3h1.8zm-1.636-.163h1.472v-28.972h-1.472z" transform="translate(-166.627 -48.286)" style="fill:#55b26b"/>
            <path data-name="사각형 3146" transform="translate(184.647 47.8)" style="fill:#55b26b" d="M0 0h.325v5.946H0z"/>
            <path data-name="패스 16390" d="M389.906 127.551h-10.662v-31.48a5.331 5.331 0 1 1 10.662 0zm-10.337-.326h10.012V96.071a5.006 5.006 0 1 0-10.012 0z" transform="translate(-180.248 -43.1)" style="fill:#55b26b"/>
            <path data-name="사각형 3147" transform="translate(199.158 53.36)" style="fill:#55b26b" d="M0 0h10.337v.326H0z"/>
            <path data-name="패스 16391" d="m385.926 98.392-3.94-4.213.238-.223 3.7 3.956 3.608-3.954.24.219z" transform="translate(-181.552 -44.629)" style="fill:#55b26b"/>
            <path data-name="사각형 3148" transform="translate(199.158 58.441)" style="fill:#55b26b" d="M0 0h10.337v.326H0z"/>
            <path data-name="사각형 3149" transform="translate(199.158 63.147)" style="fill:#55b26b" d="M0 0h10.337v.326H0z"/>
            <path data-name="사각형 3150" transform="translate(199.158 67.854)" style="fill:#55b26b" d="M0 0h10.337v.326H0z"/>
            <path data-name="사각형 3151" transform="translate(199.158 72.557)" style="fill:#55b26b" d="M0 0h10.337v.326H0z"/>
            <path data-name="사각형 3152" transform="translate(199.158 77.49)" style="fill:#55b26b" d="M0 0h10.337v.326H0z"/>
            <path data-name="사각형 3153" transform="translate(203.555 53.45)" style="fill:#fff" d="M0 0h1.635v29.136H0z"/>
            <path data-name="패스 16392" d="M389.577 130.953h-1.8v-29.3h1.8zm-1.636-.163h1.472v-28.972h-1.472z" transform="translate(-184.305 -48.286)" style="fill:#55b26b"/>
            <path data-name="사각형 3154" transform="translate(204.164 47.8)" style="fill:#55b26b" d="M0 0h.325v5.946H0z"/>
            <path data-name="사각형 3155" transform="translate(135.557 28.671)" style="fill:#55b26b" d="M0 0h46.469v.163H0z"/>
            <path data-name="패스 16393" d="M381.717 55.433h-31.488v-14h24.181a7.317 7.317 0 0 1 7.307 7.311zm-31-.488h30.512v-6.2a6.828 6.828 0 0 0-6.819-6.822h-23.693z" transform="translate(-166.458 -19.681)" style="fill:#55b26b"/>
            <path data-name="패스 16394" d="M399.453 55.336h-.163v-6.445a6.991 6.991 0 0 0-6.981-6.985v-.163a7.154 7.154 0 0 1 7.144 7.148z" transform="translate(-186.458 -19.828)" style="fill:#55b26b"/>
            <path data-name="패스 16395" d="M395.143 55.336h-.163v-6.445c0-3.851-2.3-6.985-5.129-6.985v-.163c2.918 0 5.292 3.207 5.292 7.148z" transform="translate(-185.29 -19.828)" style="fill:#55b26b"/>
            <path data-name="패스 16396" d="M388.772 55.336h-.163v-6.445c0-3.851-1.132-6.985-2.524-6.985v-.163c1.506 0 2.687 3.14 2.687 7.148z" transform="translate(-183.5 -19.828)" style="fill:#55b26b"/>
            <path data-name="패스 16397" d="M381.618 55.336h-.163v-6.445c0-4.117-.644-6.985-1.222-6.985v-.163c.9 0 1.384 3.683 1.384 7.148z" transform="translate(-180.719 -19.828)" style="fill:#55b26b"/>
            <path data-name="사각형 3156" transform="translate(196.181 22.034)" style="fill:#55b26b" d="M0 0h.163v13.474H0z"/>
            <path data-name="사각형 3157" transform="translate(191.452 22.034)" style="fill:#55b26b" d="M0 0h.163v13.474H0z"/>
            <path data-name="사각형 3158" transform="translate(187.882 22.034)" style="fill:#55b26b" d="M0 0h.163v13.474H0z"/>
            <path data-name="사각형 3159" transform="translate(184.015 24.057)" style="fill:#55b26b" d="M0 0h29v.163H0z"/>
            <path data-name="사각형 3160" transform="translate(184.015 26.063)" style="fill:#55b26b" d="M0 0h30.232v.163H0z"/>
            <path data-name="사각형 3161" transform="translate(184.015 28.069)" style="fill:#55b26b" d="M0 0h30.941v.163H0z"/>
            <path data-name="사각형 3162" transform="translate(184.015 30.075)" style="fill:#55b26b" d="M0 0h30.941v.163H0z"/>
            <path data-name="사각형 3163" transform="translate(184.015 32.081)" style="fill:#55b26b" d="M0 0h30.941v.163H0z"/>
            <path data-name="패스 16398" d="M225.659 55.433h-31.488v-6.689a7.317 7.317 0 0 1 7.307-7.311h24.181zm-31-.488h30.512V41.921h-23.693a6.829 6.829 0 0 0-6.819 6.822z" transform="translate(-92.286 -19.681)" style="fill:#55b26b"/>
            <path data-name="패스 16399" d="M198.649 55.336h-.163v-6.445a7.154 7.154 0 0 1 7.144-7.148v.163a6.991 6.991 0 0 0-6.981 6.985z" transform="translate(-94.337 -19.828)" style="fill:#55b26b"/>
            <path data-name="패스 16400" d="M204.637 55.336h-.163v-6.445c0-3.941 2.374-7.148 5.292-7.148v.163c-2.828 0-5.129 3.134-5.129 6.985z" transform="translate(-97.183 -19.828)" style="fill:#55b26b"/>
            <path data-name="패스 16401" d="M213.368 55.336h-.168v-6.445c0-4.008 1.18-7.148 2.687-7.148v.163c-1.392 0-2.524 3.134-2.524 6.985z" transform="translate(-101.333 -19.828)" style="fill:#55b26b"/>
            <path data-name="패스 16402" d="M221.7 55.336h-.163v-6.445c0-3.465.485-7.148 1.384-7.148v.163c-.578 0-1.222 2.869-1.222 6.985z" transform="translate(-105.293 -19.828)" style="fill:#55b26b"/>
            <path data-name="사각형 3164" transform="translate(120.8 22.034)" style="fill:#55b26b" d="M0 0h.163v13.474H0z"/>
            <path data-name="사각형 3165" transform="translate(125.53 22.034)" style="fill:#55b26b" d="M0 0h.163v13.474H0z"/>
            <path data-name="사각형 3166" transform="translate(129.1 22.034)" style="fill:#55b26b" d="M0 0h.163v13.474H0z"/>
            <path data-name="사각형 3167" transform="translate(104.128 24.057)" style="fill:#55b26b" d="M0 0h29v.163H0z"/>
            <path data-name="사각형 3168" transform="translate(102.897 26.063)" style="fill:#55b26b" d="M0 0h30.231v.163H0z"/>
            <path data-name="사각형 3169" transform="translate(102.188 28.069)" style="fill:#55b26b" d="M0 0h30.941v.163H0z"/>
            <path data-name="사각형 3170" transform="translate(102.188 30.075)" style="fill:#55b26b" d="M0 0h30.941v.163H0z"/>
            <path data-name="사각형 3171" transform="translate(102.188 32.081)" style="fill:#55b26b" d="M0 0h30.941v.163H0z"/>
            <path data-name="패스 16403" d="M258.328 35.873H253.4l.025-.1a26.436 26.436 0 0 1 1.006-3.205l.02-.052h4.737l-.034.106a30.764 30.764 0 0 0-.815 3.187zm-4.719-.163h4.586a30.853 30.853 0 0 1 .773-3.032h-4.4a26.335 26.335 0 0 0-.955 3.032" transform="translate(-120.437 -15.445)" style="fill:#55b26b"/>
            <path data-name="패스 16404" d="M316.922 4.6h-2.936l-.022-.017a18.563 18.563 0 0 0-11.495-4.11V.31a26.392 26.392 0 0 1 14.218 4.139zm-2.88-.163h2.32A26.178 26.178 0 0 0 306.6.8a19.4 19.4 0 0 1 7.438 3.639" transform="translate(-143.758 -.147)" style="fill:#55b26b"/>
            <path data-name="패스 16405" d="M277.861 4.6h-2.936l.235-.15A26.391 26.391 0 0 1 289.378.31v.163a18.561 18.561 0 0 0-11.494 4.109zm-2.376-.163h2.32A19.394 19.394 0 0 1 285.243.8a26.165 26.165 0 0 0-9.758 3.639" transform="translate(-130.667 -.147)" style="fill:#55b26b"/>
            <path data-name="패스 16406" d="M262.565 23.7h-4.485l.066-.121a26.7 26.7 0 0 1 2.075-3.205l.024-.032h4.1l-.076.124a27.783 27.783 0 0 0-1.68 3.186zm-4.21-.163h4.1a27.911 27.911 0 0 1 1.592-3.032h-3.725a26.508 26.508 0 0 0-1.971 3.032" transform="translate(-122.661 -9.662)" style="fill:#55b26b"/>
            <path data-name="패스 16407" d="M260.034 29.786h-4.749l.043-.111a26.471 26.471 0 0 1 1.49-3.205l.023-.042h4.469l-.051.114a29.5 29.5 0 0 0-1.207 3.186zm-4.511-.163h4.392a29.559 29.559 0 0 1 1.144-3.032h-4.122a26.264 26.264 0 0 0-1.415 3.032" transform="translate(-121.333 -12.553)" style="fill:#55b26b"/>
            <path data-name="패스 16408" d="M270.937 11.527h-3.625l.146-.14a26.661 26.661 0 0 1 4.083-3.205l.02-.013h2.889l-.186.145a22.885 22.885 0 0 0-3.3 3.184zm-3.218-.163h3.143a23.105 23.105 0 0 1 3.119-3.032h-2.372a26.493 26.493 0 0 0-3.89 3.032" transform="translate(-127.049 -3.88)" style="fill:#55b26b"/>
            <path data-name="패스 16409" d="M266.092 17.614h-4.12l.1-.13a26.714 26.714 0 0 1 2.85-3.205l.024-.023h3.593l-.114.134a25.714 25.714 0 0 0-2.307 3.185zm-3.793-.163H266a25.811 25.811 0 0 1 2.184-3.032h-3.174a26.558 26.558 0 0 0-2.71 3.032" transform="translate(-124.511 -6.772)" style="fill:#55b26b"/>
            <path data-name="패스 16410" d="M346.294 35.873h-4.927l-.013-.066a30.771 30.771 0 0 0-.815-3.187l-.033-.106h4.737l.02.052a26.387 26.387 0 0 1 1.006 3.205zm-4.794-.163h4.586a26.273 26.273 0 0 0-.955-3.032h-4.4a30.972 30.972 0 0 1 .773 3.032" transform="translate(-161.837 -15.445)" style="fill:#55b26b"/>
            <path data-name="패스 16411" d="M344.2 29.786h-4.749l-.018-.057a29.548 29.548 0 0 0-1.207-3.186l-.051-.114h4.468l.023.042a26.557 26.557 0 0 1 1.491 3.205zm-4.63-.163h4.392a26.449 26.449 0 0 0-1.415-3.032h-4.122a29.6 29.6 0 0 1 1.144 3.032" transform="translate(-160.727 -12.553)" style="fill:#55b26b"/>
            <path data-name="패스 16412" d="M331.16 11.527h-3.625l-.025-.028a22.851 22.851 0 0 0-3.3-3.184l-.186-.145h2.889l.02.013a26.642 26.642 0 0 1 4.082 3.205zm-3.55-.163h3.143a26.478 26.478 0 0 0-3.89-3.032h-2.372a23.1 23.1 0 0 1 3.119 3.032" transform="translate(-154.002 -3.88)" style="fill:#55b26b"/>
            <path data-name="패스 16413" d="M337.019 17.614H332.9l-.024-.039a25.651 25.651 0 0 0-2.307-3.185l-.114-.134h3.593l.024.023a26.721 26.721 0 0 1 2.85 3.205zm-4.029-.163h3.7a26.515 26.515 0 0 0-2.71-3.032h-3.176a25.855 25.855 0 0 1 2.184 3.032" transform="translate(-157.059 -6.772)" style="fill:#55b26b"/>
            <path data-name="패스 16414" d="M341.184 23.7H336.7l-.022-.048A27.743 27.743 0 0 0 335 20.466l-.077-.124h4.1l.025.032a26.707 26.707 0 0 1 2.074 3.205zm-4.38-.163h4.1a26.434 26.434 0 0 0-1.97-3.032h-3.726a27.879 27.879 0 0 1 1.592 3.032" transform="translate(-159.183 -9.662)" style="fill:#55b26b"/>
            <path data-name="패스 16415" d="M325.332 11.527h-3.711l-.024-.037a20.772 20.772 0 0 0-2.526-3.183l-.135-.138h2.933l.022.017a23.04 23.04 0 0 1 3.327 3.206zm-3.623-.163h3.27a22.837 22.837 0 0 0-3.167-3.032h-2.491a21.093 21.093 0 0 1 2.388 3.032" transform="translate(-151.585 -3.88)" style="fill:#55b26b"/>
            <path data-name="패스 16416" d="M333.24 23.7h-4.613l-.019-.055a31.577 31.577 0 0 0-1.286-3.187l-.055-.116h4.208l.024.039a27.789 27.789 0 0 1 1.689 3.2zm-4.5-.163h4.245a27.673 27.673 0 0 0-1.6-3.032h-3.86a31.817 31.817 0 0 1 1.219 3.032" transform="translate(-155.545 -9.662)" style="fill:#55b26b"/>
            <path data-name="패스 16417" d="M329.952 17.614h-4.231l-.022-.047a26.485 26.485 0 0 0-1.765-3.186l-.082-.125h3.678l.025.028a25.8 25.8 0 0 1 2.321 3.206zm-4.128-.163h3.836a25.59 25.59 0 0 0-2.206-3.032h-3.3a26.741 26.741 0 0 1 1.673 3.032" transform="translate(-153.921 -6.772)" style="fill:#55b26b"/>
            <path data-name="패스 16418" d="M314.25 4.6h-2.981l-.024-.025a12.306 12.306 0 0 0-8.775-4.1V.31a18.724 18.724 0 0 1 11.6 4.143zm-2.913-.163h2.439a18.946 18.946 0 0 0-8.442-3.73 13.644 13.644 0 0 1 6 3.729" transform="translate(-143.758 -.147)" style="fill:#55b26b"/>
            <path data-name="패스 16419" d="M335.616 29.786h-4.889l-.015-.062a35.283 35.283 0 0 0-.924-3.188l-.037-.108h4.6l.021.048a29.586 29.586 0 0 1 1.214 3.2zm-4.761-.163h4.539a29.388 29.388 0 0 0-1.152-3.032h-4.263c.331.976.625 2 .876 3.032" transform="translate(-156.726 -12.553)" style="fill:#55b26b"/>
            <path data-name="패스 16420" d="M337.27 35.873h-5.07l-.011-.069a38.393 38.393 0 0 0-.624-3.188l-.024-.1h4.877l.018.057a30.931 30.931 0 0 1 .819 3.2zm-4.935-.163h4.737a30.921 30.921 0 0 0-.778-3.032h-4.551c.234.985.433 2 .592 3.032" transform="translate(-157.574 -15.445)" style="fill:#55b26b"/>
            <path data-name="패스 16421" d="M273.691 17.614h-4.231l.077-.124a25.8 25.8 0 0 1 2.321-3.206l.025-.028h3.678l-.082.125a26.544 26.544 0 0 0-1.765 3.186zm-3.94-.163h3.836a26.808 26.808 0 0 1 1.673-3.032h-3.3a25.547 25.547 0 0 0-2.206 3.032" transform="translate(-128.07 -6.772)" style="fill:#55b26b"/>
            <path data-name="패스 16422" d="M277.523 11.527h-3.71l.114-.134a23.061 23.061 0 0 1 3.327-3.206l.022-.017h2.933l-.135.138a20.812 20.812 0 0 0-2.526 3.183zm-3.357-.163h3.27a21.062 21.062 0 0 1 2.389-3.032h-2.492a22.866 22.866 0 0 0-3.166 3.032" transform="translate(-130.139 -3.88)" style="fill:#55b26b"/>
            <path data-name="패스 16423" d="M268.9 29.786h-4.89l.034-.106a29.519 29.519 0 0 1 1.213-3.2l.022-.048h4.6l-.037.108c-.35 1.023-.661 2.1-.924 3.188zm-4.667-.163h4.539c.251-1.037.546-2.057.876-3.032h-4.263a29.457 29.457 0 0 0-1.152 3.032" transform="translate(-125.48 -12.553)" style="fill:#55b26b"/>
            <path data-name="패스 16424" d="M267.551 35.873h-5.075l.019-.1a30.931 30.931 0 0 1 .819-3.2l.018-.057h4.877l-.024.1a38.474 38.474 0 0 0-.624 3.188zm-4.876-.163h4.737a38.88 38.88 0 0 1 .592-3.032h-4.551a30.767 30.767 0 0 0-.778 3.032" transform="translate(-124.75 -15.445)" style="fill:#55b26b"/>
            <path data-name="패스 16425" d="M270.9 23.7h-4.613l.051-.114a27.936 27.936 0 0 1 1.689-3.2l.024-.039h4.207l-.055.116a31.455 31.455 0 0 0-1.285 3.187zm-4.362-.163h4.245A31.809 31.809 0 0 1 272 20.5h-3.86a27.755 27.755 0 0 0-1.6 3.032" transform="translate(-126.563 -9.662)" style="fill:#55b26b"/>
            <path data-name="패스 16426" d="M283 4.6h-2.981l.186-.145A18.724 18.724 0 0 1 291.8.31v.163a12.3 12.3 0 0 0-8.775 4.1zm-2.508-.163h2.439a13.645 13.645 0 0 1 6-3.729 18.947 18.947 0 0 0-8.442 3.729" transform="translate(-133.087 -.147)" style="fill:#55b26b"/>
            <path data-name="패스 16427" d="M284.71 11.527h-4.2l.082-.126a20.988 20.988 0 0 1 2.546-3.208l.024-.024h3.284l-.079.125a21.85 21.85 0 0 0-1.64 3.183zm-3.9-.163h3.79a22.235 22.235 0 0 1 1.553-3.032h-2.92a20.719 20.719 0 0 0-2.421 3.032" transform="translate(-133.324 -3.88)" style="fill:#55b26b"/>
            <path data-name="패스 16428" d="M319.047 11.527h-4.2l-.021-.05a21.853 21.853 0 0 0-1.639-3.183l-.079-.125h3.284l.024.024a21 21 0 0 1 2.546 3.208zm-4.088-.163h3.787a20.683 20.683 0 0 0-2.42-3.032h-2.92a22.18 22.18 0 0 1 1.553 3.032" transform="translate(-148.816 -3.88)" style="fill:#55b26b"/>
            <path data-name="패스 16429" d="M322.31 17.614h-4.8l-.018-.058a32.885 32.885 0 0 0-1.146-3.187l-.048-.113h4.158l.024.037a26.621 26.621 0 0 1 1.776 3.205zm-4.682-.163h4.425a26.438 26.438 0 0 0-1.686-3.032h-3.825c.391.937.757 1.957 1.087 3.032" transform="translate(-150.33 -6.772)" style="fill:#55b26b"/>
            <path data-name="패스 16430" d="M280 23.7h-5.245l.037-.108a31.5 31.5 0 0 1 1.292-3.2l.022-.047h4.775l-.032.1a42.95 42.95 0 0 0-.835 3.189zm-5.017-.163h4.887c.235-1.052.5-2.071.791-3.032h-4.452a31.5 31.5 0 0 0-1.226 3.032" transform="translate(-130.586 -9.662)" style="fill:#55b26b"/>
            <path data-name="패스 16431" d="M326.317 29.786h-5.564l-.011-.069a51.812 51.812 0 0 0-.6-3.19l-.022-.1h5.226l.019.055c.352 1.028.664 2.106.928 3.2zm-5.425-.163h5.218a35.319 35.319 0 0 0-.88-3.032h-4.907c.215.976.406 2 .569 3.032" transform="translate(-152.148 -12.553)" style="fill:#55b26b"/>
            <path data-name="패스 16432" d="M281.984 17.614h-4.8l.055-.116a26.679 26.679 0 0 1 1.776-3.205l.024-.037h4.161l-.048.113A32.893 32.893 0 0 0 282 17.556zm-4.545-.163h4.425c.33-1.076.7-2.1 1.087-3.032h-3.825a26.388 26.388 0 0 0-1.686 3.032" transform="translate(-131.74 -6.772)" style="fill:#55b26b"/>
            <path data-name="패스 16433" d="M278.572 29.786h-5.564l.024-.1c.264-1.1.576-2.175.928-3.2l.019-.055h5.221l-.022.1a51.628 51.628 0 0 0-.6 3.19zm-5.357-.163h5.218a51.69 51.69 0 0 1 .569-3.032H274.1a35.214 35.214 0 0 0-.88 3.032" transform="translate(-129.756 -12.553)" style="fill:#55b26b"/>
            <path data-name="패스 16434" d="M324.636 23.7h-5.246l-.014-.064a42.85 42.85 0 0 0-.834-3.189l-.032-.1h4.775l.022.047a31.611 31.611 0 0 1 1.292 3.2zm-5.115-.163h4.887a31.487 31.487 0 0 0-1.226-3.032h-4.453c.291.963.557 1.983.792 3.032" transform="translate(-151.382 -9.662)" style="fill:#55b26b"/>
            <path data-name="패스 16435" d="M277.612 35.873h-5.779l.014-.093c.166-1.086.377-2.164.627-3.2l.015-.062h5.55l-.015.094a55.408 55.408 0 0 0-.405 3.19zm-5.59-.163h5.442c.1-1.026.232-2.046.385-3.032h-5.232c-.235.985-.435 2-.595 3.032" transform="translate(-129.198 -15.445)" style="fill:#55b26b"/>
            <path data-name="패스 16436" d="M288.606 4.6h-3.339l.135-.138A12.463 12.463 0 0 1 294.293.31v.163c-2.009 0-3.967 1.414-5.663 4.088zm-2.952-.163h2.862A8.954 8.954 0 0 1 292.706.6a12.835 12.835 0 0 0-7.052 3.84" transform="translate(-135.583 -.147)" style="fill:#55b26b"/>
            <path data-name="패스 16437" d="M311.5 4.6h-3.339l-.024-.038c-1.7-2.674-3.654-4.088-5.663-4.088V.31a12.465 12.465 0 0 1 8.892 4.151zm-3.25-.163h2.862A12.837 12.837 0 0 0 304.056.6a8.954 8.954 0 0 1 4.19 3.84" transform="translate(-143.758 -.147)" style="fill:#55b26b"/>
            <path data-name="패스 16438" d="M327.484 35.873H321.7V35.8a61.445 61.445 0 0 0-.4-3.19l-.015-.094h5.55l.015.062c.25 1.039.461 2.116.626 3.2zm-5.632-.163h5.442a38.79 38.79 0 0 0-.594-3.032h-5.232c.152.987.281 2.007.384 3.032" transform="translate(-152.698 -15.445)" style="fill:#55b26b"/>
            <path data-name="패스 16439" d="M313.958 17.614H309l-.009-.07a65.54 65.54 0 0 0-.505-3.191l-.018-.1h4.282l.021.049a33.188 33.188 0 0 1 1.152 3.2zm-4.813-.163h4.593a32.49 32.49 0 0 0-1.093-3.032h-3.979c.173.937.334 1.957.479 3.032" transform="translate(-146.611 -6.772)" style="fill:#55b26b"/>
            <path data-name="패스 16440" d="M289.048 29.786H283.3l.014-.094c.171-1.1.374-2.172.6-3.2l.014-.064h5.4l-.009.089c-.1 1.028-.189 2.1-.264 3.193zm-5.559-.163h5.411c.072-1.035.156-2.054.251-3.032h-5.091c-.215.976-.407 2-.571 3.032" transform="translate(-134.647 -12.553)" style="fill:#55b26b"/>
            <path data-name="패스 16441" d="M316.179 29.786h-5.749l-.005-.076a113.635 113.635 0 0 0-.264-3.193l-.009-.089h5.4l.014.064c.228 1.027.431 2.1.6 3.2zm-5.6-.163h5.408a51.365 51.365 0 0 0-.571-3.032h-5.086c.095.979.179 2 .251 3.032" transform="translate(-147.41 -12.553)" style="fill:#55b26b"/>
            <path data-name="패스 16442" d="M290.964 17.614h-4.955l.032-.1a33.009 33.009 0 0 1 1.152-3.2l.021-.049h4.286l-.018.1a64.584 64.584 0 0 0-.505 3.191zm-4.735-.163h4.593c.146-1.079.307-2.1.479-3.032h-3.979a32.62 32.62 0 0 0-1.093 3.032" transform="translate(-135.935 -6.772)" style="fill:#55b26b"/>
            <path data-name="패스 16443" d="M294.682 4.6h-3.419l.079-.125c1.727-2.724 3.733-4.164 5.8-4.164v.162c-.857 0-1.7 1.406-2.445 4.067zm-3.122-.163h3c.6-2.125 1.256-3.437 1.962-3.918-1.758.256-3.461 1.6-4.961 3.918" transform="translate(-138.432 -.147)" style="fill:#55b26b"/>
            <path data-name="패스 16444" d="M308.348 4.6h-3.418l-.017-.059c-.742-2.661-1.587-4.067-2.444-4.067V.31c2.067 0 4.073 1.44 5.8 4.164zm-3.3-.163h3c-1.5-2.321-3.2-3.662-4.961-3.918.706.481 1.364 1.793 1.962 3.918" transform="translate(-143.758 -.147)" style="fill:#55b26b"/>
            <path data-name="패스 16445" d="M312.157 11.527h-4.321l-.012-.067a37.042 37.042 0 0 0-.723-3.188l-.029-.1h3.361l.024.038a22.073 22.073 0 0 1 1.652 3.207zm-4.186-.163h3.94a21.789 21.789 0 0 0-1.567-3.032h-3.058c.244.888.474 1.907.685 3.032" transform="translate(-145.946 -3.88)" style="fill:#55b26b"/>
            <path data-name="패스 16446" d="M288.509 35.873h-5.973l.008-.089c.108-1.084.245-2.161.407-3.2l.011-.069h5.738l-.006.087c-.071 1.035-.131 2.11-.178 3.194zm-5.793-.163h5.638c.045-1.028.1-2.048.169-3.032H283.1a58.04 58.04 0 0 0-.386 3.032" transform="translate(-134.285 -15.445)" style="fill:#55b26b"/>
            <path data-name="패스 16447" d="M292.5 11.527h-4.321l.048-.113a21.971 21.971 0 0 1 1.652-3.207l.024-.038h3.361l-.029.1c-.258.925-.5 2-.723 3.188zm-4.075-.163h3.94c.211-1.125.441-2.145.685-3.032h-3.058a21.789 21.789 0 0 0-1.568 3.032" transform="translate(-136.965 -3.88)" style="fill:#55b26b"/>
            <path data-name="패스 16448" d="M315.248 23.7h-5.417l-.007-.073a90.818 90.818 0 0 0-.367-3.193l-.013-.092h4.927l.018.057c.309 1.014.591 2.091.837 3.2zm-5.27-.163h5.067c-.236-1.051-.5-2.07-.795-3.032h-4.62c.128.963.246 1.982.349 3.032" transform="translate(-147.074 -9.662)" style="fill:#55b26b"/>
            <path data-name="패스 16449" d="M316.822 35.873h-5.973v-.078c-.048-1.086-.108-2.16-.179-3.194l-.006-.087h5.736l.011.069c.162 1.04.3 2.117.406 3.2zM311 35.71h5.638a54.169 54.169 0 0 0-.385-3.032h-5.422c.067.983.124 2 .169 3.032" transform="translate(-147.652 -15.445)" style="fill:#55b26b"/>
            <path data-name="패스 16450" d="M289.848 23.7h-5.417l.022-.1a42.63 42.63 0 0 1 .838-3.2l.017-.057h4.927l-.012.092a93.196 93.196 0 0 0-.368 3.193zm-5.214-.163h5.066c.1-1.051.221-2.07.349-3.032h-4.621c-.292.961-.559 1.98-.795 3.032" transform="translate(-135.185 -9.662)" style="fill:#55b26b"/>
            <path data-name="패스 16451" d="M302.866 23.7h-8.422l.009-.089a91.48 91.48 0 0 1 .368-3.2l.009-.07h7.648l.009.07c.136 1.012.26 2.088.368 3.2zm-8.242-.163h8.063c-.1-1.051-.221-2.07-.349-3.032h-7.364a88.938 88.938 0 0 0-.349 3.032" transform="translate(-139.944 -9.662)" style="fill:#55b26b"/>
            <path data-name="패스 16452" d="M302.831 17.614h-7.692l.013-.092c.154-1.142.324-2.218.506-3.2l.013-.066h6.629l.013.066c.183.984.354 2.061.506 3.2zm-7.506-.163h7.32a62.302 62.302 0 0 0-.481-3.032h-6.359a64.687 64.687 0 0 0-.48 3.032" transform="translate(-140.275 -6.772)" style="fill:#55b26b"/>
            <path data-name="패스 16453" d="M302.717 4.6h-5.26l.029-.1c.775-2.777 1.65-4.185 2.6-4.185s1.827 1.408 2.6 4.185zm-5.046-.163h4.829c-.736-2.594-1.57-3.963-2.416-3.963s-1.68 1.37-2.415 3.963" transform="translate(-141.376 -.147)" style="fill:#55b26b"/>
            <path data-name="패스 16454" d="M302.891 29.786h-8.945l.006-.087c.075-1.092.164-2.168.264-3.2l.007-.073h8.39l.007.073c.1 1.03.189 2.105.264 3.2zm-8.771-.163h8.6a111.675 111.675 0 0 0-.251-3.032h-8.094c-.095.978-.179 2-.251 3.032" transform="translate(-139.708 -12.553)" style="fill:#55b26b"/>
            <path data-name="패스 16455" d="M302.907 35.873h-9.3v-.085c.047-1.085.108-2.16.179-3.2l.005-.076h8.922l.005.076c.071 1.034.131 2.111.179 3.2zm-9.128-.163h8.958c-.046-1.031-.1-2.05-.169-3.032h-8.619c-.067.984-.124 2-.169 3.032" transform="translate(-139.547 -15.445)" style="fill:#55b26b"/>
            <path data-name="패스 16456" d="M302.784 11.527h-6.69l.018-.1c.222-1.2.466-2.273.726-3.2l.017-.059h5.169l.017.059c.259.929.5 2.007.726 3.2zm-6.494-.163h6.3a37.064 37.064 0 0 0-.688-3.032h-4.922a37.583 37.583 0 0 0-.688 3.032" transform="translate(-140.729 -3.88)" style="fill:#55b26b"/>
            <path data-name="사각형 3172" transform="translate(133.068 20.103)" style="fill:#55b26b" d="M0 0h51.286v.488H0z"/>
            <path data-name="패스 16457" d="M304.915 20.591h-51.908l.074-.3A26.8 26.8 0 0 1 262.4 5.777a26.639 26.639 0 0 1 33.13 0 26.8 26.8 0 0 1 9.315 14.512zm-51.284-.491h50.659a26.316 26.316 0 0 0-9.069-13.944 26.15 26.15 0 0 0-32.522 0 26.316 26.316 0 0 0-9.068 13.944" transform="translate(-120.25)" style="fill:#55b26b"/>
            <path data-name="사각형 3173" transform="translate(138.801 53.417)" style="fill:#fff" d="M0 0h37.707v1.636H0z"/>
            <path data-name="패스 16458" d="M302.24 103.39h-37.87v-1.8h37.87zm-37.707-.163h37.545v-1.473h-37.545z" transform="translate(-125.651 -48.255)" style="fill:#55b26b"/>
            <path data-name="사각형 3174" transform="translate(130.124 20.346)" style="fill:#fff" d="M0 0h57.228v4.891H0z"/>
            <path data-name="패스 16459" d="M305.224 43.654h-57.39V38.6h57.39zM248 43.491h57.065v-4.728H248z" transform="translate(-117.791 -18.335)" style="fill:#55b26b"/>
            <path data-name="사각형 3175" transform="translate(172.266 82.586)" style="fill:#fff" d="M0 0h44.605v5.532H0z"/>
            <path data-name="패스 16460" d="M372.915 162.846h-44.767v-5.7h44.767zm-44.6-.163h44.442v-5.37h-44.446z" transform="translate(-155.963 -74.646)" style="fill:#55b26b"/>
            <path data-name="사각형 3176" transform="translate(172.266 83.702)" style="fill:#fff" d="M0 0h44.605v4.417H0z"/>
            <path data-name="패스 16461" d="M372.915 163.856h-44.767v-4.58h44.767zm-44.6-.163h44.442v-4.254h-44.446z" transform="translate(-155.963 -75.656)" style="fill:#55b26b"/>
            <path data-name="사각형 3177" transform="translate(98.438 35.205)" style="fill:#fff" d="M0 0h118.432v9.726H0z"/>
            <path data-name="패스 16462" d="M306.043 76.79H187.448V66.9h118.595zm-118.433-.163h118.27v-9.563H187.61z" transform="translate(-89.091 -31.778)" style="fill:#55b26b"/>
            <path data-name="사각형 3178" transform="translate(101.647 44.931)" style="fill:#fff" d="M0 0h111.775v2.869H0z"/>
            <path data-name="패스 16463" d="M305.5 88.459H193.562v-3.031H305.5zM193.725 88.3h111.612v-2.709H193.725z" transform="translate(-91.997 -40.578)" style="fill:#55b26b"/>
            <path data-name="사각형 3179" transform="translate(209.973 82.586)" style="fill:#fff" d="M0 0h6.897v5.532H0z"/>
            <path data-name="패스 16464" d="M407.07 162.846h-7.06v-5.7h7.06zm-6.9-.163h6.735v-5.37h-6.735z" transform="translate(-190.118 -74.646)" style="fill:#55b26b"/>
            <path data-name="사각형 3180" transform="translate(191.12 82.586)" style="fill:#fff" d="M0 0h6.897v5.532H0z"/>
            <path data-name="패스 16465" d="M371.139 162.846h-7.06v-5.7h7.06zm-6.9-.163h6.735v-5.37h-6.735z" transform="translate(-173.041 -74.646)" style="fill:#55b26b"/>
            <path data-name="사각형 3181" transform="translate(172.266 82.586)" style="fill:#fff" d="M0 0h6.897v5.532H0z"/>
            <path data-name="패스 16466" d="M335.208 162.846h-7.06v-5.7h7.06zm-6.9-.163h6.735v-5.37h-6.735z" transform="translate(-155.963 -74.646)" style="fill:#55b26b"/>
            <path data-name="사각형 3182" transform="translate(203.486 53.45)" style="fill:#fff" d="M0 0h1.635v29.136H0z"/>
            <path data-name="패스 16467" d="M389.445 130.953h-1.8v-29.3h1.8zm-1.635-.163h1.472v-28.972h-1.472z" transform="translate(-184.242 -48.286)" style="fill:#55b26b"/>
            <path data-name="사각형 3183" transform="translate(184.015 53.45)" style="fill:#fff" d="M0 0h1.635v29.136H0z"/>
            <path data-name="패스 16468" d="M352.338 130.953h-1.8v-29.3h1.8zm-1.636-.163h1.472v-28.972H350.7z" transform="translate(-166.606 -48.286)" style="fill:#55b26b"/>
            <path data-name="사각형 3184" transform="translate(175.715 53.417)" style="fill:#fff" d="M0 0h37.707v1.636H0z"/>
            <path data-name="패스 16469" d="M372.59 103.39h-37.87v-1.8h37.87zm-37.707-.163h37.545v-1.473h-37.545z" transform="translate(-159.087 -48.255)" style="fill:#55b26b"/>
            <path data-name="사각형 3185" transform="translate(211.531 48.511)" style="fill:#fff" d="M0 0h3.782v33.498H0z"/>
            <path data-name="패스 16470" d="M406.923 125.908h-3.944V92.247h3.944zm-3.782-.163h3.619V92.41h-3.619z" transform="translate(-191.529 -43.817)" style="fill:#55b26b"/>
            <path data-name="사각형 3186" transform="translate(210.914 45.87)" style="fill:#fff" d="M0 0h5.016v2.807H0z"/>
            <path data-name="패스 16471" d="M406.981 90.186H401.8v-2.97h5.178zm-5.016-.163h4.853v-2.644h-4.853z" transform="translate(-190.97 -41.427)" style="fill:#55b26b"/>
            <path data-name="사각형 3187" transform="translate(210.914 81.457)" style="fill:#fff" d="M0 0h5.016v1.129H0z"/>
            <path data-name="패스 16472" d="M406.981 156.292H401.8V155h5.178zm-5.016-.163h4.853v-.966h-4.853z" transform="translate(-190.97 -73.625)" style="fill:#55b26b"/>
            <path data-name="패스 16473" d="M400.622 85.583v1.337a4.32 4.32 0 0 1 3.209 1.125 1.122 1.122 0 0 1 2.085 0 1.124 1.124 0 0 0 1.124-1.125v-1.337z" transform="translate(-190.409 -40.652)" style="fill:#fff"/>
            <path data-name="패스 16474" d="M405.843 88.051a1.2 1.2 0 0 0-2.085 0 1.2 1.2 0 0 0-2.085 0 1.206 1.206 0 0 1-1.2-1.205v-1.419h6.579v1.419a1.206 1.206 0 0 1-1.2 1.205m-1.052-1.005.076.188a1.042 1.042 0 0 0 2.009-.388V85.59h-6.254v1.256a1.042 1.042 0 0 0 2.009.388l.076-.188.076.188a1.041 1.041 0 0 0 1.934 0z" transform="translate(-190.336 -40.578)" style="fill:#55b26b"/>
            <path data-name="사각형 3188" transform="translate(192.678 48.511)" style="fill:#fff" d="M0 0h3.782v33.498H0z"/>
            <path data-name="패스 16475" d="M370.992 125.908h-3.944V92.247h3.944zm-3.782-.163h3.619V92.41h-3.619z" transform="translate(-174.452 -43.817)" style="fill:#55b26b"/>
            <path data-name="사각형 3189" transform="translate(192.06 45.87)" style="fill:#fff" d="M0 0h5.016v2.807H0z"/>
            <path data-name="패스 16476" d="M371.05 90.186h-5.178v-2.97h5.178zm-5.016-.163h4.853v-2.644h-4.853z" transform="translate(-173.893 -41.427)" style="fill:#55b26b"/>
            <path data-name="사각형 3190" transform="translate(192.06 81.457)" style="fill:#fff" d="M0 0h5.016v1.129H0z"/>
            <path data-name="패스 16477" d="M371.05 156.292h-5.178V155h5.178zm-5.016-.163h4.853v-.966h-4.853z" transform="translate(-173.893 -73.625)" style="fill:#55b26b"/>
            <path data-name="패스 16478" d="M364.691 85.583v1.337a4.32 4.32 0 0 1 3.209 1.125 1.122 1.122 0 0 1 2.085 0 1.124 1.124 0 0 0 1.124-1.125v-1.337z" transform="translate(-173.332 -40.652)" style="fill:#fff"/>
            <path data-name="패스 16479" d="M369.911 88.051a1.2 1.2 0 0 0-2.085 0 1.2 1.2 0 0 0-2.085 0 1.207 1.207 0 0 1-1.205-1.205v-1.419h6.58v1.419a1.206 1.206 0 0 1-1.2 1.205m-1.043-1.005.076.188a1.042 1.042 0 0 0 2.009-.388V85.59H364.7v1.256a1.042 1.042 0 0 0 2.009.388l.076-.188.076.188a1.041 1.041 0 0 0 1.934 0z" transform="translate(-173.258 -40.578)" style="fill:#55b26b"/>
            <path data-name="사각형 3191" transform="translate(173.824 48.511)" style="fill:#fff" d="M0 0h3.782v33.498H0z"/>
            <path data-name="패스 16480" d="M335.061 125.908h-3.944V92.247h3.944zm-3.782-.163h3.621V92.41h-3.619z" transform="translate(-157.374 -43.817)" style="fill:#55b26b"/>
            <path data-name="사각형 3192" transform="translate(173.207 45.87)" style="fill:#fff" d="M0 0h5.016v2.807H0z"/>
            <path data-name="패스 16481" d="M335.119 90.186h-5.178v-2.97h5.178zm-5.016-.163h4.853v-2.644H330.1z" transform="translate(-156.815 -41.427)" style="fill:#55b26b"/>
            <path data-name="사각형 3193" transform="translate(173.207 81.457)" style="fill:#fff" d="M0 0h5.016v1.129H0z"/>
            <path data-name="패스 16482" d="M335.119 156.292h-5.178V155h5.178zm-5.016-.163h4.853v-.966H330.1z" transform="translate(-156.815 -73.625)" style="fill:#55b26b"/>
            <path data-name="패스 16483" d="M328.76 85.583v1.337a4.32 4.32 0 0 1 3.209 1.125 1.122 1.122 0 0 1 2.085 0 1.124 1.124 0 0 0 1.124-1.125v-1.337z" transform="translate(-156.254 -40.652)" style="fill:#fff"/>
            <path data-name="패스 16484" d="M333.98 88.051a1.2 1.2 0 0 0-2.085 0 1.2 1.2 0 0 0-2.085 0 1.207 1.207 0 0 1-1.205-1.205v-1.419h6.58v1.419a1.206 1.206 0 0 1-1.2 1.205m-1.043-1.005.076.188a1.042 1.042 0 0 0 2.009-.388V85.59h-6.254v1.256a1.042 1.042 0 0 0 2.009.388l.076-.188.076.188a1.041 1.041 0 0 0 1.934 0z" transform="translate(-156.18 -40.578)" style="fill:#55b26b"/>
            <path data-name="사각형 3194" transform="translate(117.052 82.586)" style="fill:#fff" d="M0 0h6.897v5.532H0z"/>
            <path data-name="패스 16485" d="M229.981 162.846h-7.06v-5.7h7.06zm-6.9-.163h6.735v-5.37h-6.735z" transform="translate(-105.951 -74.646)" style="fill:#55b26b"/>
            <path data-name="사각형 3195" transform="translate(98.198 82.586)" style="fill:#fff" d="M0 0h6.897v5.532H0z"/>
            <path data-name="패스 16486" d="M194.05 162.846h-7.06v-5.7h7.06zm-6.9-.163h6.735v-5.37h-6.735z" transform="translate(-88.873 -74.646)" style="fill:#55b26b"/>
            <path data-name="사각형 3196" transform="translate(129.418 53.45)" style="fill:#fff" d="M0 0h1.635v29.136H0z"/>
            <path data-name="패스 16487" d="M248.287 130.953h-1.8v-29.3h1.8zm-1.635-.163h1.472v-28.972h-1.472z" transform="translate(-117.152 -48.286)" style="fill:#55b26b"/>
            <path data-name="사각형 3197" transform="translate(101.647 53.417)" style="fill:#fff" d="M0 0h37.707v1.636H0z"/>
            <path data-name="패스 16488" d="M231.432 103.39h-37.87v-1.8h37.87zm-37.707-.163h37.545v-1.473h-37.545z" transform="translate(-91.997 -48.255)" style="fill:#55b26b"/>
            <path data-name="사각형 3198" transform="translate(137.463 48.511)" style="fill:#fff" d="M0 0h3.782v33.498H0z"/>
            <path data-name="패스 16489" d="M265.765 125.908h-3.944V92.247h3.944zm-3.782-.163h3.617V92.41h-3.619z" transform="translate(-124.439 -43.817)" style="fill:#55b26b"/>
            <path data-name="사각형 3199" transform="translate(136.846 45.87)" style="fill:#fff" d="M0 0h5.016v2.807H0z"/>
            <path data-name="패스 16490" d="M265.823 90.186h-5.178v-2.97h5.178zm-5.016-.163h4.853v-2.644h-4.853z" transform="translate(-123.88 -41.427)" style="fill:#55b26b"/>
            <path data-name="사각형 3200" transform="translate(136.846 81.457)" style="fill:#fff" d="M0 0h5.016v1.129H0z"/>
            <path data-name="패스 16491" d="M265.823 156.292h-5.178V155h5.178zm-5.016-.163h4.853v-.966h-4.853z" transform="translate(-123.88 -73.625)" style="fill:#55b26b"/>
            <path data-name="패스 16492" d="M259.465 85.583v1.337a4.32 4.32 0 0 1 3.209 1.125 1.122 1.122 0 0 1 2.085 0 1.124 1.124 0 0 0 1.124-1.125v-1.337z" transform="translate(-123.319 -40.652)" style="fill:#fff"/>
            <path data-name="패스 16493" d="M264.685 88.051a1.2 1.2 0 0 0-2.085 0 1.2 1.2 0 0 0-2.085 0 1.206 1.206 0 0 1-1.2-1.205v-1.419h6.579v1.419a1.206 1.206 0 0 1-1.2 1.205m-1.043-1.005.076.188a1.042 1.042 0 0 0 2.009-.388V85.59h-6.254v1.256a1.042 1.042 0 0 0 2.009.388l.076-.188.076.188a1.041 1.041 0 0 0 1.934 0z" transform="translate(-123.246 -40.578)" style="fill:#55b26b"/>
            <path data-name="사각형 3201" transform="translate(118.61 48.511)" style="fill:#fff" d="M0 0h3.782v33.498H0z"/>
            <path data-name="패스 16494" d="M229.834 125.908h-3.944V92.247h3.944zm-3.782-.163h3.619V92.41h-3.619z" transform="translate(-107.362 -43.817)" style="fill:#55b26b"/>
            <path data-name="사각형 3202" transform="translate(117.993 45.87)" style="fill:#fff" d="M0 0h5.016v2.807H0z"/>
            <path data-name="패스 16495" d="M229.892 90.186h-5.178v-2.97h5.178zm-5.016-.163h4.853v-2.644h-4.853z" transform="translate(-106.803 -41.427)" style="fill:#55b26b"/>
            <path data-name="사각형 3203" transform="translate(117.993 81.457)" style="fill:#fff" d="M0 0h5.016v1.129H0z"/>
            <path data-name="패스 16496" d="M229.892 156.292h-5.178V155h5.178zm-5.016-.163h4.853v-.966h-4.853z" transform="translate(-106.803 -73.625)" style="fill:#55b26b"/>
            <path data-name="패스 16497" d="M223.533 85.583v1.337a4.32 4.32 0 0 1 3.209 1.125 1.122 1.122 0 0 1 2.085 0 1.124 1.124 0 0 0 1.124-1.125v-1.337z" transform="translate(-106.241 -40.652)" style="fill:#fff"/>
            <path data-name="패스 16498" d="M228.754 88.051a1.2 1.2 0 0 0-2.085 0 1.2 1.2 0 0 0-2.085 0 1.206 1.206 0 0 1-1.2-1.205v-1.419h6.579v1.419a1.206 1.206 0 0 1-1.2 1.205m-1.043-1.005.076.188a1.042 1.042 0 0 0 2.009-.388V85.59h-6.254v1.256a1.042 1.042 0 0 0 2.009.388l.076-.188.076.188a1.041 1.041 0 0 0 1.934 0z" transform="translate(-106.168 -40.578)" style="fill:#55b26b"/>
            <path data-name="사각형 3204" transform="translate(99.756 48.511)" style="fill:#fff" d="M0 0h3.782v33.498H0z"/>
            <path data-name="패스 16499" d="M193.9 125.908h-3.944V92.247h3.944zm-3.782-.163h3.619V92.41h-3.619z" transform="translate(-90.284 -43.817)" style="fill:#55b26b"/>
            <path data-name="사각형 3205" transform="translate(99.139 45.87)" style="fill:#fff" d="M0 0h5.016v2.807H0z"/>
            <path data-name="패스 16500" d="M193.961 90.186h-5.178v-2.97h5.178zm-5.016-.163h4.855v-2.644h-4.853z" transform="translate(-89.725 -41.427)" style="fill:#55b26b"/>
            <path data-name="사각형 3206" transform="translate(99.139 81.457)" style="fill:#fff" d="M0 0h5.016v1.129H0z"/>
            <path data-name="패스 16501" d="M193.961 156.292h-5.178V155h5.178zm-5.016-.163h4.855v-.966h-4.853z" transform="translate(-89.725 -73.625)" style="fill:#55b26b"/>
            <path data-name="패스 16502" d="M187.6 85.583v1.337a1.123 1.123 0 0 0 2.166.418 1.122 1.122 0 0 0 2.085 0 1.123 1.123 0 0 0 2.167-.418v-1.337z" transform="translate(-89.164 -40.652)" style="fill:#fff"/>
            <path data-name="패스 16503" d="M192.823 88.051a1.2 1.2 0 0 1-1.043-.6 1.2 1.2 0 0 1-2.085 0 1.2 1.2 0 0 1-2.247-.6v-1.424h6.579v1.419a1.206 1.206 0 0 1-1.2 1.205m-1.043-1.005.076.188a1.042 1.042 0 0 0 2.009-.388V85.59h-6.254v1.256a1.042 1.042 0 0 0 2.009.388l.076-.188.076.188a1.041 1.041 0 0 0 1.934 0z" transform="translate(-89.091 -40.578)" style="fill:#55b26b"/>
            <path data-name="사각형 3207" transform="translate(97.471 37.798)" style="fill:#fff" d="M0 0h120.059v3.333H0z"/>
            <path data-name="패스 16504" d="M305.826 75.336H185.6v-3.5h120.226zm-120.059-.163h119.9V72h-119.9z" transform="translate(-88.214 -34.124)" style="fill:#55b26b"/>
            <path data-name="사각형 3208" transform="translate(130.124 20.347)" style="fill:#fff" d="M0 0h57.228v1.384H0z"/>
            <path data-name="패스 16505" d="M305.224 40.148h-57.39V38.6h57.39zM248 39.985h57.065v-1.221H248z" transform="translate(-117.791 -18.335)" style="fill:#55b26b"/>
            <path data-name="사각형 3209" transform="translate(182.026 25.238)" style="fill:#fff" d="M0 0h3.116v9.967H0z"/>
            <path data-name="패스 16506" d="M350.027 58.046h-3.279V47.917h3.279zm-3.116-.163h2.954v-9.8h-2.954z" transform="translate(-164.804 -22.76)" style="fill:#55b26b"/>
            <path data-name="사각형 3210" transform="translate(182.574 26.255)" style="fill:#fff" d="M0 0h2.02v8.352H0z"/>
            <path data-name="패스 16507" d="M349.975 58.368h-2.182v-8.515h2.182zm-2.02-.163h1.857v-8.19h-1.857z" transform="translate(-165.3 -23.68)" style="fill:#55b26b"/>
            <path data-name="사각형 3211" transform="translate(132.334 25.238)" style="fill:#fff" d="M0 0h3.116v9.967H0z"/>
            <path data-name="패스 16508" d="M255.324 58.046h-3.279V47.917h3.279zm-3.116-.163h2.954v-9.8h-2.954z" transform="translate(-119.793 -22.76)" style="fill:#55b26b"/>
            <path data-name="사각형 3212" transform="translate(132.882 26.255)" style="fill:#fff" d="M0 0h2.02v8.352H0z"/>
            <path data-name="패스 16509" d="M255.272 58.368h-2.182v-8.515h2.182zm-2.02-.163h1.857v-8.19h-1.857z" transform="translate(-120.289 -23.68)" style="fill:#55b26b"/>
            <path data-name="사각형 3213" transform="translate(144.757 25.238)" style="fill:#fff" d="M0 0h3.116v9.967H0z"/>
            <path data-name="패스 16510" d="M279 58.046h-3.279V47.917H279zm-3.116-.163h2.954v-9.8h-2.954z" transform="translate(-131.046 -22.76)" style="fill:#55b26b"/>
            <path data-name="사각형 3214" transform="translate(145.305 26.255)" style="fill:#fff" d="M0 0h2.02v8.352H0z"/>
            <path data-name="패스 16511" d="M278.948 58.368h-2.182v-8.515h2.182zm-2.02-.163h1.857v-8.19h-1.857z" transform="translate(-131.542 -23.68)" style="fill:#55b26b"/>
            <path data-name="사각형 3215" transform="translate(157.179 25.238)" style="fill:#fff" d="M0 0h3.116v9.967H0z"/>
            <path data-name="패스 16512" d="M302.675 58.046H299.4V47.917h3.279zm-3.116-.163h2.954v-9.8h-2.954z" transform="translate(-142.298 -22.76)" style="fill:#55b26b"/>
            <path data-name="사각형 3216" transform="translate(157.728 26.255)" style="fill:#fff" d="M0 0h2.02v8.352H0z"/>
            <path data-name="패스 16513" d="M302.624 58.368h-2.182v-8.515h2.182zm-2.02-.163h1.857v-8.19H300.6z" transform="translate(-142.795 -23.68)" style="fill:#55b26b"/>
            <path data-name="사각형 3217" transform="translate(169.603 25.238)" style="fill:#fff" d="M0 0h3.116v9.967H0z"/>
            <path data-name="패스 16514" d="M326.351 58.046h-3.279V47.917h3.279zm-3.116-.163h2.954v-9.8h-2.954z" transform="translate(-153.551 -22.76)" style="fill:#55b26b"/>
            <path data-name="사각형 3218" transform="translate(170.151 26.255)" style="fill:#fff" d="M0 0h2.02v8.352H0z"/>
            <path data-name="패스 16515" d="M326.3 58.368h-2.182v-8.515h2.182zm-2.02-.163h1.857v-8.19h-1.857z" transform="translate(-154.047 -23.68)" style="fill:#55b26b"/>
            <path data-name="사각형 3219" transform="translate(139.77 28.752)" style="fill:#55b26b" d="M0 0h.163v6.452H0z"/>
            <path data-name="패스 16516" d="M266.852 58.1h-.325v-6.448a3.114 3.114 0 1 0-6.228 0V58.1h-.325v-6.448a3.44 3.44 0 1 1 6.879 0z" transform="translate(-123.561 -22.9)" style="fill:#55b26b"/>
            <path data-name="사각형 3220" transform="translate(136.575 32.081)" style="fill:#55b26b" d="M0 0h6.554v.163H0z"/>
            <path data-name="사각형 3221" transform="translate(152.543 28.752)" style="fill:#55b26b" d="M0 0h.163v6.452H0z"/>
            <path data-name="패스 16517" d="M291.194 58.1h-.325v-6.448a3.114 3.114 0 1 0-6.228 0V58.1h-.325v-6.448a3.44 3.44 0 1 1 6.879 0z" transform="translate(-135.13 -22.9)" style="fill:#55b26b"/>
            <path data-name="사각형 3222" transform="translate(149.347 32.081)" style="fill:#55b26b" d="M0 0h6.554v.163H0z"/>
            <path data-name="사각형 3223" transform="translate(164.772 28.752)" style="fill:#55b26b" d="M0 0h.163v6.452H0z"/>
            <path data-name="패스 16518" d="M314.5 58.1h-.325v-6.448a3.114 3.114 0 1 0-6.228 0V58.1h-.325v-6.448a3.44 3.44 0 1 1 6.879 0z" transform="translate(-146.207 -22.9)" style="fill:#55b26b"/>
            <path data-name="사각형 3224" transform="translate(161.577 32.081)" style="fill:#55b26b" d="M0 0h6.554v.163H0z"/>
            <path data-name="사각형 3225" transform="translate(177.524 28.752)" style="fill:#55b26b" d="M0 0h.163v6.452H0z"/>
            <path data-name="패스 16519" d="M338.8 58.1h-.325v-6.448a3.114 3.114 0 1 0-6.228 0V58.1h-.325v-6.448a3.44 3.44 0 1 1 6.879 0z" transform="translate(-157.758 -22.9)" style="fill:#55b26b"/>
            <path data-name="사각형 3226" transform="translate(174.329 32.081)" style="fill:#55b26b" d="M0 0h6.554v.163H0z"/>
            <path data-name="사각형 3227" transform="translate(98.198 82.586)" style="fill:#fff" d="M0 0h44.605v5.532H0z"/>
            <path data-name="패스 16520" d="M231.757 162.846H186.99v-5.7h44.767zm-44.6-.163h44.442v-5.37h-44.446z" transform="translate(-88.873 -74.646)" style="fill:#55b26b"/>
            <path data-name="사각형 3228" transform="translate(98.198 83.702)" style="fill:#fff" d="M0 0h44.605v4.417H0z"/>
            <path data-name="패스 16521" d="M231.757 163.856H186.99v-4.58h44.767zm-44.6-.163h44.442v-4.254h-44.446z" transform="translate(-88.873 -75.656)" style="fill:#55b26b"/>
            <path data-name="사각형 3229" transform="translate(135.905 82.586)" style="fill:#fff" d="M0 0h6.897v5.532H0z"/>
            <path data-name="패스 16522" d="M265.912 162.846h-7.06v-5.7h7.06zm-6.9-.163h6.735v-5.37h-6.735z" transform="translate(-123.028 -74.646)" style="fill:#55b26b"/>
            <path data-name="패스 16523" d="M284.454 136.788h-14.132V106h14.132zm1.139-31.926h-16.41v33.066h16.409z" transform="translate(-127.938 -49.809)" style="fill:#55b26b"/>
            <path data-name="사각형 3230" transform="translate(141.245 77.653)" style="fill:#55b26b" d="M0 0h16.409v10.465H0z"/>
            <path data-name="패스 16524" d="M285.6 158.383h-16.572v-10.629H285.6zm-16.409-.163h16.247v-10.3h-16.247z" transform="translate(-127.865 -70.183)" style="fill:#55b26b"/>
            <path data-name="사각형 3231" transform="translate(147.09 55.625)" style="fill:#55b26b" d="M0 0h.325v28.664H0z"/>
            <path data-name="사각형 3232" transform="translate(151.838 55.625)" style="fill:#55b26b" d="M0 0h.325v28.664H0z"/>
            <path data-name="사각형 3233" transform="translate(142.12 59.893)" style="fill:#55b26b" d="M0 0h15.06v.326H0z"/>
            <path data-name="사각형 3234" transform="translate(142.12 64.75)" style="fill:#55b26b" d="M0 0h15.06v.326H0z"/>
            <path data-name="사각형 3235" transform="translate(142.12 69.606)" style="fill:#55b26b" d="M0 0h15.06v.326H0z"/>
            <path data-name="사각형 3236" transform="translate(142.12 74.463)" style="fill:#55b26b" d="M0 0h15.06v.326H0z"/>
            <path data-name="사각형 3237" transform="translate(142.12 78.525)" style="fill:#fff" d="M0 0h15.06v.163H0z"/>
            <path data-name="사각형 3238" transform="translate(142.12 86.76)" style="fill:#fff" d="M0 0h15.06v.163H0z"/>
            <path data-name="패스 16525" d="M278.085 157.883h-7.391v-6.6h7.391zm-7.229-.163h7.066v-6.277h-7.066z" transform="translate(-128.656 -71.858)" style="fill:#fff"/>
            <path data-name="패스 16526" d="M292.909 157.883h-7.391v-6.6h7.391zm-7.229-.163h7.066v-6.277h-7.066z" transform="translate(-135.702 -71.858)" style="fill:#fff"/>
            <path data-name="패스 16527" d="M315.61 136.788h-14.132V106h14.132zm1.139-31.926h-16.41v33.066h16.409z" transform="translate(-142.746 -49.809)" style="fill:#55b26b"/>
            <path data-name="사각형 3239" transform="translate(157.593 77.653)" style="fill:#55b26b" d="M0 0h16.409v10.465H0z"/>
            <path data-name="패스 16528" d="M316.756 158.383h-16.572v-10.629h16.572zm-16.409-.163h16.247v-10.3h-16.247z" transform="translate(-142.672 -70.183)" style="fill:#55b26b"/>
            <path data-name="사각형 3240" transform="translate(163.438 55.625)" style="fill:#55b26b" d="M0 0h.325v28.664H0z"/>
            <path data-name="사각형 3241" transform="translate(168.186 55.625)" style="fill:#55b26b" d="M0 0h.325v28.664H0z"/>
            <path data-name="사각형 3242" transform="translate(158.468 59.893)" style="fill:#55b26b" d="M0 0h15.06v.326H0z"/>
            <path data-name="사각형 3243" transform="translate(158.468 64.75)" style="fill:#55b26b" d="M0 0h15.06v.326H0z"/>
            <path data-name="사각형 3244" transform="translate(158.468 69.606)" style="fill:#55b26b" d="M0 0h15.06v.326H0z"/>
            <path data-name="사각형 3245" transform="translate(158.468 74.463)" style="fill:#55b26b" d="M0 0h15.06v.326H0z"/>
            <path data-name="사각형 3246" transform="translate(158.468 78.525)" style="fill:#fff" d="M0 0h15.06v.163H0z"/>
            <path data-name="사각형 3247" transform="translate(158.468 86.76)" style="fill:#fff" d="M0 0h15.06v.163H0z"/>
            <path data-name="패스 16529" d="M309.242 157.883h-7.391v-6.6h7.391zm-7.228-.163h7.065v-6.277h-7.065z" transform="translate(-143.465 -71.858)" style="fill:#fff"/>
            <path data-name="패스 16530" d="M324.066 157.883h-7.391v-6.6h7.391zm-7.228-.163h7.062v-6.277h-7.065z" transform="translate(-150.51 -71.858)" style="fill:#fff"/>
            <path data-name="사각형 3248" transform="translate(212.427 49.899)" style="fill:#fff" d="M0 0h1.819v30.751H0z"/>
            <path data-name="패스 16531" d="M406.669 125.8h-1.982V94.891h1.982zm-1.819-.163h1.656V95.054h-1.656z" transform="translate(-192.341 -45.073)" style="fill:#55b26b"/>
            <path data-name="사각형 3249" transform="translate(193.659 49.899)" style="fill:#fff" d="M0 0h1.819v30.751H0z"/>
            <path data-name="패스 16532" d="M370.9 125.8h-1.982V94.891h1.982zm-1.819-.163h1.657V95.054h-1.657z" transform="translate(-175.341 -45.073)" style="fill:#55b26b"/>
            <path data-name="사각형 3250" transform="translate(174.805 49.899)" style="fill:#fff" d="M0 0h1.819v30.751H0z"/>
            <path data-name="패스 16533" d="M334.969 125.8h-1.982V94.891h1.982zm-1.82-.163h1.657V95.054h-1.657z" transform="translate(-158.263 -45.073)" style="fill:#55b26b"/>
            <path data-name="사각형 3251" transform="translate(138.262 49.899)" style="fill:#fff" d="M0 0h1.819v30.751H0z"/>
            <path data-name="패스 16534" d="M265.324 125.8h-1.982V94.891h1.982zm-1.82-.163h1.657V95.054H263.5z" transform="translate(-125.162 -45.073)" style="fill:#55b26b"/>
            <path data-name="사각형 3252" transform="translate(119.568 49.899)" style="fill:#fff" d="M0 0h1.819v30.751H0z"/>
            <path data-name="패스 16535" d="M229.7 125.8h-1.982V94.891h1.982zm-1.819-.163h1.657V95.054h-1.657z" transform="translate(-108.23 -45.073)" style="fill:#55b26b"/>
            <path data-name="사각형 3253" transform="translate(100.737 49.899)" style="fill:#fff" d="M0 0h1.819v30.751H0z"/>
            <path data-name="패스 16536" d="M193.811 125.8h-1.982V94.891h1.982zm-1.819-.163h1.657V95.054h-1.657z" transform="translate(-91.173 -45.073)" style="fill:#55b26b"/>
        </g>
    </g>
</svg>
