<svg xmlns="http://www.w3.org/2000/svg" width="80" height="80" viewBox="0 0 80 80">
    <g data-name="그룹 2685">
        <path data-name="사각형 3271" style="fill:none" d="M0 0h80v80H0z"/>
        <g data-name="그룹 2682">
            <path data-name="사각형 3261" d="M15.022 0a15.022 15.022 0 0 1 15.021 15.022V45.9H0V15.022A15.022 15.022 0 0 1 15.022 0z" transform="translate(14.113 14.454)" style="fill:#90d4f6"/>
            <path data-name="패스 16607" d="M1833.792 4228.865h.229a.492.492 0 0 1-.018-.12.511.511 0 0 1 .521-.5.541.541 0 0 1 .118.014v-.034a1.169 1.169 0 0 1 1.192-1.145 1.188 1.188 0 0 1 1.142.816.861.861 0 0 1 .584.237.8.8 0 0 1 .234.732h.218a.251.251 0 1 1 0 .5h-4.219a.251.251 0 1 1 0-.5z" transform="translate(-1798.22 -4197.566)" style="fill:#fff"/>
            <path data-name="패스 16608" d="M1838.892 4218.175a1.306 1.306 0 0 0-1.131.653h-39.687a1.307 1.307 0 1 0 0 1.308h39.687a1.307 1.307 0 1 0 1.131-1.961z" transform="translate(-1788.783 -4195.349)" style="fill:#8c6239"/>
            <path data-name="패스 16609" d="M1838.892 4217.5a1.3 1.3 0 0 0-1.131.654h-39.687a1.307 1.307 0 1 0 0 1.307h39.687a1.307 1.307 0 1 0 1.131-1.961z" transform="translate(-1788.783 -4195.181)" style="fill:#c69c6d"/>
            <path data-name="사각형 3262" transform="translate(14.113 47.941)" style="fill:#56b36b" d="M0 0h30.281v12.413H0z"/>
            <path data-name="패스 16610" d="m1821.122 4248.138 1.343-4.121 1.343 4.121z" transform="translate(-1795.13 -4201.785)" style="fill:#56b36b"/>
            <path data-name="사각형 3263" transform="translate(27.167 45.154)" style="fill:#56b36b" d="M0 0h.336v3.061H0z"/>
            <path data-name="패스 16611" d="m1819.11 4248.138 1.343-4.121 1.343 4.121z" transform="translate(-1794.629 -4201.785)" style="fill:#56b36b"/>
            <path data-name="사각형 3264" transform="translate(25.656 45.154)" style="fill:#56b36b" d="M0 0h.336v3.061H0z"/>
            <path data-name="패스 16612" d="m1822.965 4248.138 1.343-4.121 1.343 4.121z" transform="translate(-1795.589 -4201.785)" style="fill:#56b36b"/>
            <path data-name="사각형 3265" transform="translate(28.551 45.154)" style="fill:#56b36b" d="M0 0h.336v3.061H0z"/>
            <path data-name="패스 16613" d="m1836.083 4248.138 1.343-4.121 1.343 4.121z" transform="translate(-1798.856 -4201.785)" style="fill:#56b36b"/>
            <path data-name="사각형 3266" transform="translate(38.402 45.154)" style="fill:#56b36b" d="M0 0h.336v3.061H0z"/>
            <path data-name="패스 16614" d="m1834.071 4248.138 1.343-4.121 1.343 4.121z" transform="translate(-1798.355 -4201.785)" style="fill:#56b36b"/>
            <path data-name="사각형 3267" transform="translate(36.891 45.154)" style="fill:#56b36b" d="M0 0h.336v3.061H0z"/>
            <path data-name="패스 16615" d="m1837.926 4248.138 1.343-4.121 1.343 4.121z" transform="translate(-1799.315 -4201.785)" style="fill:#56b36b"/>
            <path data-name="사각형 3268" transform="translate(39.786 45.154)" style="fill:#56b36b" d="M0 0h.336v3.061H0z"/>
            <g data-name="그룹 2680">
                <path data-name="패스 16616" d="M1837.787 4218.175h2.889s9.427 28.968 25.015 36.45c0 0-2.411 4.913-6.673 5.392 0-.001-12.872-11.866-21.231-41.842z" transform="translate(-1799.281 -4195.349)" style="fill:#b8f7ff"/>
                <path data-name="패스 16617" d="M1880.83 4263.107s2.9-1.832 1.095-3.067-3.636.836-3.636.836 1.211.993 2.541 2.231z" transform="translate(-1809.368 -4205.677)" style="fill:#90d4f6"/>
                <path data-name="패스 16618" d="M1837.787 4218.175h2.889s4.365 29.84 19.954 37.322c0 0-3.729-2.032-8.39 4.519 0 0-6.094-11.865-14.453-41.841z" transform="translate(-1799.281 -4195.349)" style="fill:#e9feff"/>
                <path data-name="패스 16619" d="M1864.817 4272.2s4.265-2.7 1.611-4.519-5.356 1.232-5.356 1.232a24.153 24.153 0 0 0 3.745 3.287z" transform="translate(-1805.08 -4207.534)" style="fill:#90d4f6"/>
                <path data-name="패스 16620" d="M1840.728 4218.175h.68s13.983 27.068 30.717 31.274c0 0-3.537-.131-5.7 5.176-.002 0-17.337-6.474-25.697-36.45z" transform="translate(-1800.013 -4195.349)" style="fill:#e9feff"/>
                <path data-name="패스 16621" d="M1840 4218.175h-2.208s2.188 29.819 7.882 42.169c0 0 1.406-1.707 3.966 0a1.956 1.956 0 0 0 2.605-.328s-7.232-16.642-12.245-41.841z" transform="translate(-1799.281 -4195.349)" style="fill:#b8f7ff"/>
                <path data-name="패스 16622" d="M1836.688 4218.175h1.982s-.55 17.017 6.725 42.169c0 0-1.4 1.434-3.962-.328-.001 0-4.745-16.39-4.745-41.841z" transform="translate(-1799.007 -4195.349)" style="fill:#e9feff"/>
            </g>
            <g data-name="그룹 2681">
                <path data-name="패스 16623" d="M1802.935 4218.175h2.889s7.5 30.9 29.17 36.743c0 0-6.566 4.619-10.828 5.1 0-.002-12.872-11.867-21.231-41.843z" transform="translate(-1790.601 -4195.349)" style="fill:#e9feff"/>
                <path data-name="패스 16624" d="M1802.935 4218.175h2.889s4.365 29.84 19.954 37.322c0 0-3.729-2.032-8.39 4.519 0 0-6.094-11.865-14.453-41.841z" transform="translate(-1790.601 -4195.349)" style="fill:#b8f7ff"/>
                <path data-name="패스 16625" d="M1829.966 4272.2s4.266-2.7 1.612-4.519-5.356 1.232-5.356 1.232a24.168 24.168 0 0 0 3.744 3.287z" transform="translate(-1796.4 -4207.534)" style="fill:#90d4f6"/>
                <path data-name="패스 16626" d="M1805.144 4218.175h-2.209s2.188 29.819 7.881 42.169c0 0 1.406-1.707 3.967 0a1.955 1.955 0 0 0 2.6-.328s-7.221-16.642-12.239-41.841z" transform="translate(-1790.601 -4195.349)" style="fill:#e9feff"/>
                <path data-name="패스 16627" d="M1801.837 4218.175h1.982s-.551 17.017 6.724 42.169c0 0-1.4 1.434-3.961-.328 0 0-4.745-16.39-4.745-41.841z" transform="translate(-1790.327 -4195.349)" style="fill:#b8f7ff"/>
            </g>
            <path data-name="패스 16628" d="M1823.162 4233.369h-.229a.5.5 0 0 0 .017-.12.51.51 0 0 0-.521-.5.589.589 0 0 0-.119.014v-.035a1.169 1.169 0 0 0-1.192-1.144 1.187 1.187 0 0 0-1.142.817.86.86 0 0 0-.584.237.793.793 0 0 0-.234.731h-.219a.252.252 0 1 0 0 .5h4.22a.252.252 0 1 0 0-.5z" transform="translate(-1794.523 -4198.688)" style="fill:#fff"/>
            <path data-name="패스 16629" d="M1831.937 4236.323h-.3a.612.612 0 0 0 .023-.16.681.681 0 0 0-.694-.666.723.723 0 0 0-.157.019v-.046a1.556 1.556 0 0 0-1.587-1.522 1.579 1.579 0 0 0-1.519 1.086 1.148 1.148 0 0 0-.778.315 1.056 1.056 0 0 0-.311.973h-.29a.335.335 0 1 0 0 .669h5.615a.335.335 0 1 0 0-.669z" transform="translate(-1796.339 -4199.277)" style="fill:#fff"/>
        </g>
    </g>
</svg>
