<svg xmlns="http://www.w3.org/2000/svg" width="375" height="380" viewBox="0 0 375 380">
    <defs>
        <clipPath id="zcoy527wpa">
            <path data-name="사각형 2882" style="fill:none" d="M0 0h375v314.731H0z"/>
        </clipPath>
    </defs>
    <path data-name="사각형 2870" style="fill:none" d="M0 0h375v380H0z"/>
    <g data-name="그룹 2562">
        <g data-name="그룹 2561" style="clip-path:url(#zcoy527wpa)" transform="translate(0 32)">
            <path data-name="패스 14866" d="M230.415 240.372a42.834 42.834 0 1 1-42.834-42.834 42.833 42.833 0 0 1 42.834 42.834" style="fill:#91d09f"/>
            <path data-name="패스 14867" d="M91.56 213.222a5.976 5.976 0 0 1 2.717.654 13.014 13.014 0 0 1 20.439-4.429 11.969 11.969 0 0 1 13.335-.41 17.977 17.977 0 0 1 30.743 1.884 8.985 8.985 0 0 1 12.4 8.317h-85.65a6.016 6.016 0 0 1 6.016-6.016" style="fill:#73be84"/>
            <path data-name="패스 14868" d="M330.366 197.372a14.657 14.657 0 0 0-6.434 1.493 31.919 31.919 0 0 0-57.992-.176 14.65 14.65 0 0 0-13.864.928 22.039 22.039 0 0 0-37.689 2.308 11.017 11.017 0 0 0-15.2 10.2h145.928a14.749 14.749 0 0 0-14.749-14.749" style="fill:#73be84"/>
            <path data-name="패스 14869" d="M375 130.534H182.1a25.544 25.544 0 0 1 36.752-23 55.377 55.377 0 0 1 100.611-.305 25.42 25.42 0 0 1 24.054 1.609A38.191 38.191 0 0 1 375 92.294z" style="fill:#73be84"/>
            <path data-name="패스 14870" d="M0 72.578h252.818a33.479 33.479 0 0 0-48.167-30.142 72.577 72.577 0 0 0-131.86-.4 33.317 33.317 0 0 0-31.525 2.11A50.051 50.051 0 0 0 0 22.461z" style="fill:#73be84"/>
            <path data-name="패스 14871" d="M186.525 162.754a11.859 11.859 0 0 0-5.389 1.3 25.808 25.808 0 0 0-40.535-8.783 23.734 23.734 0 0 0-26.444-.813 35.652 35.652 0 0 0-60.971 3.735A17.82 17.82 0 0 0 28.6 174.684h169.855a11.93 11.93 0 0 0-11.93-11.93" style="fill:#73be84"/>
            <path data-name="패스 14872" d="M360.491 237.712a12.978 12.978 0 0 0-17.846.014 18.545 18.545 0 0 0-29.018-.028 18.545 18.545 0 0 0-29.007.014 12.98 12.98 0 0 0-17.847.014 18.529 18.529 0 0 0-28.4-.751 15.891 15.891 0 0 0-9.394 0 18.53 18.53 0 0 0-28.386.737 12.978 12.978 0 0 0-17.846.014 18.558 18.558 0 0 0-31.562 4.188 12.031 12.031 0 0 0-3.088 0 18.559 18.559 0 0 0-31.551-4.2 12.978 12.978 0 0 0-17.846.014 18.522 18.522 0 0 0-26.868-2.283 15.8 15.8 0 0 0-12.451 0 18.522 18.522 0 0 0-26.857 2.269 12.98 12.98 0 0 0-17.847.014 18.526 18.526 0 0 0-14.514-7.011v60.23H375v-60.23a18.529 18.529 0 0 0-14.509 7" style="fill:#418c48"/>
            <path data-name="패스 14873" d="M360.491 261.5a12.978 12.978 0 0 0-17.846.014 18.545 18.545 0 0 0-29.018-.028 18.545 18.545 0 0 0-29.007.014 12.98 12.98 0 0 0-17.847.014 18.529 18.529 0 0 0-28.4-.751 15.892 15.892 0 0 0-9.394 0 18.53 18.53 0 0 0-28.386.737 12.978 12.978 0 0 0-17.846.014 18.558 18.558 0 0 0-31.562 4.188 12.028 12.028 0 0 0-3.088 0 18.559 18.559 0 0 0-31.551-4.2 12.978 12.978 0 0 0-17.846.014 18.522 18.522 0 0 0-26.868-2.283 15.8 15.8 0 0 0-12.451 0 18.522 18.522 0 0 0-26.853 2.267 12.98 12.98 0 0 0-17.847.014A18.526 18.526 0 0 0 .163 254.5v60.23H375V254.5a18.529 18.529 0 0 0-14.509 6.995" style="fill:#56b36b"/>
            <path data-name="패스 14874" d="M12.26 314.731H3.614V284.5l4.323-6.019 4.323 6.019z" style="fill:#91d09f"/>
            <path data-name="패스 14875" d="M24.611 314.731h-8.646V284.5l4.323-6.019 4.323 6.019z" style="fill:#91d09f"/>
            <path data-name="패스 14876" d="M36.962 314.731h-8.646V284.5l4.323-6.019 4.323 6.019z" style="fill:#91d09f"/>
            <path data-name="패스 14877" d="M49.313 314.731h-8.646V284.5l4.323-6.019 4.323 6.019z" style="fill:#91d09f"/>
            <path data-name="패스 14878" d="M61.663 314.731h-8.646V284.5l4.323-6.019 4.323 6.019z" style="fill:#91d09f"/>
            <path data-name="패스 14879" d="M74.014 314.731h-8.646V284.5l4.323-6.019 4.323 6.019z" style="fill:#91d09f"/>
            <path data-name="패스 14880" d="M86.365 314.731h-8.646V284.5l4.323-6.019 4.323 6.019z" style="fill:#91d09f"/>
            <path data-name="패스 14881" d="M98.715 314.731h-8.646V284.5l4.323-6.019 4.323 6.019z" style="fill:#91d09f"/>
            <path data-name="패스 14882" d="M111.066 314.731h-8.646V284.5l4.323-6.019 4.323 6.019z" style="fill:#91d09f"/>
            <path data-name="사각형 2878" transform="translate(.163 291.792)" style="fill:#91d09f" d="M0 0h105.749v2.926H0z"/>
            <path data-name="사각형 2879" transform="translate(.163 303.438)" style="fill:#91d09f" d="M0 0h105.749v2.926H0z"/>
            <path data-name="패스 14883" d="M362.313 314.731h8.646V284.5l-4.323-6.019-4.323 6.019z" style="fill:#91d09f"/>
            <path data-name="패스 14884" d="M349.962 314.731h8.646V284.5l-4.323-6.019-4.323 6.019z" style="fill:#91d09f"/>
            <path data-name="패스 14885" d="M337.612 314.731h8.646V284.5l-4.323-6.019-4.323 6.019z" style="fill:#91d09f"/>
            <path data-name="패스 14886" d="M325.261 314.731h8.646V284.5l-4.323-6.019-4.323 6.019z" style="fill:#91d09f"/>
            <path data-name="패스 14887" d="M312.91 314.731h8.646V284.5l-4.323-6.019-4.323 6.019z" style="fill:#91d09f"/>
            <path data-name="패스 14888" d="M300.559 314.731h8.646V284.5l-4.323-6.019-4.323 6.019z" style="fill:#91d09f"/>
            <path data-name="패스 14889" d="M288.209 314.731h8.646V284.5l-4.323-6.019-4.323 6.019z" style="fill:#91d09f"/>
            <path data-name="패스 14890" d="M275.858 314.731h8.642V284.5l-4.323-6.019-4.323 6.019z" style="fill:#91d09f"/>
            <path data-name="패스 14891" d="M263.507 314.731h8.646V284.5l-4.323-6.019-4.323 6.019z" style="fill:#91d09f"/>
            <path data-name="사각형 2880" transform="translate(268.662 291.792)" style="fill:#91d09f" d="M0 0h105.749v2.926H0z"/>
            <path data-name="사각형 2881" transform="translate(268.662 303.438)" style="fill:#91d09f" d="M0 0h105.749v2.926H0z"/>
            <path data-name="패스 14892" d="M261.045 313.172h-12.639v-168.71a61.12 61.12 0 0 0-122.239 0v168.71h-12.639v-168.71a73.759 73.759 0 0 1 147.517 0z" style="stroke-miterlimit:10;stroke:#91d09f;stroke-width:3px;fill:none"/>
            <path data-name="선 171" transform="translate(113.528 291.791)" style="stroke-miterlimit:10;stroke:#91d09f;stroke-width:3px;fill:none" d="M0 0h12.639"/>
            <path data-name="선 172" transform="translate(113.528 269.495)" style="stroke-miterlimit:10;stroke:#91d09f;stroke-width:3px;fill:none" d="M0 0h12.639"/>
            <path data-name="선 173" transform="translate(113.528 247.199)" style="stroke-miterlimit:10;stroke:#91d09f;stroke-width:3px;fill:none" d="M0 0h12.639"/>
            <path data-name="선 174" transform="translate(113.528 224.902)" style="stroke-miterlimit:10;stroke:#91d09f;stroke-width:3px;fill:none" d="M0 0h12.639"/>
            <path data-name="선 175" transform="translate(113.528 202.606)" style="stroke-miterlimit:10;stroke:#91d09f;stroke-width:3px;fill:none" d="M0 0h12.639"/>
            <path data-name="선 176" transform="translate(113.528 180.31)" style="stroke-miterlimit:10;stroke:#91d09f;stroke-width:3px;fill:none" d="M0 0h12.639"/>
            <path data-name="선 177" transform="translate(113.528 158.014)" style="stroke-miterlimit:10;stroke:#91d09f;stroke-width:3px;fill:none" d="M0 0h12.639"/>
            <path data-name="선 178" transform="translate(113.528 135.717)" style="stroke-miterlimit:10;stroke:#91d09f;stroke-width:3px;fill:none" d="M0 0h12.639"/>
            <path data-name="선 179" transform="translate(248.996 291.791)" style="stroke-miterlimit:10;stroke:#91d09f;stroke-width:3px;fill:none" d="M12.639 0H0"/>
            <path data-name="선 180" transform="translate(248.996 269.495)" style="stroke-miterlimit:10;stroke:#91d09f;stroke-width:3px;fill:none" d="M12.639 0H0"/>
            <path data-name="선 181" transform="translate(248.996 247.199)" style="stroke-miterlimit:10;stroke:#91d09f;stroke-width:3px;fill:none" d="M12.639 0H0"/>
            <path data-name="선 182" transform="translate(248.996 224.902)" style="stroke-miterlimit:10;stroke:#91d09f;stroke-width:3px;fill:none" d="M12.639 0H0"/>
            <path data-name="선 183" transform="translate(248.996 202.606)" style="stroke-miterlimit:10;stroke:#91d09f;stroke-width:3px;fill:none" d="M12.639 0H0"/>
            <path data-name="선 184" transform="translate(248.996 180.31)" style="stroke-miterlimit:10;stroke:#91d09f;stroke-width:3px;fill:none" d="M12.639 0H0"/>
            <path data-name="선 185" transform="translate(248.996 158.014)" style="stroke-miterlimit:10;stroke:#91d09f;stroke-width:3px;fill:none" d="M12.639 0H0"/>
            <path data-name="선 186" transform="translate(248.996 135.717)" style="stroke-miterlimit:10;stroke:#91d09f;stroke-width:3px;fill:none" d="M12.639 0H0"/>
            <path data-name="선 187" transform="translate(187.581 70.375)" style="stroke-miterlimit:10;stroke:#91d09f;stroke-width:3px;fill:none" d="M0 0v12.639"/>
            <path data-name="선 188" transform="translate(152.905 79.094)" style="stroke-miterlimit:10;stroke:#91d09f;stroke-width:3px;fill:none" d="m0 0 6.32 10.946"/>
            <path data-name="선 189" transform="translate(127.234 103.984)" style="stroke-miterlimit:10;stroke:#91d09f;stroke-width:3px;fill:none" d="m0 0 10.946 6.32"/>
            <path data-name="선 190" transform="translate(215.938 79.094)" style="stroke-miterlimit:10;stroke:#91d09f;stroke-width:3px;fill:none" d="M6.32 0 0 10.946"/>
            <path data-name="선 191" transform="translate(236.983 103.984)" style="stroke-miterlimit:10;stroke:#91d09f;stroke-width:3px;fill:none" d="M10.946 0 0 6.32"/>
            <path data-name="패스 14893" d="M189.651 59.921c0 2.111-2.364 3.823-2.364 3.823s-2.365-1.712-2.365-3.823 2.365-3.823 2.365-3.823 2.364 1.712 2.364 3.823" style="fill:#3e9b67"/>
            <path data-name="패스 14894" d="M244.972 301.915s20.257-8.661 20.257-24.443c0-15.886-21-20.268-21-46.313 0-17.132 21-16.295 21-44.013s-19.9-25.436-21.709-42.827c-1.945-18.667 20.209-25.781 11.795-40.553-7.386-12.968-29.348 1.719-39.377-6.466s0-33.557-28.357-33.557" style="stroke:#3e9b67;stroke-width:2px;stroke-miterlimit:10;fill:none"/>
            <path data-name="패스 14895" d="M205.729 66.7c-1.494 1.493-4.375 1.031-4.375 1.031s-.463-2.882 1.03-4.375 4.375-1.031 4.375-1.031.462 2.882-1.03 4.375" style="fill:#3e9b67"/>
            <path data-name="패스 14896" d="M264.013 187.927c1.493 1.493 1.031 4.375 1.031 4.375s-2.882.462-4.375-1.031-1.031-4.375-1.031-4.375 2.882-.462 4.375 1.031" style="fill:#3e9b67"/>
            <path data-name="패스 14897" d="M253.165 220.46c1.493 1.493 1.03 4.375 1.03 4.375s-2.882.462-4.375-1.031-1.03-4.375-1.03-4.375 2.881-.462 4.375 1.031" style="fill:#3e9b67"/>
            <path data-name="패스 14898" d="M261.47 107.191c2.077.379 3.336 3.012 3.336 3.012s-2.108 2.019-4.185 1.64-3.336-3.013-3.336-3.013 2.108-2.018 4.185-1.639" style="fill:#3e9b67"/>
            <path data-name="패스 14899" d="M248.66 148.623c-1.493 1.493-4.375 1.031-4.375 1.031s-.462-2.882 1.031-4.375 4.375-1.031 4.375-1.031.462 2.882-1.031 4.375" style="fill:#3e9b67"/>
            <path data-name="패스 14900" d="M214.686 81.915c-1.493 1.493-4.375 1.031-4.375 1.031s-.462-2.882 1.031-4.375 4.375-1.031 4.375-1.031.462 2.882-1.031 4.375" style="fill:#3e9b67"/>
            <path data-name="패스 14901" d="M196.548 70.194c-1.493 1.494-4.375 1.031-4.375 1.031s-.462-2.882 1.031-4.375 4.375-1.031 4.375-1.031.462 2.882-1.031 4.375" style="fill:#3e9b67"/>
            <path data-name="패스 14902" d="M225.823 98.114c-1.493 1.493-4.375 1.031-4.375 1.031s-.462-2.882 1.031-4.375 4.375-1.031 4.375-1.031.462 2.882-1.031 4.375" style="fill:#3e9b67"/>
            <path data-name="패스 14903" d="M258.472 100.072c-1.493 1.493-4.375 1.031-4.375 1.031s-.462-2.882 1.031-4.375S259.5 95.7 259.5 95.7s.462 2.882-1.031 4.375" style="fill:#3e9b67"/>
            <path data-name="패스 14904" d="M266.478 170.067c-1.493 1.493-4.375 1.031-4.375 1.031s-.462-2.882 1.031-4.375 4.375-1.031 4.375-1.031.462 2.882-1.031 4.375" style="fill:#3e9b67"/>
            <path data-name="패스 14905" d="M269.248 181.982c-1.493 1.493-4.375 1.031-4.375 1.031s-.461-2.882 1.031-4.375 4.375-1.031 4.375-1.031.462 2.882-1.031 4.375" style="fill:#3e9b67"/>
            <path data-name="패스 14906" d="M255.315 156.855c2.111 0 3.823 2.364 3.823 2.364s-1.712 2.365-3.823 2.365-3.823-2.365-3.823-2.365 1.712-2.364 3.823-2.364" style="fill:#3e9b67"/>
            <path data-name="패스 14907" d="M266.164 199.383c2.111 0 3.823 2.364 3.823 2.364s-1.712 2.365-3.823 2.365-3.824-2.365-3.824-2.365 1.712-2.364 3.824-2.364" style="fill:#3e9b67"/>
            <path data-name="패스 14908" d="M261.045 270.823c2.111 0 3.823 2.364 3.823 2.364s-1.712 2.365-3.823 2.365-3.823-2.365-3.823-2.365 1.712-2.364 3.823-2.364" style="fill:#3e9b67"/>
            <path data-name="패스 14909" d="M265.229 263.6c2.111 0 3.823 2.364 3.823 2.364s-1.712 2.365-3.823 2.365-3.823-2.365-3.823-2.365 1.712-2.364 3.823-2.364" style="fill:#3e9b67"/>
            <path data-name="패스 14910" d="M257.466 255.6c1.493-1.493 4.375-1.031 4.375-1.031s.462 2.882-1.031 4.375-4.375 1.031-4.375 1.031-.462-2.882 1.031-4.375" style="fill:#3e9b67"/>
            <path data-name="패스 14911" d="M252.818 207.884c2.111 0 3.823 2.364 3.823 2.364s-1.712 2.365-3.823 2.365-3.823-2.365-3.823-2.365 1.712-2.364 3.823-2.364" style="fill:#3e9b67"/>
            <path data-name="패스 14912" d="M251.752 126.649c2.111 0 3.823 2.364 3.823 2.364s-1.712 2.365-3.823 2.365-3.823-2.365-3.823-2.365 1.712-2.364 3.823-2.364" style="fill:#3e9b67"/>
            <path data-name="패스 14913" d="M249.759 116.877c2.111 0 3.823 2.364 3.823 2.364s-1.712 2.365-3.823 2.365-3.823-2.365-3.823-2.365 1.712-2.364 3.823-2.364" style="fill:#3e9b67"/>
            <path data-name="패스 14914" d="M210.244 93.671c2.111 0 3.823 2.364 3.823 2.364s-1.712 2.365-3.823 2.365-3.823-2.365-3.823-2.365 1.712-2.364 3.823-2.364" style="fill:#3e9b67"/>
            <path data-name="패스 14915" d="M130.19 301.915s-20.257-8.661-20.257-24.443c0-15.886 21-20.268 21-46.313 0-17.132-21-16.295-21-44.013s19.9-25.436 21.709-42.827c1.945-18.667-20.209-25.781-11.795-40.553 7.386-12.968 29.348 1.719 39.377-6.466s0-33.557 28.357-33.557" style="stroke:#3e9b67;stroke-width:2px;stroke-miterlimit:10;fill:none"/>
            <path data-name="패스 14916" d="M169.434 66.7c1.493 1.493 4.375 1.031 4.375 1.031s.462-2.882-1.031-4.375-4.375-1.031-4.375-1.031-.462 2.882 1.031 4.375" style="fill:#3e9b67"/>
            <path data-name="패스 14917" d="M111.15 187.927c-1.493 1.493-1.031 4.375-1.031 4.375s2.882.462 4.375-1.031 1.031-4.375 1.031-4.375-2.882-.462-4.375 1.031" style="fill:#3e9b67"/>
            <path data-name="패스 14918" d="M122 220.46c-1.493 1.493-1.031 4.375-1.031 4.375s2.882.462 4.375-1.031 1.031-4.375 1.031-4.375-2.882-.462-4.375 1.031" style="fill:#3e9b67"/>
            <path data-name="패스 14919" d="M113.693 107.191c-2.077.379-3.336 3.012-3.336 3.012s2.108 2.019 4.185 1.64 3.336-3.013 3.336-3.013-2.108-2.018-4.185-1.639" style="fill:#3e9b67"/>
            <path data-name="패스 14920" d="M126.5 148.623c1.493 1.493 4.375 1.031 4.375 1.031s.462-2.882-1.031-4.375-4.375-1.031-4.375-1.031-.462 2.882 1.031 4.375" style="fill:#3e9b67"/>
            <path data-name="패스 14921" d="M160.477 81.915c1.493 1.493 4.375 1.031 4.375 1.031s.462-2.882-1.031-4.375-4.375-1.031-4.375-1.031-.462 2.882 1.031 4.375" style="fill:#3e9b67"/>
            <path data-name="패스 14922" d="M178.614 70.194c1.493 1.494 4.375 1.031 4.375 1.031s.462-2.882-1.031-4.375-4.375-1.031-4.375-1.031-.462 2.882 1.031 4.375" style="fill:#3e9b67"/>
            <path data-name="패스 14923" d="M149.339 98.114c1.493 1.493 4.375 1.031 4.375 1.031s.462-2.882-1.031-4.375-4.375-1.031-4.375-1.031-.462 2.882 1.031 4.375" style="fill:#3e9b67"/>
            <path data-name="패스 14924" d="M116.691 100.072c1.493 1.493 4.375 1.031 4.375 1.031s.462-2.882-1.031-4.375-4.375-1.028-4.375-1.028-.462 2.882 1.031 4.375" style="fill:#3e9b67"/>
            <path data-name="패스 14925" d="M108.685 170.067c1.493 1.493 4.375 1.031 4.375 1.031s.462-2.882-1.031-4.375-4.375-1.031-4.375-1.031-.462 2.882 1.031 4.375" style="fill:#3e9b67"/>
            <path data-name="패스 14926" d="M105.915 181.982c1.493 1.493 4.375 1.031 4.375 1.031s.462-2.882-1.031-4.375-4.375-1.031-4.375-1.031-.462 2.882 1.031 4.375" style="fill:#3e9b67"/>
            <path data-name="패스 14927" d="M119.848 156.855c-2.111 0-3.824 2.364-3.824 2.364s1.713 2.365 3.824 2.365 3.823-2.365 3.823-2.365-1.712-2.364-3.823-2.364" style="fill:#3e9b67"/>
            <path data-name="패스 14928" d="M109 199.383c-2.111 0-3.823 2.364-3.823 2.364s1.712 2.365 3.823 2.365 3.823-2.365 3.823-2.365-1.712-2.364-3.823-2.364" style="fill:#3e9b67"/>
            <path data-name="패스 14929" d="M114.117 270.823c-2.111 0-3.823 2.364-3.823 2.364s1.712 2.365 3.823 2.365 3.823-2.365 3.823-2.365-1.712-2.364-3.823-2.364" style="fill:#3e9b67"/>
            <path data-name="패스 14930" d="M109.933 263.6c-2.111 0-3.823 2.364-3.823 2.364s1.712 2.365 3.823 2.365 3.823-2.365 3.823-2.365-1.712-2.364-3.823-2.364" style="fill:#3e9b67"/>
            <path data-name="패스 14931" d="M117.7 255.6c-1.493-1.493-4.375-1.031-4.375-1.031s-.462 2.882 1.031 4.375 4.375 1.031 4.375 1.031.462-2.882-1.031-4.375" style="fill:#3e9b67"/>
            <path data-name="패스 14932" d="M122.344 207.884c-2.111 0-3.823 2.364-3.823 2.364s1.712 2.365 3.823 2.365 3.823-2.365 3.823-2.365-1.712-2.364-3.823-2.364" style="fill:#3e9b67"/>
            <path data-name="패스 14933" d="M123.411 126.649c-2.111 0-3.823 2.364-3.823 2.364s1.712 2.365 3.823 2.365 3.823-2.365 3.823-2.365-1.712-2.364-3.823-2.364" style="fill:#3e9b67"/>
            <path data-name="패스 14934" d="M125.4 116.877c-2.111 0-3.823 2.364-3.823 2.364s1.712 2.365 3.823 2.365 3.823-2.365 3.823-2.365-1.712-2.364-3.823-2.364" style="fill:#3e9b67"/>
            <path data-name="패스 14935" d="M164.919 93.671c-2.111 0-3.823 2.364-3.823 2.364s1.712 2.365 3.823 2.365 3.823-2.365 3.823-2.365-1.712-2.364-3.823-2.364" style="fill:#3e9b67"/>
            <path data-name="패스 14936" d="M239.348 93.02c0 2.111-.571 6.986-2.364 6.986s-2.365-4.875-2.365-6.986 1.078-2.164 2.365-2.164 2.364.053 2.364 2.164" style="fill:#fff"/>
            <path data-name="패스 14937" d="M243.827 97.148c-2.1.169-6.918 1.129-6.774 2.916s5.048 1.967 7.153 1.8 2.071-1.247 1.967-2.53-.242-2.352-2.346-2.183" style="fill:#fff"/>
            <path data-name="패스 14938" d="M230.14 97.148c2.1.169 6.918 1.129 6.774 2.916s-5.048 1.967-7.153 1.8-2.071-1.247-1.967-2.53.242-2.352 2.346-2.183" style="fill:#fff"/>
            <path data-name="패스 14939" d="M242.953 105.849c-1.077-1.816-4.055-5.717-5.6-4.8s.454 5.4 1.531 7.215 2.031 1.311 3.138.654 2.006-1.251.929-3.067" style="fill:#fff"/>
            <path data-name="패스 14940" d="M231.122 105.849c1.077-1.816 4.055-5.717 5.6-4.8s-.454 5.4-1.531 7.215-2.031 1.311-3.138.654-2.006-1.251-.929-3.067" style="fill:#fff"/>
            <path data-name="패스 14941" d="M238.749 100a1.766 1.766 0 1 1-1.766-1.765 1.766 1.766 0 0 1 1.766 1.765" style="fill:#fff"/>
            <path data-name="패스 14942" d="M238.1 100a1.112 1.112 0 1 1-1.111-1.11A1.111 1.111 0 0 1 238.1 100" style="fill:#fce09c"/>
            <path data-name="패스 14943" d="M114.012 193.751c0 2.111-.571 6.986-2.364 6.986s-2.365-4.875-2.365-6.986 1.078-2.164 2.365-2.164 2.364.053 2.364 2.164" style="fill:#fff"/>
            <path data-name="패스 14944" d="M118.491 197.879c-2.1.169-6.918 1.129-6.774 2.916s5.048 1.967 7.153 1.8 2.071-1.247 1.967-2.53-.242-2.352-2.346-2.183" style="fill:#fff"/>
            <path data-name="패스 14945" d="M104.8 197.879c2.1.169 6.918 1.129 6.774 2.916s-5.048 1.967-7.153 1.8-2.071-1.247-1.967-2.53.242-2.352 2.346-2.183" style="fill:#fff"/>
            <path data-name="패스 14946" d="M117.618 206.58c-1.077-1.816-4.055-5.717-5.6-4.8s.454 5.4 1.531 7.215 2.031 1.311 3.138.654 2.006-1.251.929-3.067" style="fill:#fff"/>
            <path data-name="패스 14947" d="M105.787 206.58c1.077-1.816 4.055-5.717 5.6-4.8s-.454 5.4-1.531 7.215-2.031 1.311-3.138.654-2.006-1.251-.929-3.067" style="fill:#fff"/>
            <path data-name="패스 14948" d="M113.414 200.736a1.766 1.766 0 1 1-1.766-1.766 1.766 1.766 0 0 1 1.766 1.766" style="fill:#fff"/>
            <path data-name="패스 14949" d="M112.759 200.736a1.111 1.111 0 1 1-1.111-1.111 1.111 1.111 0 0 1 1.111 1.111" style="fill:#fce09c"/>
            <path data-name="패스 14950" d="M267.17 168.88c0 2.111-.571 6.986-2.364 6.986s-2.365-4.875-2.365-6.986 1.078-2.164 2.365-2.164 2.364.053 2.364 2.164" style="fill:#fff"/>
            <path data-name="패스 14951" d="M271.649 173.008c-2.1.169-6.918 1.129-6.774 2.916s5.048 1.967 7.153 1.8 2.071-1.247 1.967-2.53-.242-2.352-2.346-2.183" style="fill:#fff"/>
            <path data-name="패스 14952" d="M257.963 173.008c2.1.169 6.918 1.129 6.774 2.916s-5.048 1.967-7.153 1.8-2.071-1.247-1.967-2.53.242-2.352 2.346-2.183" style="fill:#fff"/>
            <path data-name="패스 14953" d="M270.776 181.709c-1.077-1.816-4.055-5.717-5.6-4.8s.454 5.4 1.531 7.215 2.031 1.311 3.138.654 2.006-1.251.929-3.067" style="fill:#fff"/>
            <path data-name="패스 14954" d="M258.945 181.709c1.077-1.816 4.055-5.717 5.6-4.8s-.454 5.4-1.531 7.215-2.031 1.311-3.138.654-2.006-1.251-.929-3.067" style="fill:#fff"/>
            <path data-name="패스 14955" d="M266.572 175.866a1.766 1.766 0 1 1-1.766-1.766 1.766 1.766 0 0 1 1.766 1.766" style="fill:#fff"/>
            <path data-name="패스 14956" d="M265.917 175.866a1.111 1.111 0 1 1-1.111-1.111 1.111 1.111 0 0 1 1.111 1.111" style="fill:#fce09c"/>
            <path data-name="패스 14957" d="M132.491 90.651c0 2.111-.571 6.986-2.364 6.986s-2.365-4.875-2.365-6.986 1.078-2.164 2.365-2.164 2.364.053 2.364 2.164" style="fill:#fff"/>
            <path data-name="패스 14958" d="M136.97 94.78c-2.1.169-6.918 1.129-6.774 2.916s5.048 1.967 7.153 1.8 2.071-1.247 1.967-2.53-.242-2.352-2.346-2.183" style="fill:#fff"/>
            <path data-name="패스 14959" d="M123.283 94.78c2.1.169 6.918 1.129 6.774 2.916s-5.048 1.967-7.153 1.8-2.071-1.247-1.967-2.53.242-2.352 2.346-2.183" style="fill:#fff"/>
            <path data-name="패스 14960" d="M136.1 103.48c-1.077-1.816-4.055-5.717-5.6-4.8s.454 5.4 1.531 7.215 2.031 1.311 3.138.654 2.006-1.251.929-3.067" style="fill:#fff"/>
            <path data-name="패스 14961" d="M124.266 103.48c1.077-1.816 4.055-5.717 5.6-4.8s-.454 5.4-1.531 7.215-2.031 1.311-3.138.654-2.006-1.251-.929-3.067" style="fill:#fff"/>
            <path data-name="패스 14962" d="M131.893 97.637a1.766 1.766 0 1 1-1.766-1.766 1.766 1.766 0 0 1 1.766 1.766" style="fill:#fff"/>
            <path data-name="패스 14963" d="M131.238 97.637a1.112 1.112 0 1 1-1.111-1.111 1.111 1.111 0 0 1 1.111 1.111" style="fill:#fce09c"/>
            <path data-name="패스 14964" d="M249.714 293.144c0 2.111-.571 6.986-2.364 6.986s-2.365-4.875-2.365-6.986 1.078-2.164 2.365-2.164 2.364.053 2.364 2.164" style="fill:#fff"/>
            <path data-name="패스 14965" d="M254.193 297.273c-2.1.169-6.918 1.129-6.774 2.916s5.048 1.967 7.153 1.8 2.071-1.247 1.967-2.53-.242-2.352-2.346-2.183" style="fill:#fff"/>
            <path data-name="패스 14966" d="M240.507 297.273c2.1.169 6.917 1.129 6.773 2.916s-5.048 1.967-7.153 1.8-2.071-1.247-1.967-2.53.242-2.352 2.347-2.183" style="fill:#fff"/>
            <path data-name="패스 14967" d="M253.32 305.973c-1.077-1.816-4.055-5.717-5.6-4.8s.454 5.4 1.531 7.215 2.031 1.311 3.138.654 2.006-1.251.929-3.067" style="fill:#fff"/>
            <path data-name="패스 14968" d="M241.489 305.973c1.077-1.816 4.055-5.717 5.6-4.8s-.454 5.4-1.531 7.215-2.031 1.311-3.138.654-2.006-1.251-.929-3.067" style="fill:#fff"/>
            <path data-name="패스 14969" d="M249.116 300.13a1.766 1.766 0 1 1-1.766-1.766 1.766 1.766 0 0 1 1.766 1.766" style="fill:#fff"/>
            <path data-name="패스 14970" d="M248.461 300.13a1.111 1.111 0 1 1-1.111-1.111 1.111 1.111 0 0 1 1.111 1.111" style="fill:#fce09c"/>
            <path data-name="패스 14971" d="M246.583 219.2c0 2.111-.572 6.986-2.365 6.986s-2.364-4.875-2.364-6.986 1.078-2.164 2.364-2.164 2.365.053 2.365 2.164" style="fill:#fff"/>
            <path data-name="패스 14972" d="M251.061 223.325c-2.1.169-6.918 1.129-6.774 2.916s5.048 1.967 7.153 1.8 2.071-1.247 1.967-2.53-.242-2.352-2.346-2.183" style="fill:#fff"/>
            <path data-name="패스 14973" d="M237.375 223.325c2.1.169 6.918 1.129 6.774 2.916s-5.048 1.967-7.153 1.8-2.071-1.247-1.967-2.53.242-2.352 2.346-2.183" style="fill:#fff"/>
            <path data-name="패스 14974" d="M250.188 232.026c-1.077-1.816-4.055-5.717-5.6-4.8s.454 5.4 1.531 7.215 2.031 1.311 3.138.654 2.006-1.251.929-3.067" style="fill:#fff"/>
            <path data-name="패스 14975" d="M238.357 232.026c1.077-1.816 4.055-5.717 5.6-4.8s-.454 5.4-1.531 7.215-2.031 1.311-3.138.654-2.006-1.251-.929-3.067" style="fill:#fff"/>
            <path data-name="패스 14976" d="M245.984 226.183a1.766 1.766 0 1 1-1.766-1.766 1.766 1.766 0 0 1 1.766 1.766" style="fill:#fff"/>
            <path data-name="패스 14977" d="M245.329 226.183a1.111 1.111 0 1 1-1.111-1.111 1.111 1.111 0 0 1 1.111 1.111" style="fill:#fce09c"/>
            <path data-name="패스 14978" d="M168.618 82.686c-1.048 1.833-3.963 5.782-5.52 4.891s.367-5.405 1.415-7.238 2.009-1.344 3.126-.7 2.027 1.219.979 3.052" style="fill:#fff"/>
            <path data-name="패스 14979" d="M170.458 88.493c-1.911-.9-6.566-2.453-7.328-.83s3.407 4.212 5.318 5.11 2.416-.055 2.963-1.22.958-2.162-.953-3.06" style="fill:#fff"/>
            <path data-name="패스 14980" d="M158.575 81.7c1.743 1.191 5.445 4.413 4.433 5.894s-5.358-.8-7.1-1.99-1.179-2.111-.453-3.173 1.378-1.922 3.121-.731" style="fill:#fff"/>
            <path data-name="패스 14981" d="M165.381 95.613c-.034-2.111-.683-6.976-2.477-6.947s-2.285 4.912-2.251 7.023 1.112 2.147 2.4 2.126 2.363-.091 2.329-2.2" style="fill:#fff"/>
            <path data-name="패스 14982" d="M155.11 89.741c1.836-1.042 6.358-2.95 7.243-1.39s-3.074 4.461-4.91 5.5-2.414.131-3.049-.989-1.12-2.082.716-3.124" style="fill:#fff"/>
            <path data-name="패스 14983" d="M164.632 88.454a1.766 1.766 0 1 1-.657-2.41 1.766 1.766 0 0 1 .657 2.41" style="fill:#fff"/>
            <path data-name="패스 14984" d="M164.063 88.129a1.111 1.111 0 1 1-.413-1.516 1.111 1.111 0 0 1 .413 1.516" style="fill:#fce09c"/>
            <path data-name="패스 14985" d="M133.535 295.419c-1.048 1.833-3.963 5.782-5.52 4.891s.367-5.4 1.415-7.238 2.009-1.344 3.126-.7 2.027 1.219.979 3.052" style="fill:#fff"/>
            <path data-name="패스 14986" d="M135.374 301.227c-1.911-.9-6.566-2.453-7.328-.83s3.407 4.212 5.318 5.11 2.416-.055 2.963-1.22.958-2.162-.953-3.06" style="fill:#fff"/>
            <path data-name="패스 14987" d="M123.492 294.434c1.743 1.191 5.445 4.413 4.433 5.894s-5.358-.8-7.1-1.99-1.179-2.111-.453-3.173 1.378-1.922 3.121-.731" style="fill:#fff"/>
            <path data-name="패스 14988" d="M130.3 308.347c-.034-2.111-.683-6.976-2.477-6.947s-2.285 4.912-2.251 7.023 1.112 2.147 2.4 2.126 2.363-.091 2.329-2.2" style="fill:#fff"/>
            <path data-name="패스 14989" d="M120.027 302.475c1.836-1.042 6.358-2.95 7.243-1.39s-3.074 4.461-4.91 5.5-2.414.131-3.049-.989-1.12-2.082.716-3.124" style="fill:#fff"/>
            <path data-name="패스 14990" d="M129.548 301.187a1.766 1.766 0 1 1-.657-2.41 1.766 1.766 0 0 1 .657 2.41" style="fill:#fff"/>
            <path data-name="패스 14991" d="M128.98 300.862a1.111 1.111 0 1 1-.413-1.516 1.111 1.111 0 0 1 .413 1.516" style="fill:#fce09c"/>
            <path data-name="패스 14992" d="M255.454 245.721c-1.048 1.833-3.963 5.782-5.52 4.891s.367-5.4 1.415-7.238 2.009-1.344 3.126-.7 2.027 1.219.979 3.052" style="fill:#fff"/>
            <path data-name="패스 14993" d="M257.293 251.528c-1.911-.9-6.566-2.453-7.328-.83s3.407 4.212 5.318 5.11 2.416-.055 2.963-1.22.958-2.162-.953-3.06" style="fill:#fff"/>
            <path data-name="패스 14994" d="M245.411 244.735c1.743 1.191 5.445 4.413 4.433 5.894s-5.358-.8-7.1-1.99-1.179-2.111-.453-3.173 1.378-1.922 3.121-.731" style="fill:#fff"/>
            <path data-name="패스 14995" d="M252.217 258.648c-.034-2.111-.683-6.976-2.477-6.947s-2.285 4.912-2.251 7.023 1.112 2.147 2.4 2.126 2.363-.091 2.329-2.2" style="fill:#fff"/>
            <path data-name="패스 14996" d="M241.946 252.776c1.836-1.042 6.358-2.95 7.243-1.39s-3.074 4.461-4.91 5.5-2.414.131-3.049-.989-1.12-2.082.716-3.124" style="fill:#fff"/>
            <path data-name="패스 14997" d="M251.467 251.489a1.766 1.766 0 1 1-.657-2.41 1.766 1.766 0 0 1 .657 2.41" style="fill:#fff"/>
            <path data-name="패스 14998" d="M250.9 251.164a1.111 1.111 0 1 1-.413-1.516 1.111 1.111 0 0 1 .413 1.516" style="fill:#fce09c"/>
            <path data-name="패스 14999" d="M204.939 65.2c1.015 1.851 2.859 6.4 1.286 7.262s-4.417-3.137-5.432-4.988-.1-2.416 1.032-3.035 2.1-1.09 3.114.761" style="fill:#fff"/>
            <path data-name="패스 15000" d="M210.852 66.663c-1.764 1.16-5.523 4.316-4.537 5.814s5.372-.7 7.136-1.863 1.215-2.09.508-3.165-1.343-1.946-3.107-.786" style="fill:#fff"/>
            <path data-name="패스 15001" d="M198.851 73.244c1.927-.864 6.608-2.337 7.342-.7s-3.481 4.151-5.408 5.015-2.415-.1-2.942-1.272-.919-2.179 1.008-3.043" style="fill:#fff"/>
            <path data-name="패스 15002" d="M214.27 74.711c-1.818-1.074-6.305-3.063-7.217-1.519s2.994 4.516 4.811 5.59 2.411.173 3.066-.935 1.158-2.062-.66-3.136" style="fill:#fff"/>
            <path data-name="패스 15003" d="M203.9 80.4c.072-2.11.807-6.963 2.6-6.9s2.2 4.952 2.126 7.062-1.15 2.126-2.436 2.083-2.362-.133-2.29-2.243" style="fill:#fff"/>
            <path data-name="패스 15004" d="M207.774 71.609a1.766 1.766 0 1 1-2.4-.7 1.767 1.767 0 0 1 2.4.7" style="fill:#fff"/>
            <path data-name="패스 15005" d="M207.2 71.924a1.111 1.111 0 1 1-1.509-.44 1.112 1.112 0 0 1 1.509.44" style="fill:#fce09c"/>
            <path data-name="패스 15006" d="M130.362 128.727c1.015 1.851 2.859 6.4 1.286 7.262s-4.417-3.137-5.432-4.988-.1-2.416 1.032-3.035 2.1-1.09 3.114.761" style="fill:#fff"/>
            <path data-name="패스 15007" d="M136.274 130.194c-1.764 1.16-5.523 4.316-4.537 5.814s5.372-.7 7.136-1.863 1.215-2.09.508-3.165-1.343-1.946-3.107-.786" style="fill:#fff"/>
            <path data-name="패스 15008" d="M124.274 136.775c1.927-.864 6.608-2.337 7.342-.7s-3.481 4.151-5.408 5.015-2.415-.1-2.942-1.272-.919-2.179 1.008-3.043" style="fill:#fff"/>
            <path data-name="패스 15009" d="M139.692 138.242c-1.818-1.074-6.305-3.063-7.217-1.519s2.994 4.516 4.811 5.59 2.411.173 3.066-.935 1.158-2.062-.66-3.136" style="fill:#fff"/>
            <path data-name="패스 15010" d="M129.319 143.931c.072-2.11.807-6.963 2.6-6.9s2.2 4.952 2.126 7.062-1.15 2.126-2.436 2.083-2.362-.133-2.29-2.243" style="fill:#fff"/>
            <path data-name="패스 15011" d="M133.2 135.14a1.766 1.766 0 1 1-2.4-.7 1.767 1.767 0 0 1 2.4.7" style="fill:#fff"/>
            <path data-name="패스 15012" d="M132.622 135.455a1.111 1.111 0 1 1-1.509-.44 1.112 1.112 0 0 1 1.509.44" style="fill:#fce09c"/>
            <path data-name="패스 15013" d="M243.4 129.418c1.015 1.851 2.859 6.4 1.286 7.262s-4.417-3.137-5.432-4.988-.1-2.416 1.032-3.035 2.1-1.09 3.114.761" style="fill:#fff"/>
            <path data-name="패스 15014" d="M249.311 130.884c-1.764 1.16-5.523 4.317-4.537 5.815s5.372-.7 7.136-1.864 1.215-2.09.508-3.164-1.343-1.946-3.107-.787" style="fill:#fff"/>
            <path data-name="패스 15015" d="M237.311 137.465c1.926-.864 6.607-2.337 7.341-.7s-3.481 4.151-5.408 5.015-2.415-.1-2.942-1.272-.919-2.179 1.009-3.043" style="fill:#fff"/>
            <path data-name="패스 15016" d="M252.729 138.933c-1.818-1.074-6.305-3.063-7.217-1.519s2.994 4.516 4.811 5.59 2.411.173 3.066-.935 1.158-2.062-.66-3.136" style="fill:#fff"/>
            <path data-name="패스 15017" d="M242.356 144.622c.072-2.11.807-6.963 2.6-6.9s2.2 4.952 2.126 7.062-1.15 2.126-2.436 2.083-2.362-.133-2.29-2.243" style="fill:#fff"/>
            <path data-name="패스 15018" d="M246.233 135.831a1.766 1.766 0 1 1-2.4-.7 1.767 1.767 0 0 1 2.4.7" style="fill:#fff"/>
            <path data-name="패스 15019" d="M245.659 136.146a1.111 1.111 0 1 1-1.509-.44 1.112 1.112 0 0 1 1.509.44" style="fill:#fce09c"/>
            <path data-name="패스 15020" d="M129.414 231.343c1.015 1.851 2.859 6.4 1.286 7.262s-4.417-3.137-5.432-4.988-.1-2.416 1.032-3.035 2.1-1.09 3.114.761" style="fill:#fff"/>
            <path data-name="패스 15021" d="M135.326 232.81c-1.764 1.16-5.523 4.316-4.537 5.814s5.372-.7 7.136-1.863 1.215-2.09.508-3.165-1.343-1.946-3.107-.786" style="fill:#fff"/>
            <path data-name="패스 15022" d="M123.326 239.391c1.927-.864 6.608-2.337 7.342-.7s-3.481 4.151-5.408 5.015-2.415-.1-2.942-1.272-.919-2.179 1.008-3.043" style="fill:#fff"/>
            <path data-name="패스 15023" d="M138.744 240.859c-1.818-1.074-6.305-3.063-7.217-1.519s2.994 4.516 4.811 5.59 2.411.173 3.066-.935 1.158-2.062-.66-3.136" style="fill:#fff"/>
            <path data-name="패스 15024" d="M128.371 246.547c.072-2.11.807-6.963 2.6-6.9s2.2 4.952 2.126 7.062-1.15 2.126-2.436 2.083-2.362-.133-2.29-2.243" style="fill:#fff"/>
            <path data-name="패스 15025" d="M132.248 237.756a1.766 1.766 0 1 1-2.4-.7 1.767 1.767 0 0 1 2.4.7" style="fill:#fff"/>
            <path data-name="패스 15026" d="M131.674 238.071a1.111 1.111 0 1 1-1.509-.44 1.112 1.112 0 0 1 1.509.44" style="fill:#fce09c"/>
        </g>
    </g>
</svg>
