<svg xmlns="http://www.w3.org/2000/svg" width="376" height="540" viewBox="0 0 376 540">
    <defs>
        <clipPath id="vaxypuc0sa">
            <path data-name="사각형 2853" style="fill:none" d="M0 0h375.002v491.098H0z"/>
        </clipPath>
        <clipPath id="27cnd51v0b">
            <path data-name="사각형 2854" transform="translate(0 246.076)" style="fill:none" d="M0 0h375v245.022H0z"/>
        </clipPath>
    </defs>
    <path data-name="패스 14761" d="M0 0h375v540H0z" transform="translate(1)" style="fill:none"/>
    <g data-name="그룹 2546">
        <g data-name="그룹 2543">
            <g data-name="그룹 2542" style="clip-path:url(#vaxypuc0sa)" transform="translate(0 48.902)">
                <path data-name="패스 14733" d="M187 11A147 147 0 1 1 40 158 147 147 0 0 1 187 11" style="fill:#91d09f"/>
                <path data-name="패스 14734" d="M187.5 315a158.652 158.652 0 0 1-31.742-3.2A157.459 157.459 0 0 1 33.2 189.239a159.045 159.045 0 0 1 0-63.482A157.461 157.461 0 0 1 155.762 3.2a159.013 159.013 0 0 1 63.483 0A157.449 157.449 0 0 1 341.8 125.759a159.045 159.045 0 0 1 0 63.482A157.461 157.461 0 0 1 219.239 311.8 158.632 158.632 0 0 1 187.5 315m.5-282a120.812 120.812 0 0 0-24.184 2.438 119.956 119.956 0 0 0-93.376 93.378 121.186 121.186 0 0 0 0 48.367 119.969 119.969 0 0 0 93.379 93.381 121.2 121.2 0 0 0 48.37 0 119.966 119.966 0 0 0 93.379-93.383 121.186 121.186 0 0 0 0-48.367 119.962 119.962 0 0 0-93.382-93.375A120.83 120.83 0 0 0 188 33" style="fill:#73be84"/>
                <path data-name="패스 14735" d="M187 266a108.485 108.485 0 0 1-21.767-2.2 107.954 107.954 0 0 1-84.043-84.036 109.108 109.108 0 0 1 0-43.531 107.937 107.937 0 0 1 84.043-84.04 108.93 108.93 0 0 1 43.532 0 107.961 107.961 0 0 1 84.04 84.04 109.035 109.035 0 0 1 0 43.531A107.914 107.914 0 0 1 187 266m0-194.4a87.053 87.053 0 0 0-17.414 1.755 86.36 86.36 0 0 0-67.233 67.233 87.231 87.231 0 0 0 0 34.827 86.362 86.362 0 0 0 67.233 67.228 87.336 87.336 0 0 0 34.826 0 86.36 86.36 0 0 0 67.228-67.23 87.227 87.227 0 0 0 0-34.826 86.355 86.355 0 0 0-67.231-67.235A87 87 0 0 0 187 71.6" style="fill:#73be84"/>
                <path data-name="패스 14736" d="M187 86a72 72 0 1 1-72 72 72 72 0 0 1 72-72" style="fill:#56b36b"/>
                <path data-name="패스 14737" d="M187 101a57 57 0 1 1-57 57 57 57 0 0 1 57-57" style="fill:#91d09f"/>
            </g>
        </g>
        <g data-name="그룹 2545">
            <g data-name="그룹 2544" style="clip-path:url(#27cnd51v0b)" transform="translate(0 48.902)">
                <path data-name="패스 14738" d="m23.044 317.533 6.946-31.682 5.871 26.78 5.871-26.78 6.945 31.682h29.559v-10.671h-12.02l13.327-60.786 13.326 60.786h-12.02v10.671h8.964a46.218 46.218 0 0 1 30.534 11.523l54.436 47.9a46.2 46.2 0 0 0 12.842 7.992l6.913-14.66 7.378 15.642 7.377-15.642 8.577 18.19h8.34l12.79-58.33 5.871 26.781 5.871-26.781 12.788 58.33h108.979v45.456H0v-116.4z" style="fill:#418c48"/>
                <path data-name="패스 14739" d="m10.653 419.343 10.653-22.591 16.936 35.912h128.95a46.221 46.221 0 0 0 30.535-11.522l54.436-47.9a46.222 46.222 0 0 1 30.537-11.527h31.95V346.3h-10.438l5.871-12.45h-5.871l5.871-12.451h-5.871l11.743-24.9L327.7 321.4h-5.871l5.873 12.451h-5.871L327.7 346.3h-10.439v15.411h28.533V346.3h-10.436l5.871-12.45h-5.871l5.871-12.451h-5.871L347.1 296.5l11.743 24.9h-5.871l5.871 12.451h-5.871l5.871 12.45h-10.436v15.411H375v116.4H0v-81.36z" style="fill:#479e57"/>
                <path data-name="패스 14740" d="m21.967 447.286 4.557-9.664 4.1 8.706 4.106-8.706 3.5 7.419 3.5-7.419 4.556 9.664h5.88v-18.9H41.387l6.044-12.817h-6.044l6.044-12.817h-6.044l12.088-25.633 12.088 25.633h-6.044l6.044 12.817h-6.044l6.044 12.817H54.782v18.9h47.775a15.149 15.149 0 0 1 15.145 15.15 9.867 9.867 0 0 0 9.866 9.865h9.483l6.887-31.416 6.888 31.416h1.388l6.888-31.416 6.887 31.416h30.051l5.871-12.45 5.87 12.45h3.019l5.871-12.45 5.87 12.45h10.424v-18.965h-10.439l5.871-12.451h-5.871l5.871-12.45h-5.871l11.743-24.9 11.743 24.9h-5.871l5.871 12.45h-5.871l5.871 12.451h-10.436V472.3h17.588a9.867 9.867 0 0 0 9.866-9.865 15.148 15.148 0 0 1 15.147-15.149h11.563v-24.4h-16.293l17.6-80.278 17.6 80.278h-16.294v24.4h29.356l8.889-18.851 7.377 15.642 7.378-15.642 7.028 14.9 10.878-49.614L375 447.286V491.1H0v-43.814z" style="fill:#56b36b"/>
            </g>
        </g>
    </g>
</svg>
