<svg xmlns="http://www.w3.org/2000/svg" width="375" height="380" viewBox="0 0 375 380">
    <defs>
        <clipPath id="qapmo2m69a">
            <path data-name="사각형 2866" style="fill:none" d="M0 0h375v357.654H0z"/>
        </clipPath>
    </defs>
    <path data-name="사각형 2867" style="fill:none" d="M0 0h375v380H0z"/>
    <g data-name="그룹 2555">
        <g data-name="그룹 2554" style="clip-path:url(#qapmo2m69a)">
            <path data-name="패스 14789" d="m67.022 244.464-8.651-8.99a2.615 2.615 0 0 1-.73-1.812v-13.726a24.624 24.624 0 0 0-22.145-24.5v10.694a21.04 21.04 0 0 1-21.039 21.041H.009v113.3H37.08V313.8a21.731 21.731 0 0 1-7.171-26.9h3.112a24.621 24.621 0 0 0 24.62-24.622v-8.265a1.955 1.955 0 0 1 1.955-1.955h4.2a4.482 4.482 0 0 0 3.23-7.59" style="fill:#91d09f"/>
            <path data-name="패스 14790" d="M326.077 0a27.718 27.718 0 0 0-27.718 27.718v21.293a12.517 12.517 0 0 1-12.517 12.517H150.983a27.72 27.72 0 0 0-27.719 27.72v11.227c0 14.779-7.571 23.269-27.718 23.269h-44.4C0 123.744 0 153.117 0 174.373v79.089s7.189-4.928 7.189-18.331c0-7.885 7.258-7.952 7.258-7.952a21.04 21.04 0 0 0 21.04-21.04v-10.7a24.625 24.625 0 0 1 22.146 24.5v14.781l9.264 9.628a4.609 4.609 0 0 1 .972 5.08 4.494 4.494 0 0 1-4.086 2.63H59.6a1.955 1.955 0 0 0-1.955 1.955v8.265A24.622 24.622 0 0 1 33.023 286.9h-3.115a21.662 21.662 0 0 0 13.725 30.023l3.957 1.125c.393.112.773.249 1.155.381v16.2a5.844 5.844 0 0 0 5.842 5.842h8.76s0 17.183 16.786 17.183h15.374c14.031 0 17.3-.326 18-17.179.3-7.362.113-25.444.113-25.444 0-20.874 8.693-28.81 31.514-28.81h51.5a17.394 17.394 0 0 0 17.393-17.394V241.8a27.72 27.72 0 0 1 27.719-27.719H375V0z" style="fill:#73be84"/>
            <path data-name="패스 14791" d="M63.349 340.472v-1.566a21.674 21.674 0 0 0-14.6-20.48v16.048a6 6 0 0 0 6 6z" style="fill:#91d09f"/>
            <path data-name="패스 14792" d="M43.046 267.656a9.826 9.826 0 0 1-6.966-2.88 1.409 1.409 0 1 1 1.97-2.015l.022.022a7.04 7.04 0 0 0 9.947 0 1.409 1.409 0 0 1 1.989 1.994 9.816 9.816 0 0 1-6.964 2.879" style="fill:#3e9b67"/>
            <path data-name="패스 14793" d="M51.414 220.226a1.4 1.4 0 0 1-1-.412 7.03 7.03 0 0 0-9.942 0 1.409 1.409 0 1 1-2.043-1.941l.05-.05a9.85 9.85 0 0 1 13.929 0 1.408 1.408 0 0 1-1 2.4" style="fill:#3e9b67"/>
            <path data-name="패스 14794" d="M45.445 237.042a2.817 2.817 0 0 1-2.817-2.817v-3.468a2.817 2.817 0 0 1 5.634 0v3.468a2.817 2.817 0 0 1-2.817 2.817" style="fill:#3e9b67"/>
            <path data-name="패스 14795" d="M232.117 8.243A8.243 8.243 0 0 0 223.875 0H.009v79.654h42.912a8.242 8.242 0 0 0 8.243-8.241V57.7a8.244 8.244 0 0 1 8.244-8.243h58.739a8.243 8.243 0 0 0 0-16.487h-17.339a8.244 8.244 0 1 1 0-16.487h123.067a8.244 8.244 0 0 0 8.243-8.243" style="fill:#73be84"/>
            <path data-name="패스 14796" d="M332.088 254.953a8.243 8.243 0 0 0-8.243 8.243v13.7a8.244 8.244 0 0 1-8.243 8.243h-36.261a8.431 8.431 0 0 0-8.508 7.7 8.243 8.243 0 0 0 7.676 8.774q.274.018.549.018h17.056a8.431 8.431 0 0 1 8.508 7.7 8.244 8.244 0 0 1-7.678 8.774 8.304 8.304 0 0 1-.547.018h-56.5a8.43 8.43 0 0 0-8.508 7.7 8.244 8.244 0 0 0 7.678 8.774c.182.012.364.018.547.018h17.933a11.524 11.524 0 0 1 11.52 11.511 11.523 11.523 0 0 0 11.521 11.523H375v-102.7z" style="fill:#73be84"/>
            <path data-name="패스 14797" d="M259.794 46.628h-95.558a5.617 5.617 0 0 1-5.617-5.617v-2.367a5.617 5.617 0 0 1 5.617-5.617h95.558a5.617 5.617 0 0 1 5.617 5.617v2.367a5.617 5.617 0 0 1-5.617 5.617" style="fill:#73be84"/>
            <path data-name="패스 14798" d="M244.342 357.653h-72.891a6.8 6.8 0 1 1 0-13.6h72.891a6.8 6.8 0 1 1 0 13.6" style="fill:#73be84"/>
            <path data-name="패스 14799" d="M184.932 332.027h-40.561a6.8 6.8 0 1 1 0-13.6h40.561a6.8 6.8 0 0 1 0 13.6" style="fill:#73be84"/>
            <path data-name="패스 14800" d="M375 135.057H182.018a25.555 25.555 0 0 1 36.767-23.009 55.4 55.4 0 0 1 100.653-.305 25.429 25.429 0 0 1 24.063 1.61A38.209 38.209 0 0 1 375 96.8z" style="fill:#91d09f"/>
            <path data-name="패스 14801" d="M146.725 166.316a6.457 6.457 0 0 0-2.936.706 14.057 14.057 0 0 0-22.08-4.784 12.928 12.928 0 0 0-14.406-.443 19.421 19.421 0 0 0-33.213 2.035 9.707 9.707 0 0 0-13.39 8.985h92.527a6.5 6.5 0 0 0-6.5-6.5" style="fill:#91d09f"/>
            <path data-name="패스 14802" d="M112.882 197.018a3.176 3.176 0 0 1 1.446.349 6.924 6.924 0 0 1 10.872-2.357 6.369 6.369 0 0 1 7.1-.218 9.564 9.564 0 0 1 16.358 1 4.781 4.781 0 0 1 6.6 4.425h-45.57a3.2 3.2 0 0 1 3.2-3.2" style="fill:#91d09f"/>
            <path data-name="사각형 2858" transform="translate(250.746 195.778)" style="fill:#91d09f" d="M0 0h44.499v18.299H0z"/>
            <path data-name="패스 14803" d="M246.171 197.857h19.046l7.486-15.6h-19.046z" style="fill:#91d09f"/>
            <path data-name="사각형 2859" transform="translate(263.27 195.778)" style="fill:#56b36b" d="M0 0h31.975v18.299H0z"/>
            <path data-name="패스 14804" d="M299.82 197.857h-38.677l-7.486-15.6h38.677z" style="fill:#409b54"/>
            <path data-name="사각형 2860" transform="translate(268.252 200.14)" style="fill:#91d09f" d="M0 0h7.451v6.026H0z"/>
            <path data-name="사각형 2861" transform="translate(271.521 200.14)" style="fill:#56b36b" d="M0 0h.91v6.026H0z"/>
            <path data-name="사각형 2862" transform="translate(267.838 202.698)" style="fill:#56b36b" d="M0 0h8.278v.91H0z"/>
            <path data-name="사각형 2863" transform="translate(281.118 200.14)" style="fill:#91d09f" d="M0 0h7.451v6.026H0z"/>
            <path data-name="사각형 2864" transform="translate(284.388 200.14)" style="fill:#56b36b" d="M0 0h.91v6.026H0z"/>
            <path data-name="사각형 2865" transform="translate(280.704 202.698)" style="fill:#56b36b" d="M0 0h8.278v.91H0z"/>
            <path data-name="패스 14805" d="M258.336 214.077h-4.055V200.14a3.415 3.415 0 0 1 3.8-.154l.251.154z" style="fill:#409b54"/>
        </g>
    </g>
</svg>
