<svg xmlns="http://www.w3.org/2000/svg" width="375" height="540" viewBox="0 0 375 540">
    <defs>
        <clipPath id="lhj4btzwaa">
            <path data-name="사각형 2877" style="fill:none" d="M0 0h375v526.383H0z"/>
        </clipPath>
    </defs>
    <g data-name="그룹 2559">
        <path data-name="사각형 2875" transform="translate(0 7.001)" style="fill:#409b54" d="M0 0h375v297.247H0z"/>
        <g data-name="그룹 2558">
            <g data-name="그룹 2557" style="clip-path:url(#lhj4btzwaa)" transform="translate(0 7)">
                <path data-name="패스 14806" d="M40.005 194.711a30.05 30.05 0 0 1-1.775 9.989 28.951 28.951 0 0 1 0-19.968 30.05 30.05 0 0 1 1.775 9.984" style="fill:#56b36b"/>
                <path data-name="패스 14807" d="M38.23 196.486a30.05 30.05 0 0 1-9.984-1.775 28.951 28.951 0 0 1 19.968 0 30.05 30.05 0 0 1-9.984 1.775" style="fill:#56b36b"/>
                <path data-name="패스 14808" d="M78.2 154.187a30.076 30.076 0 0 1-1.776 9.984 28.951 28.951 0 0 1 0-19.968 30.076 30.076 0 0 1 1.776 9.984" style="fill:#56b36b"/>
                <path data-name="패스 14809" d="M76.424 155.962a30.024 30.024 0 0 1-9.984-1.774 28.951 28.951 0 0 1 19.968 0 30.024 30.024 0 0 1-9.984 1.774" style="fill:#56b36b"/>
                <path data-name="패스 14810" d="M118.2 232.59a30.05 30.05 0 0 1-1.775 9.984 28.951 28.951 0 0 1 0-19.968 30.05 30.05 0 0 1 1.775 9.984" style="fill:#91d09f"/>
                <path data-name="패스 14811" d="M116.424 234.366a30.05 30.05 0 0 1-9.984-1.775 28.951 28.951 0 0 1 19.968 0 30.05 30.05 0 0 1-9.984 1.775" style="fill:#91d09f"/>
                <path data-name="패스 14812" d="M354.924 149.551a30.024 30.024 0 0 1-1.775 9.984 28.951 28.951 0 0 1 0-19.968 30.024 30.024 0 0 1 1.775 9.984" style="fill:#56b36b"/>
                <path data-name="패스 14813" d="M353.148 151.327a30.025 30.025 0 0 1-9.984-1.775 28.951 28.951 0 0 1 19.968 0 30.05 30.05 0 0 1-9.984 1.775" style="fill:#56b36b"/>
                <path data-name="패스 14814" d="M258.562 189.362a30.025 30.025 0 0 1-1.775 9.984 28.951 28.951 0 0 1 0-19.968 30.025 30.025 0 0 1 1.775 9.984" style="fill:#91d09f"/>
                <path data-name="패스 14815" d="M256.787 191.133a30.05 30.05 0 0 1-9.984-1.775 28.951 28.951 0 0 1 19.968 0 30.05 30.05 0 0 1-9.984 1.775" style="fill:#91d09f"/>
                <path data-name="패스 14816" d="M274.411 129.621a16.924 16.924 0 0 1-1 5.636 16.349 16.349 0 0 1 0-11.271 16.943 16.943 0 0 1 1 5.635" style="fill:#91d09f"/>
                <path data-name="패스 14817" d="M273.409 130.624a16.923 16.923 0 0 1-5.636-1 16.354 16.354 0 0 1 11.273 0 16.933 16.933 0 0 1-5.637 1" style="fill:#91d09f"/>
                <path data-name="패스 14818" d="M324.995 179.377a16.923 16.923 0 0 1-1 5.636 16.349 16.349 0 0 1 0-11.271 16.943 16.943 0 0 1 1 5.635" style="fill:#91d09f"/>
                <path data-name="패스 14819" d="M323.993 180.38a16.949 16.949 0 0 1-5.636-1 16.354 16.354 0 0 1 11.273 0 16.959 16.959 0 0 1-5.637 1" style="fill:#91d09f"/>
                <path data-name="패스 14820" d="M23.216 148.55a16.934 16.934 0 0 1-1 5.637 16.354 16.354 0 0 1 0-11.273 16.923 16.923 0 0 1 1 5.636" style="fill:#91d09f"/>
                <path data-name="패스 14821" d="M22.213 149.551a16.923 16.923 0 0 1-5.636-1 16.352 16.352 0 0 1 11.272 0 16.923 16.923 0 0 1-5.636 1" style="fill:#91d09f"/>
                <path data-name="패스 14822" d="M310.581 144.868a16.924 16.924 0 0 1-1 5.637 16.352 16.352 0 0 1 0-11.272 16.922 16.922 0 0 1 1 5.635" style="fill:#56b36b"/>
                <path data-name="패스 14823" d="M309.578 145.871a16.949 16.949 0 0 1-5.636-1 16.354 16.354 0 0 1 11.273 0 16.959 16.959 0 0 1-5.637 1" style="fill:#56b36b"/>
                <path data-name="패스 14824" d="M247.8 159.823a16.923 16.923 0 0 1-1 5.636 16.352 16.352 0 0 1 0-11.272 16.923 16.923 0 0 1 1 5.636" style="fill:#56b36b"/>
                <path data-name="패스 14825" d="M246.8 160.825a16.923 16.923 0 0 1-5.636-1 16.352 16.352 0 0 1 11.272 0 16.923 16.923 0 0 1-5.636 1" style="fill:#56b36b"/>
                <path data-name="패스 14826" d="M123.064 154.186a16.934 16.934 0 0 1-1 5.637 16.354 16.354 0 0 1 0-11.273 16.924 16.924 0 0 1 1 5.636" style="fill:#91d09f"/>
                <path data-name="패스 14827" d="M122.061 155.188a16.923 16.923 0 0 1-5.636-1 16.375 16.375 0 0 1 11.272 0 16.923 16.923 0 0 1-5.636 1" style="fill:#91d09f"/>
                <path data-name="패스 14828" d="M63.678 170.949a16.923 16.923 0 0 1-1 5.636 16.354 16.354 0 0 1 0-11.273 16.934 16.934 0 0 1 1 5.637" style="fill:#56b36b"/>
                <path data-name="패스 14829" d="M62.676 171.952a16.954 16.954 0 0 1-5.637-1 16.352 16.352 0 0 1 11.272 0 16.918 16.918 0 0 1-5.635 1" style="fill:#56b36b"/>
                <path data-name="패스 14830" d="M78.427 211.334a16.923 16.923 0 0 1-1 5.636 16.351 16.351 0 0 1 0-11.272 16.923 16.923 0 0 1 1 5.636" style="fill:#56b36b"/>
                <path data-name="패스 14831" d="M77.425 212.337a16.955 16.955 0 0 1-5.637-1 16.352 16.352 0 0 1 11.272 0 16.918 16.918 0 0 1-5.635 1" style="fill:#56b36b"/>
                <path data-name="패스 14832" d="M22.216 221.6a16.923 16.923 0 0 1-1 5.636 16.352 16.352 0 0 1 0-11.272 16.923 16.923 0 0 1 1 5.636" style="fill:#91d09f"/>
                <path data-name="패스 14833" d="M21.213 222.606a16.949 16.949 0 0 1-5.636-1 16.352 16.352 0 0 1 11.272 0 16.949 16.949 0 0 1-5.636 1" style="fill:#91d09f"/>
                <path data-name="패스 14834" d="M98.745 180.38a16.924 16.924 0 0 1-1 5.636 16.351 16.351 0 0 1 0-11.272 16.923 16.923 0 0 1 1 5.636" style="fill:#56b36b"/>
                <path data-name="패스 14835" d="M97.742 181.382a16.949 16.949 0 0 1-5.636-1 16.352 16.352 0 0 1 11.272 0 16.949 16.949 0 0 1-5.636 1" style="fill:#56b36b"/>
                <path data-name="패스 14836" d="M349.442 207.636a16.959 16.959 0 0 1-1 5.637 16.366 16.366 0 0 1 0-11.273 16.948 16.948 0 0 1 1 5.636" style="fill:#91d09f"/>
                <path data-name="패스 14837" d="M348.44 208.637a16.929 16.929 0 0 1-5.637-1 16.352 16.352 0 0 1 11.272 0 16.943 16.943 0 0 1-5.635 1" style="fill:#91d09f"/>
                <path data-name="패스 14838" d="M375 311.257H165.795L289.253 187.8 375 273.547z" style="fill:#56b36b"/>
                <path data-name="패스 14839" d="M333.673 311.257H165.8L289.253 187.8z" style="fill:#73be84"/>
                <path data-name="패스 14840" d="M114.9 311.257h113.791l-67.151-67.152-46.64 46.64z" style="fill:#73be84"/>
                <path data-name="패스 14841" d="M137.378 311.257h91.313l-67.152-67.151z" style="fill:#56b36b"/>
                <path data-name="패스 14842" d="M0 311.257h146.49l-86.448-86.448L0 284.851z" style="fill:#73be84"/>
                <path data-name="패스 14843" d="M28.938 311.257h117.553l-86.449-86.448z" style="fill:#56b36b"/>
                <path data-name="패스 14844" d="M251.649 363.271a40.147 40.147 0 0 1 22.909-25.13 15.514 15.514 0 0 1-.3-3.055v-15.465l4.528 4.528a15.464 15.464 0 0 1 21.87 0l4.528-4.528v49.371a34.447 34.447 0 0 1-33.1 34.42v24.75h-22.221V375.13a40.06 40.06 0 0 1 1.786-11.859" style="fill:#418c48"/>
                <path data-name="패스 14845" d="m.082 526.383 307.025-139.06v-8.009L.082 434.68z" style="fill:#418c48"/>
                <path data-name="패스 14846" d="m127.605 422.543 140.324 41.528-1.229 12.29L87.715 446.8z" style="fill:#418c48"/>
                <path data-name="패스 14847" d="m181.325 460.193 47.908 53.5 7.411.117-30.17-50.324z" style="fill:#418c48"/>
                <path data-name="사각형 2876" transform="translate(.061 -.001)" style="fill:#56b36b" d="M0 0h374.939v29.999H0z"/>
                <path data-name="패스 14848" d="M375 61.269H242.375a15.612 15.612 0 0 1 0-31.224H375z" style="fill:#418c48"/>
                <path data-name="패스 14849" d="M237.472 55.817H.061v-30h237.411a15 15 0 0 1 0 30" style="fill:#56b36b"/>
                <path data-name="패스 14850" d="M81.006 69.012H0V116.3h81.006a23.643 23.643 0 1 0 0-47.286" style="fill:#418c48"/>
                <path data-name="패스 14851" d="M288.966 77.9H86.307a15 15 0 0 1 0-30h202.659a15 15 0 0 1 0 30" style="fill:#56b36b"/>
                <path data-name="패스 14853" d="M375 105.834h-76.882a5.855 5.855 0 1 1 0-11.71H375z" style="fill:#418c48"/>
                <path data-name="패스 14854" d="M213.982 107.411H88.683a14.757 14.757 0 1 1 0-29.513h125.3a14.757 14.757 0 1 1 0 29.513" style="fill:#418c48"/>
                <path data-name="패스 14855" d="M180.3 77.9H47.568a11.041 11.041 0 0 1 0-22.081H180.3a11.041 11.041 0 0 1 0 22.081" style="fill:#418c48"/>
                <path data-name="패스 14856" d="M181.16 119.534H102.7a7.98 7.98 0 0 1 0-15.961h78.46a7.98 7.98 0 0 1 0 15.961" style="fill:#418c48"/>
                <path data-name="패스 14857" d="M155.838 125.53h-93.55a14.757 14.757 0 1 1 0-29.513h93.55a14.757 14.757 0 1 1 0 29.513" style="fill:#56b36b"/>
                <path data-name="패스 14858" d="M332.483 86.815H157.928a8.917 8.917 0 1 1 0-17.833h174.555a8.917 8.917 0 1 1 0 17.833" style="fill:#56b36b"/>
                <path data-name="패스 14859" d="M324.3 40.818H375V22.692h-50.7a9.063 9.063 0 0 0 0 18.126" style="fill:#56b36b"/>
                <path data-name="패스 14860" d="M120.46 89.511H56.687a5.806 5.806 0 0 1 0-11.613h63.773a5.806 5.806 0 0 1 0 11.613" style="fill:#56b36b"/>
                <path data-name="패스 14861" d="M324.3 118.105H375V99.979h-50.7a9.063 9.063 0 0 0 0 18.126" style="fill:#56b36b"/>
                <path data-name="패스 14862" d="M50.409 50.856H0v18.126h50.409a9.063 9.063 0 0 0 0-18.126" style="fill:#56b36b"/>
                <path data-name="패스 14863" d="M125.41 117.262a39.655 39.655 0 0 1-33.943-60.145 39.651 39.651 0 1 0 43.991 58.857 39.68 39.68 0 0 1-10.048 1.288" style="fill:#73be84"/>
                <path data-name="패스 14864" d="M90.756 125.859H31.332a7.98 7.98 0 1 1 0-15.961h59.424a7.98 7.98 0 0 1 0 15.961" style="fill:#56b36b"/>
                <path data-name="패스 14865" d="M269.541 115.392h-59.424a7.98 7.98 0 1 1 0-15.961h59.424a7.98 7.98 0 0 1 0 15.961" style="fill:#56b36b"/>
            </g>
        </g>
    </g>
    <path data-name="사각형 2869" style="fill:none" d="M0 0h375v540H0z"/>
</svg>
