<svg xmlns="http://www.w3.org/2000/svg" width="375" height="380" viewBox="0 0 375 380">
    <defs>
        <clipPath id="5x5n36t8la">
            <path data-name="사각형 3025" style="fill:none" d="M0 0h375v340.697H0z"/>
        </clipPath>
    </defs>
    <path data-name="사각형 2874" style="fill:none" d="M0 0h375v380H0z"/>
    <g data-name="그룹 2583">
        <path data-name="사각형 2955" transform="translate(8.203 65.773)" style="fill:#91d09f" d="M0 0h124.516v3.73H0z"/>
        <g data-name="그룹 2582">
            <g data-name="그룹 2581" style="clip-path:url(#5x5n36t8la)" transform="translate(0 39)">
                <path data-name="패스 16024" d="M125.686 50.993H15.237c-1.355 0-2.5-.5-2.652-1.154L8.2 31.917h124.52l-4.382 17.922c-.157.658-1.3 1.154-2.652 1.154" style="fill:#91d09f"/>
                <path data-name="패스 16025" d="M19.794 24.692C17.5 22.4 17.721 18.46 17.721 18.46s3.938-.22 6.232 2.073 2.073 6.232 2.073 6.232-3.939.22-6.232-2.073" style="fill:#418c48"/>
                <path data-name="패스 16026" d="M32.273 24.692c2.293-2.293 2.073-6.232 2.073-6.232s-3.938-.22-6.232 2.073-2.073 6.232-2.073 6.232 3.939.22 6.232-2.073" style="fill:#418c48"/>
                <path data-name="사각형 2956" transform="translate(25.534 12.473)" style="fill:#418c48" d="M0 0h1v14.293H0z"/>
                <path data-name="패스 16027" d="M33.513 7.48c0-.44-1.319-.8-3.058-.882 1.576-.738 2.654-1.582 2.486-1.988s-1.517-.238-3.145.353c1.167-1.279 1.836-2.462 1.526-2.772s-1.5.365-2.787 1.541c.594-1.638.76-3 .353-3.166s-1.241.9-1.974 2.472C26.835 1.308 26.471 0 26.033 0s-.805 1.319-.882 3.059C24.413 1.482 23.57.4 23.163.572s-.238 1.517.353 3.145c-1.279-1.167-2.462-1.836-2.772-1.526s.365 1.5 1.541 2.787c-1.638-.594-3-.76-3.165-.353s.9 1.241 2.471 1.974c-1.729.079-3.038.443-3.038.881s1.319.8 3.059.882c-1.577.738-2.655 1.582-2.486 1.988s1.516.238 3.145-.353c-1.168 1.279-1.837 2.462-1.527 2.772s1.5-.365 2.787-1.541c-.593 1.638-.76 3-.353 3.166s1.241-.9 1.974-2.472c.079 1.73.443 3.038.881 3.038s.8-1.319.882-3.059c.739 1.577 1.582 2.655 1.988 2.486s.239-1.516-.352-3.144c1.278 1.167 2.461 1.836 2.771 1.526s-.365-1.5-1.541-2.787c1.638.593 3 .76 3.166.353s-.9-1.241-2.472-1.974c1.73-.079 3.038-.443 3.038-.881" style="fill:#73be84"/>
                <path data-name="패스 16028" d="M27.124 8.57a1.542 1.542 0 1 1 0-2.181 1.543 1.543 0 0 1 0 2.181" style="fill:#91d09f"/>
                <path data-name="패스 16029" d="M36.431 24.692c-2.293-2.293-2.073-6.232-2.073-6.232s3.938-.22 6.232 2.073 2.073 6.232 2.073 6.232-3.939.22-6.232-2.073" style="fill:#418c48"/>
                <path data-name="패스 16030" d="M48.909 24.692c2.291-2.292 2.073-6.232 2.073-6.232s-3.938-.22-6.232 2.073-2.073 6.232-2.073 6.232 3.939.22 6.232-2.073" style="fill:#418c48"/>
                <path data-name="사각형 2957" transform="translate(42.17 12.473)" style="fill:#418c48" d="M0 0h1v14.293H0z"/>
                <path data-name="패스 16031" d="M50.15 7.48c0-.44-1.319-.8-3.058-.882 1.576-.738 2.654-1.582 2.486-1.988s-1.517-.238-3.145.353C47.6 3.684 48.269 2.5 47.959 2.191s-1.5.365-2.787 1.541c.594-1.638.76-3 .353-3.166s-1.241.9-1.974 2.472C43.472 1.308 43.108 0 42.67 0s-.8 1.319-.882 3.059C41.05 1.482 40.207.4 39.8.572s-.238 1.517.353 3.145c-1.279-1.167-2.462-1.836-2.772-1.526s.365 1.5 1.541 2.787c-1.638-.594-3-.76-3.165-.353s.9 1.241 2.471 1.974c-1.729.079-3.038.443-3.038.881s1.319.8 3.059.882c-1.577.738-2.655 1.582-2.486 1.988s1.516.238 3.145-.353c-1.168 1.279-1.837 2.462-1.527 2.772s1.5-.365 2.787-1.541c-.593 1.638-.76 3-.353 3.166s1.241-.9 1.974-2.472c.079 1.73.443 3.038.881 3.038s.805-1.319.882-3.059c.739 1.577 1.582 2.655 1.988 2.486s.239-1.516-.352-3.144c1.278 1.167 2.461 1.836 2.771 1.526s-.365-1.5-1.541-2.787c1.638.593 3 .76 3.166.353s-.9-1.241-2.472-1.974c1.73-.079 3.038-.443 3.038-.881" style="fill:#73be84"/>
                <path data-name="패스 16032" d="M43.76 8.57a1.542 1.542 0 1 1 0-2.181 1.543 1.543 0 0 1 0 2.181" style="fill:#91d09f"/>
                <path data-name="패스 16033" d="M53.067 24.692c-2.293-2.293-2.073-6.232-2.073-6.232s3.938-.22 6.232 2.073 2.074 6.232 2.074 6.232-3.939.22-6.232-2.073" style="fill:#418c48"/>
                <path data-name="패스 16034" d="M65.546 24.692c2.293-2.293 2.073-6.232 2.073-6.232s-3.938-.22-6.232 2.073-2.073 6.232-2.073 6.232 3.939.22 6.232-2.073" style="fill:#418c48"/>
                <path data-name="사각형 2958" transform="translate(58.806 12.473)" style="fill:#418c48" d="M0 0h1v14.293H0z"/>
                <path data-name="패스 16035" d="M66.786 7.48c0-.44-1.319-.8-3.058-.882 1.572-.738 2.654-1.582 2.486-1.988s-1.517-.238-3.145.353C64.236 3.684 64.9 2.5 64.6 2.191s-1.5.365-2.787 1.541c.594-1.638.76-3 .353-3.166s-1.241.9-1.974 2.472C60.108 1.308 59.744 0 59.306 0s-.805 1.319-.882 3.059C57.686 1.482 56.843.4 56.436.572s-.238 1.517.353 3.145c-1.279-1.167-2.462-1.836-2.772-1.526s.365 1.5 1.541 2.787c-1.638-.594-3-.76-3.165-.353s.9 1.241 2.471 1.974c-1.729.079-3.038.443-3.038.881s1.319.8 3.059.882C53.308 9.1 52.23 9.944 52.4 10.35s1.516.238 3.145-.353c-1.168 1.279-1.837 2.462-1.527 2.772s1.5-.365 2.787-1.541c-.593 1.638-.76 3-.353 3.166s1.241-.9 1.974-2.472c.079 1.73.443 3.038.881 3.038s.805-1.319.882-3.059c.739 1.577 1.582 2.655 1.988 2.486s.239-1.516-.352-3.144c1.278 1.167 2.461 1.836 2.771 1.526s-.365-1.5-1.541-2.787c1.638.593 3 .76 3.166.353s-.9-1.241-2.472-1.974c1.73-.079 3.038-.443 3.038-.881" style="fill:#73be84"/>
                <path data-name="패스 16036" d="M60.4 8.57a1.542 1.542 0 1 1 0-2.181 1.543 1.543 0 0 1 0 2.181" style="fill:#91d09f"/>
                <path data-name="패스 16037" d="M69.7 24.692c-2.29-2.292-2.07-6.232-2.07-6.232s3.938-.22 6.232 2.073 2.073 6.232 2.073 6.232-3.935.22-6.235-2.073" style="fill:#418c48"/>
                <path data-name="패스 16038" d="M82.182 24.692c2.293-2.293 2.073-6.232 2.073-6.232s-3.938-.22-6.232 2.073-2.073 6.232-2.073 6.232 3.939.22 6.232-2.073" style="fill:#418c48"/>
                <path data-name="사각형 2959" transform="translate(75.443 12.473)" style="fill:#418c48" d="M0 0h1v14.293H0z"/>
                <path data-name="패스 16039" d="M83.423 7.48c0-.44-1.319-.8-3.058-.882 1.576-.738 2.654-1.582 2.486-1.988s-1.517-.238-3.145.353c1.167-1.279 1.836-2.462 1.526-2.772s-1.5.365-2.787 1.541c.594-1.638.76-3 .353-3.166s-1.241.9-1.974 2.472C76.745 1.308 76.381 0 75.943 0s-.805 1.319-.882 3.059C74.323 1.482 73.48.4 73.073.572s-.238 1.517.353 3.145c-1.279-1.167-2.462-1.836-2.772-1.526s.365 1.5 1.541 2.787c-1.638-.594-3-.76-3.165-.353s.9 1.241 2.471 1.974c-1.729.079-3.038.443-3.038.881s1.319.8 3.059.882c-1.577.738-2.655 1.582-2.486 1.988s1.516.238 3.145-.353c-1.168 1.279-1.837 2.462-1.527 2.772s1.5-.365 2.787-1.541c-.593 1.638-.76 3-.353 3.166s1.241-.9 1.974-2.472c.079 1.73.443 3.038.881 3.038s.805-1.319.882-3.059c.739 1.577 1.582 2.655 1.988 2.486s.239-1.516-.352-3.144c1.278 1.167 2.461 1.836 2.771 1.526s-.365-1.5-1.541-2.787c1.638.593 3 .76 3.166.353s-.9-1.241-2.472-1.974c1.73-.079 3.038-.443 3.038-.881" style="fill:#73be84"/>
                <path data-name="패스 16040" d="M77.033 8.57a1.542 1.542 0 1 1 0-2.181 1.543 1.543 0 0 1 0 2.181" style="fill:#91d09f"/>
                <path data-name="패스 16041" d="M86.34 24.692c-2.293-2.293-2.073-6.232-2.073-6.232s3.938-.22 6.232 2.073 2.073 6.232 2.073 6.232-3.939.22-6.232-2.073" style="fill:#418c48"/>
                <path data-name="패스 16042" d="M98.819 24.692c2.293-2.293 2.073-6.232 2.073-6.232s-3.938-.22-6.232 2.073-2.073 6.232-2.073 6.232 3.939.22 6.232-2.073" style="fill:#418c48"/>
                <path data-name="사각형 2960" transform="translate(92.08 12.473)" style="fill:#418c48" d="M0 0h1v14.293H0z"/>
                <path data-name="패스 16043" d="M100.059 7.48c0-.44-1.319-.8-3.058-.882 1.576-.738 2.654-1.582 2.486-1.988s-1.517-.238-3.145.353c1.167-1.279 1.836-2.462 1.526-2.772s-1.5.365-2.787 1.541c.594-1.638.76-3 .353-3.166s-1.241.9-1.974 2.472C93.381 1.308 93.017 0 92.579 0s-.805 1.319-.882 3.059C90.959 1.482 90.116.4 89.709.572s-.238 1.517.353 3.145C88.783 2.55 87.6 1.881 87.29 2.191s.365 1.5 1.541 2.787c-1.638-.594-3-.76-3.165-.353s.9 1.241 2.471 1.974c-1.729.079-3.038.443-3.038.881s1.319.8 3.059.882c-1.577.738-2.658 1.582-2.486 1.988s1.516.238 3.145-.353c-1.168 1.279-1.837 2.462-1.527 2.772s1.5-.365 2.787-1.541c-.593 1.638-.76 3-.353 3.166s1.241-.9 1.974-2.472c.079 1.73.443 3.038.881 3.038s.805-1.319.882-3.059c.739 1.577 1.582 2.655 1.988 2.486s.239-1.516-.352-3.144c1.278 1.167 2.461 1.836 2.771 1.526s-.365-1.5-1.541-2.787c1.638.593 3 .76 3.166.353s-.9-1.241-2.472-1.974c1.73-.079 3.038-.443 3.038-.881" style="fill:#73be84"/>
                <path data-name="패스 16044" d="M93.67 8.57a1.542 1.542 0 1 1 0-2.181 1.543 1.543 0 0 1 0 2.181" style="fill:#91d09f"/>
                <path data-name="패스 16045" d="M102.976 24.692c-2.293-2.292-2.076-6.232-2.076-6.232s3.938-.22 6.232 2.073 2.073 6.232 2.073 6.232-3.939.22-6.232-2.073" style="fill:#418c48"/>
                <path data-name="패스 16046" d="M115.455 24.692c2.293-2.293 2.073-6.232 2.073-6.232s-3.938-.22-6.232 2.073-2.073 6.232-2.073 6.232 3.939.22 6.232-2.073" style="fill:#418c48"/>
                <path data-name="사각형 2961" transform="translate(108.715 12.473)" style="fill:#418c48" d="M0 0h1v14.293H0z"/>
                <path data-name="패스 16047" d="M116.7 7.48c0-.44-1.319-.8-3.058-.882 1.576-.738 2.654-1.582 2.486-1.988s-1.517-.238-3.145.353c1.167-1.279 1.836-2.462 1.526-2.772s-1.5.365-2.787 1.541c.594-1.638.76-3 .353-3.166s-1.241.9-1.974 2.472c-.079-1.73-.443-3.038-.881-3.038s-.805 1.319-.882 3.059C107.6 1.482 106.753.4 106.346.572s-.238 1.517.353 3.145c-1.279-1.167-2.462-1.836-2.772-1.526s.365 1.5 1.541 2.787c-1.638-.594-3-.76-3.165-.353s.9 1.241 2.471 1.974c-1.729.079-3.038.443-3.038.881s1.319.8 3.059.882c-1.577.738-2.655 1.582-2.486 1.988s1.516.238 3.145-.353c-1.168 1.279-1.837 2.462-1.527 2.772s1.5-.365 2.787-1.541c-.593 1.638-.76 3-.353 3.166s1.241-.9 1.974-2.472c.079 1.73.443 3.038.881 3.038s.805-1.319.882-3.059c.739 1.577 1.582 2.655 1.988 2.486s.239-1.516-.352-3.144c1.278 1.167 2.461 1.836 2.771 1.526s-.365-1.5-1.541-2.787c1.638.593 3 .76 3.166.353s-.9-1.241-2.472-1.974c1.73-.079 3.038-.443 3.038-.881" style="fill:#73be84"/>
                <path data-name="패스 16048" d="M110.306 8.57a1.542 1.542 0 1 1 0-2.181 1.543 1.543 0 0 1 0 2.181" style="fill:#91d09f"/>
                <path data-name="패스 16049" d="M119.613 24.692c-2.293-2.293-2.073-6.232-2.073-6.232s3.938-.22 6.232 2.073 2.073 6.232 2.073 6.232-3.939.22-6.232-2.073" style="fill:#418c48"/>
                <path data-name="패스 16050" d="M132.092 24.692c2.293-2.293 2.073-6.232 2.073-6.232s-3.938-.22-6.232 2.073-2.073 6.232-2.073 6.232 3.938.22 6.232-2.073" style="fill:#418c48"/>
                <path data-name="사각형 2962" transform="translate(125.352 12.473)" style="fill:#418c48" d="M0 0h1v14.293H0z"/>
                <path data-name="패스 16051" d="M133.332 7.48c0-.44-1.319-.8-3.058-.882 1.576-.738 2.654-1.582 2.486-1.988s-1.517-.238-3.145.353c1.167-1.279 1.836-2.462 1.526-2.772s-1.5.365-2.787 1.541c.594-1.638.76-3 .353-3.166s-1.241.9-1.974 2.472c-.079-1.73-.443-3.038-.881-3.038s-.805 1.319-.882 3.059c-.738-1.577-1.581-2.659-1.988-2.487s-.238 1.517.353 3.145c-1.279-1.167-2.462-1.836-2.772-1.526s.365 1.5 1.541 2.787c-1.638-.594-3-.76-3.165-.353s.9 1.241 2.471 1.974c-1.729.079-3.038.443-3.038.881s1.319.8 3.059.882c-1.577.738-2.655 1.582-2.486 1.988s1.516.238 3.145-.353c-1.168 1.279-1.837 2.462-1.527 2.772s1.5-.365 2.787-1.541c-.593 1.638-.76 3-.353 3.166s1.241-.9 1.974-2.472c.079 1.73.443 3.038.881 3.038s.805-1.319.882-3.059c.739 1.577 1.582 2.655 1.988 2.486s.239-1.516-.352-3.144c1.278 1.167 2.461 1.836 2.771 1.526s-.365-1.5-1.541-2.787c1.638.593 3 .76 3.166.353s-.9-1.241-2.472-1.974c1.73-.079 3.038-.443 3.038-.881" style="fill:#73be84"/>
                <path data-name="패스 16052" d="M126.942 8.57a1.542 1.542 0 1 1 0-2.181 1.543 1.543 0 0 1 0 2.181" style="fill:#91d09f"/>
                <path data-name="패스 16053" d="M238.809 149.538c3.649 0 6.607 3.309 6.607 3.309s-2.958 3.308-6.607 3.308-6.607-3.308-6.607-3.308 2.958-3.309 6.607-3.309" style="fill:#73be84"/>
                <path data-name="패스 16054" d="M232.2 157.761c3.649 0 6.607 3.309 6.607 3.309s-2.958 3.308-6.607 3.308-6.607-3.308-6.607-3.308 2.958-3.309 6.607-3.309" style="fill:#73be84"/>
                <path data-name="패스 16055" d="M223.307 138.1c2.58-2.58 7.012-2.333 7.012-2.333s.247 4.432-2.333 7.012-7.012 2.333-7.012 2.333-.247-4.432 2.333-7.012" style="fill:#73be84"/>
                <path data-name="패스 16056" d="M205.6 140.22c-2.58 2.58-7.012 2.333-7.012 2.333s-.247-4.432 2.333-7.012 7.012-2.333 7.012-2.333.247 4.432-2.333 7.012" style="fill:#73be84"/>
                <path data-name="패스 16057" d="M111.648 184.752h-.885v-42.3a17.117 17.117 0 0 1 17.1-17.1h74.524a10.872 10.872 0 0 1 10.859 10.859 16.239 16.239 0 0 0 16.221 16.221h9.345v.884h-9.345a17.125 17.125 0 0 1-17.106-17.105 9.985 9.985 0 0 0-9.974-9.974h-74.526a16.231 16.231 0 0 0-16.213 16.213z" style="fill:#418c48"/>
                <path data-name="패스 16058" d="M236.125 212.021c-2.58-2.58-2.333-7.012-2.333-7.012s4.432-.247 7.012 2.333 2.333 7.012 2.333 7.012-4.432.247-7.012-2.333" style="fill:#73be84"/>
                <path data-name="패스 16059" d="M125.463 189.659h-29.78l-.849-4.907h31.478z" style="fill:#91d09f"/>
                <path data-name="패스 16060" d="M120.787 207.224h-20.735l-2.67-16.724h26.075z" style="fill:#91d09f"/>
                <path data-name="패스 16061" d="m95.05 207.885.387 2.115a.746.746 0 0 0 .737.631h28.5a.744.744 0 0 0 .736-.631l.388-2.118z" style="fill:#91d09f"/>
                <path data-name="패스 16062" d="M247.79 201.03h-21.365a14.256 14.256 0 0 1-14.24-14.24v-8.321a13.371 13.371 0 0 0-13.355-13.355h-14.1a14.255 14.255 0 0 1-14.239-14.24v-24.64h-16.384v-.884h17.27v25.524a13.37 13.37 0 0 0 13.355 13.356h14.1a14.256 14.256 0 0 1 14.24 14.239v8.321a13.37 13.37 0 0 0 13.355 13.355h21.363z" style="fill:#418c48"/>
                <path data-name="패스 16063" d="M202.33 185.2h-8.569a10.974 10.974 0 0 1-10.961-10.967v-9.56h.884v9.56a10.088 10.088 0 0 0 10.077 10.077h8.569z" style="fill:#418c48"/>
                <path data-name="패스 16064" d="M192.308 253.271h-1.722v-.885h1.722a13.614 13.614 0 0 0 13.6-13.6v-14.111a13.614 13.614 0 0 0-13.6-13.6h-28.065a13.859 13.859 0 0 1-13.843-13.842v-12.481a13.984 13.984 0 0 0-13.968-13.968h-2.072a13.984 13.984 0 0 0-13.968 13.968h-.884A14.87 14.87 0 0 1 134.36 169.9h2.072a14.87 14.87 0 0 1 14.853 14.853v12.481a12.973 12.973 0 0 0 12.958 12.959h28.065a14.5 14.5 0 0 1 14.483 14.483v14.113a14.5 14.5 0 0 1-14.483 14.483" style="fill:#418c48"/>
                <path data-name="패스 16065" d="M171.915 268.09h-6.254a15.261 15.261 0 0 1 0-30.522h6.782a14.392 14.392 0 0 0 14.376-14.376v-12.558h.884v12.558a15.277 15.277 0 0 1-15.26 15.261h-6.782a14.376 14.376 0 1 0 0 28.752h6.254z" style="fill:#418c48"/>
                <path data-name="패스 16066" d="M163.608 185.446c0-3.649 3.309-6.607 3.309-6.607s3.308 2.958 3.308 6.607-3.308 6.607-3.308 6.607-3.309-2.958-3.309-6.607" style="fill:#73be84"/>
                <path data-name="패스 16067" d="M147.534 275.462c0-3.649 3.309-6.607 3.309-6.607s3.308 2.958 3.308 6.607-3.308 6.607-3.308 6.607-3.309-2.958-3.309-6.607" style="fill:#73be84"/>
                <path data-name="패스 16068" d="M173.4 188.98c2.58-2.58 7.012-2.333 7.012-2.333s.247 4.432-2.333 7.012-7.012 2.333-7.012 2.333-.247-4.432 2.333-7.012" style="fill:#73be84"/>
                <path data-name="패스 16069" d="M161.881 193.221c-2.58-2.58-7.012-2.333-7.012-2.333s-.247 4.432 2.333 7.012 7.012 2.333 7.012 2.333.247-4.432-2.333-7.012" style="fill:#73be84"/>
                <path data-name="사각형 2963" transform="translate(166.474 183.521)" style="fill:#418c48" d="M0 0h.885v27.114H0z"/>
                <path data-name="사각형 2964" transform="rotate(-46.3 316.577 -95.121)" style="fill:#418c48" d="M0 0h11.728v.884H0z"/>
                <path data-name="사각형 2965" transform="rotate(-43.68 322.876 -100.093)" style="fill:#418c48" d="M0 0h.884v11.728H0z"/>
                <path data-name="패스 16070" d="M140.441 187.309c0 2.464-2.234 4.462-2.234 4.462s-2.234-2-2.234-4.462 2.234-4.462 2.234-4.462 2.234 2 2.234 4.462" style="fill:#73be84"/>
                <path data-name="패스 16071" d="M134.317 184.922c-1.742 1.742-4.735 1.575-4.735 1.575s-.167-2.992 1.575-4.735 4.735-1.575 4.735-1.575.167 2.993-1.575 4.735" style="fill:#73be84"/>
                <path data-name="패스 16072" d="M142.1 182.059c1.742 1.742 4.735 1.575 4.735 1.575s.167-2.992-1.575-4.735-4.735-1.575-4.735-1.575-.167 2.993 1.575 4.735" style="fill:#73be84"/>
                <path data-name="사각형 2966" transform="translate(137.764 170.3)" style="fill:#418c48" d="M0 0h.885v18.309H0z"/>
                <path data-name="사각형 2967" transform="rotate(-46.3 280.246 -63.375)" style="fill:#418c48" d="M0 0h7.919v.884H0z"/>
                <path data-name="사각형 2968" transform="rotate(-43.7 287.673 -84.228)" style="fill:#418c48" d="M0 0h.884v7.919H0z"/>
                <path data-name="패스 16073" d="M223.492 219.839c2.463 0 4.461 2.234 4.461 2.234s-2 2.234-4.461 2.234-4.463-2.234-4.463-2.234 2-2.234 4.463-2.234" style="fill:#73be84"/>
                <path data-name="패스 16074" d="M221.1 225.963c1.742 1.742 1.575 4.735 1.575 4.735s-2.992.167-4.735-1.575-1.575-4.735-1.575-4.735 2.993-.167 4.735 1.575" style="fill:#73be84"/>
                <path data-name="패스 16075" d="M218.241 218.183c1.742-1.742 1.575-4.735 1.575-4.735s-2.992-.167-4.735 1.575-1.575 4.735-1.575 4.735 2.993.167 4.735-1.575" style="fill:#73be84"/>
                <path data-name="사각형 2969" transform="translate(206.482 221.63)" style="fill:#418c48" d="M0 0h18.31v.885H0z"/>
                <path data-name="사각형 2970" transform="rotate(-46.315 366.72 -138.373)" style="fill:#418c48" d="M0 0h.886v7.92H0z"/>
                <path data-name="사각형 2971" transform="rotate(-43.72 381.885 -152.121)" style="fill:#418c48" d="M0 0h7.92v.886H0z"/>
                <path data-name="패스 16076" d="M171.991 281.094c0-2.464 2.234-4.462 2.234-4.462s2.234 2 2.234 4.462-2.234 4.462-2.234 4.462-2.234-2-2.234-4.462" style="fill:#73be84"/>
                <path data-name="패스 16077" d="M178.115 283.481c1.742-1.742 4.735-1.575 4.735-1.575s.167 2.992-1.575 4.735-4.735 1.575-4.735 1.575-.167-2.993 1.575-4.735" style="fill:#73be84"/>
                <path data-name="패스 16078" d="M170.335 286.344c-1.742-1.742-4.735-1.575-4.735-1.575s-.167 2.992 1.575 4.735 4.735 1.575 4.735 1.575.167-2.993-1.575-4.735" style="fill:#73be84"/>
                <path data-name="사각형 2972" transform="translate(173.783 279.794)" style="fill:#418c48" d="M0 0h.885v15.816H0z"/>
                <path data-name="사각형 2973" transform="rotate(-46.3 426.64 -58.191)" style="fill:#418c48" d="M0 0h7.919v.884H0z"/>
                <path data-name="사각형 2974" transform="rotate(-43.7 443.067 -66.145)" style="fill:#418c48" d="M0 0h.884v7.919H0z"/>
                <path data-name="패스 16079" d="M128.675 247.462c-3.649 0-6.607-3.309-6.607-3.309s2.958-3.308 6.607-3.308 6.607 3.308 6.607 3.308-2.958 3.309-6.607 3.309" style="fill:#73be84"/>
                <path data-name="패스 16080" d="M132.209 238.394c-2.58-2.58-2.333-7.012-2.333-7.012s4.432-.247 7.012 2.333 2.333 7.012 2.333 7.012-4.432.247-7.012-2.333" style="fill:#73be84"/>
                <path data-name="패스 16081" d="M136.449 249.914c-2.58 2.58-2.333 7.012-2.333 7.012s4.432.247 7.012-2.333 2.333-7.012 2.333-7.012-4.432-.247-7.012 2.333" style="fill:#73be84"/>
                <path data-name="사각형 2975" transform="translate(126.749 243.711)" style="fill:#418c48" d="M0 0h27.114v.885H0z"/>
                <path data-name="사각형 2976" transform="rotate(-46.32 343.404 -38.72)" style="fill:#418c48" d="M0 0h.886v11.728H0z"/>
                <path data-name="사각형 2977" transform="rotate(-43.72 382.941 -45.9)" style="fill:#418c48" d="M0 0h11.728v.886H0z"/>
                <path data-name="패스 16082" d="M150.02 150.191c2.58-2.58 7.012-2.333 7.012-2.333s.247 4.432-2.333 7.012-7.012 2.333-7.012 2.333-.247-4.432 2.333-7.012" style="fill:#73be84"/>
                <path data-name="패스 16083" d="M153.934 159.1c3.648 0 6.606 3.309 6.606 3.309s-2.958 3.308-6.606 3.308-6.608-3.308-6.608-3.308 2.959-3.309 6.608-3.309" style="fill:#73be84"/>
                <path data-name="패스 16084" d="M142.788 153.955c0-3.649-3.309-6.607-3.309-6.607s-3.308 2.958-3.308 6.607 3.308 6.607 3.308 6.607 3.309-2.958 3.309-6.607" style="fill:#73be84"/>
                <path data-name="사각형 2978" transform="rotate(-45 272.36 -77.021)" style="fill:#418c48" d="M0 0h27.114v.885H0z"/>
                <path data-name="사각형 2979" transform="matrix(1 -.024 .024 1 142.198 162.243)" style="fill:#418c48" d="M0 0h11.728v.885H0z"/>
                <path data-name="사각형 2980" transform="rotate(-88.641 154.2 11.371)" style="fill:#418c48" d="M0 0h11.728v.885H0z"/>
                <path data-name="패스 16085" d="M232.689 176.792c2.58-2.58 7.012-2.333 7.012-2.333s.247 4.432-2.333 7.012-7.012 2.333-7.012 2.333-.247-4.432 2.333-7.012" style="fill:#73be84"/>
                <path data-name="패스 16086" d="M236.6 185.7c3.649 0 6.607 3.309 6.607 3.309s-2.958 3.308-6.607 3.308-6.6-3.304-6.6-3.304 2.958-3.309 6.607-3.309" style="fill:#73be84"/>
                <path data-name="패스 16087" d="M225.458 180.556c0-3.649-3.309-6.607-3.309-6.607s-3.308 2.958-3.308 6.607 3.308 6.607 3.308 6.607 3.309-2.958 3.309-6.607" style="fill:#73be84"/>
                <path data-name="사각형 2981" transform="rotate(-45 345.806 -163.512)" style="fill:#418c48" d="M0 0h27.114v.884H0z"/>
                <path data-name="사각형 2982" transform="matrix(1 -.024 .024 1 224.868 188.844)" style="fill:#418c48" d="M0 0h11.728v.885H0z"/>
                <path data-name="사각형 2983" transform="rotate(-88.641 209.154 -17.655)" style="fill:#418c48" d="M0 0h11.728v.885H0z"/>
                <path data-name="패스 16088" d="M185.687 143.741c1.885 1.885 1.7 5.122 1.7 5.122s-3.237.181-5.122-1.7-1.7-5.122-1.7-5.122 3.237-.181 5.122 1.7" style="fill:#73be84"/>
                <path data-name="패스 16089" d="M179.177 146.6c0 2.666-2.417 4.828-2.417 4.828s-2.417-2.162-2.417-4.828 2.417-4.827 2.417-4.827 2.417 2.162 2.417 4.827" style="fill:#73be84"/>
                <path data-name="패스 16090" d="M182.938 138.459c2.666 0 4.827-2.417 4.827-2.417s-2.161-2.417-4.827-2.417-4.827 2.417-4.827 2.417 2.161 2.417 4.827 2.417" style="fill:#73be84"/>
                <path data-name="패스 16091" d="M202.658 156.981c1.885-1.885 1.7-5.122 1.7-5.122s-3.237-.181-5.122 1.7-1.7 5.122-1.7 5.122 3.237.181 5.122-1.7" style="fill:#73be84"/>
                <path data-name="패스 16092" d="M188.57 157.144c-1.885-1.885-1.7-5.122-1.7-5.122s3.237-.181 5.122 1.7 1.7 5.122 1.7 5.122-3.237.181-5.122-1.7" style="fill:#73be84"/>
                <path data-name="사각형 2984" transform="rotate(-45 245.573 -139.622)" style="fill:#418c48" d="M0 0h.884v19.808H0z"/>
                <path data-name="사각형 2985" transform="matrix(1 -.023 .023 1 176.12 138.045)" style="fill:#418c48" d="M0 0h.885v8.568H0z"/>
                <path data-name="사각형 2986" transform="rotate(-88.682 157.215 -21.07)" style="fill:#418c48" d="M0 0h.885v8.568H0z"/>
                <path data-name="패스 16093" d="M86.4 155.956c-2.58-2.58-2.333-7.012-2.333-7.012s4.432-.247 7.012 2.333 2.333 7.012 2.333 7.012-4.432.247-7.012-2.333" style="fill:#73be84"/>
                <path data-name="패스 16094" d="M95.308 152.042c0-3.649 3.309-6.607 3.309-6.607s3.308 2.958 3.308 6.607-3.308 6.607-3.308 6.607-3.309-2.958-3.309-6.607" style="fill:#73be84"/>
                <path data-name="패스 16095" d="M90.16 163.187c-3.649 0-6.607 3.309-6.607 3.309s2.958 3.308 6.607 3.308 6.607-3.308 6.607-3.308-2.958-3.309-6.607-3.309" style="fill:#73be84"/>
                <path data-name="패스 16096" d="M111.648 184.752h-.885a20.343 20.343 0 0 0-6-14.482l-17.7-17.7.625-.625 17.7 17.7a21.225 21.225 0 0 1 6.258 15.107" style="fill:#418c48"/>
                <path data-name="사각형 2987" transform="rotate(-1.319 6653.795 -4188.346)" style="fill:#418c48" d="M0 0h.885v11.728H0z"/>
                <path data-name="사각형 2988" transform="rotate(-88.681 130.072 37.348)" style="fill:#418c48" d="M0 0h.885v11.728H0z"/>
                <path data-name="사각형 2989" transform="rotate(-45 255.128 -184.956)" style="fill:#418c48" d="M0 0h25.036v.884H0z"/>
                <path data-name="패스 16097" d="M224.5 112.54c2.58-2.58 2.333-7.012 2.333-7.012s-4.432-.247-7.012 2.333-2.333 7.012-2.333 7.012 4.432.247 7.012-2.333" style="fill:#73be84"/>
                <path data-name="패스 16098" d="M215.59 108.626c0-3.648-3.309-6.606-3.309-6.606s-3.308 2.958-3.308 6.606 3.308 6.608 3.308 6.608 3.309-2.959 3.309-6.608" style="fill:#73be84"/>
                <path data-name="패스 16099" d="M220.738 119.771c3.649 0 6.607 3.309 6.607 3.309s-2.958 3.308-6.607 3.308-6.607-3.308-6.607-3.308 2.958-3.309 6.607-3.309" style="fill:#73be84"/>
                <path data-name="사각형 2990" transform="rotate(-88.641 167.398 -48.152)" style="fill:#418c48" d="M0 0h11.728v.885H0z"/>
                <path data-name="사각형 2991" transform="matrix(1 -.024 .024 1 209.414 122.5)" style="fill:#418c48" d="M0 0h11.728v.885H0z"/>
                <path data-name="패스 16100" d="M246.314 197.279c3.649 0 6.607 3.31 6.607 3.31s-2.958 3.307-6.607 3.307-6.607-3.307-6.607-3.307 2.958-3.31 6.607-3.31" style="fill:#73be84"/>
                <path data-name="패스 16101" d="M171.991 264.318c3.649 0 6.607 3.309 6.607 3.309s-2.958 3.308-6.607 3.308-6.607-3.308-6.607-3.308 2.958-3.309 6.607-3.309" style="fill:#73be84"/>
                <path data-name="패스 16102" d="M179.177 320.1c3.649 0 6.607 3.309 6.607 3.309s-2.958 3.308-6.607 3.308-6.607-3.308-6.607-3.308 2.958-3.309 6.607-3.309" style="fill:#73be84"/>
                <path data-name="패스 16103" d="M201.922 181.444c3.649 0 6.607 3.309 6.607 3.309s-2.958 3.308-6.607 3.308-6.607-3.308-6.607-3.308 2.958-3.309 6.607-3.309" style="fill:#73be84"/>
                <path data-name="패스 16104" d="M192.786 172.35c3.649 0 6.607 3.309 6.607 3.309s-2.958 3.308-6.607 3.308-6.607-3.308-6.607-3.308 2.958-3.309 6.607-3.309" style="fill:#73be84"/>
                <path data-name="패스 16105" d="M192.129 193.248c0 3.649-3.309 6.607-3.309 6.607s-3.308-2.958-3.308-6.607 3.308-6.607 3.308-6.607 3.309 2.958 3.309 6.607" style="fill:#73be84"/>
                <path data-name="사각형 2992" transform="rotate(-45 287.294 -188.7)" style="fill:#418c48" d="M0 0h10.968v.884H0z"/>
                <path data-name="패스 16106" d="M192.781 285.862c-2.58-2.58-2.333-7.012-2.333-7.012s4.432-.247 7.012 2.333 2.333 7.012 2.333 7.012-4.432.247-7.012-2.333" style="fill:#73be84"/>
                <path data-name="사각형 2993" transform="rotate(-45 440.023 -93.237)" style="fill:#418c48" d="M0 0h.884v10.968H0z"/>
                <path data-name="패스 16107" d="M171.5 334.09c0 3.649-3.309 6.607-3.309 6.607s-3.308-2.958-3.308-6.607 3.308-6.607 3.308-6.607 3.309 2.958 3.309 6.607" style="fill:#73be84"/>
                <path data-name="선 192" transform="translate(168.193 323.122)" style="stroke:#418c48;stroke-miterlimit:10;fill:none" d="M0 0v10.968"/>
                <path data-name="패스 16108" d="M148.481 298.3c-2.58-2.58-2.333-7.012-2.333-7.012s4.432-.247 7.012 2.333 2.333 7.012 2.333 7.012-4.432.247-7.012-2.333" style="fill:#73be84"/>
                <path data-name="사각형 2994" transform="rotate(-44.996 432.916 -33.563)" style="fill:#418c48" d="M0 0h.884v10.968H0z"/>
                <path data-name="패스 16109" d="M162.348 254.593c2.58-2.58 7.012-2.333 7.012-2.333s.247 4.432-2.333 7.012-7.012 2.333-7.012 2.333-.247-4.432 2.333-7.012" style="fill:#73be84"/>
                <path data-name="사각형 2995" transform="rotate(-45 397.439 -56.87)" style="fill:#418c48" d="M0 0h10.968v.884H0z"/>
                <path data-name="패스 16110" d="M176.293 220.648c-3.649 0-6.607-3.309-6.607-3.309s2.958-3.308 6.607-3.308 6.607 3.308 6.607 3.308-2.958 3.309-6.607 3.309" style="fill:#73be84"/>
                <path data-name="사각형 2996" transform="translate(176.293 216.897)" style="fill:#418c48" d="M0 0h10.968v.885H0z"/>
                <path data-name="패스 16111" d="M200.933 266.887c-2.58 2.58-7.012 2.333-7.012 2.333s-.247-4.432 2.333-7.012 7.012-2.333 7.012-2.333.247 4.432-2.333 7.012" style="fill:#73be84"/>
                <path data-name="사각형 2997" transform="rotate(-45 418.1 -107.229)" style="fill:#418c48" d="M0 0h10.968v.884H0z"/>
                <path data-name="사각형 2998" transform="rotate(-45 267.533 -176.196)" style="fill:#418c48" d="M0 0h10.968v.884H0z"/>
                <path data-name="패스 16112" d="M232.2 161.515h-5.855a5.646 5.646 0 0 1-5.639-5.639v-4.886h.885v4.886a4.76 4.76 0 0 0 4.754 4.754h5.855z" style="fill:#418c48"/>
                <path data-name="패스 16113" d="M196.242 164.672h-.885v-3.717l-5.208-4.593.585-.663 5.508 4.857z" style="fill:#418c48"/>
                <path data-name="사각형 2999" transform="rotate(-45 291.416 -155.753)" style="fill:#418c48" d="M0 0h7.281v.884H0z"/>
                <path data-name="패스 16114" d="M175.051 230.094c1.885-1.885 1.7-5.122 1.7-5.122s-3.237-.181-5.122 1.7-1.7 5.122-1.7 5.122 3.237.181 5.122-1.7" style="fill:#73be84"/>
                <path data-name="패스 16115" d="M160.963 230.257c-1.885-1.885-1.7-5.122-1.7-5.122s3.237-.181 5.122 1.7 1.7 5.122 1.7 5.122-3.237.181-5.122-1.7" style="fill:#73be84"/>
                <path data-name="패스 16116" d="M168.636 237.784h-.885v-3.717l-5.208-4.593.585-.663 5.508 4.857z" style="fill:#418c48"/>
                <path data-name="사각형 3000" transform="rotate(-45 365.866 -85.873)" style="fill:#418c48" d="M0 0h7.281v.884H0z"/>
                <path data-name="사각형 3001" transform="translate(188.377 183.521)" style="fill:#418c48" d="M0 0h.885v8.8H0z"/>
                <path data-name="패스 16117" d="M197.388 235.236c-2.58-2.58-2.333-7.012-2.333-7.012s4.432-.247 7.012 2.333 2.333 7.012 2.333 7.012-4.432.247-7.012-2.333" style="fill:#73be84"/>
                <path data-name="사각형 3002" transform="rotate(-45.005 382.3 -124.544)" style="fill:#418c48" d="M0 0h.884v8.437H0z"/>
                <path data-name="패스 16118" d="M181.625 248.547c-2.58-2.58-2.333-7.012-2.333-7.012s4.432-.247 7.012 2.333 2.333 7.012 2.333 7.012-4.432.247-7.012-2.333" style="fill:#73be84"/>
                <path data-name="사각형 3003" transform="rotate(-45.005 390.486 -98.862)" style="fill:#418c48" d="M0 0h.884v8.437H0z"/>
                <path data-name="패스 16119" d="M186.3 261.79c-2.58 2.58-7.012 2.333-7.012 2.333s-.247-4.432 2.333-7.012 7.012-2.333 7.012-2.333.247 4.432-2.333 7.012" style="fill:#73be84"/>
                <path data-name="사각형 3004" transform="rotate(-45 404.17 -93.237)" style="fill:#418c48" d="M0 0h8.437v.884H0z"/>
                <path data-name="사각형 3005" transform="translate(183.341 175.216)" style="fill:#418c48" d="M0 0h9.445v.885H0z"/>
                <path data-name="패스 16120" d="M127.27 136.866c2.58 2.58 2.333 7.012 2.333 7.012s-4.432.247-7.012-2.333-2.333-7.012-2.333-7.012 4.432-.247 7.012 2.333" style="fill:#73be84"/>
                <path data-name="사각형 3006" transform="rotate(-45 216.17 -74.596)" style="fill:#418c48" d="M0 0h.884v12.08H0z"/>
                <path data-name="사각형 3007" transform="rotate(-45 356.793 -175.261)" style="fill:#418c48" d="M0 0h.884v14.208H0z"/>
                <path data-name="사각형 3008" transform="translate(150.4 252.829)" style="fill:#418c48" d="M0 0h.885v25.032H0z"/>
                <path data-name="패스 16121" d="M178.47 323.848h-7.535a14.34 14.34 0 0 1 0-28.68l21.522.287A13.47 13.47 0 0 0 205.907 282v-50.2h.884V282a14.356 14.356 0 0 1-14.34 14.34l-21.522-.287a13.455 13.455 0 0 0 .006 26.91h7.535z" style="fill:#418c48"/>
                <path data-name="패스 16122" d="M151.662 105.641c2.58-2.58 7.012-2.333 7.012-2.333s.247 4.432-2.333 7.012-7.012 2.333-7.012 2.333-.247-4.432 2.333-7.012" style="fill:#73be84"/>
                <path data-name="패스 16123" d="M155.576 114.553c3.649 0 6.607 3.309 6.607 3.309s-2.958 3.308-6.607 3.308-6.607-3.308-6.607-3.308 2.958-3.309 6.607-3.309" style="fill:#73be84"/>
                <path data-name="패스 16124" d="M144.431 109.4c0-3.649-3.309-6.607-3.309-6.607s-3.308 2.958-3.308 6.607 3.308 6.607 3.308 6.607 3.309-2.958 3.309-6.607" style="fill:#73be84"/>
                <path data-name="사각형 3009" transform="rotate(-45 219.406 -101.28)" style="fill:#418c48" d="M0 0h27.114v.884H0z"/>
                <path data-name="사각형 3010" transform="matrix(1 -.024 .024 1 143.84 117.693)" style="fill:#418c48" d="M0 0h11.728v.885H0z"/>
                <path data-name="사각형 3011" transform="rotate(-88.641 132.212 -11.745)" style="fill:#418c48" d="M0 0h11.728v.885H0z"/>
                <path data-name="패스 16125" d="M0 50.993h141.763v5.135a3.637 3.637 0 0 1-3.637 3.637h-25.184V70.15h-5.385V59.765H0z" style="fill:#418c48"/>
                <path data-name="패스 16126" d="M375 124.022H233.237v5.135a3.637 3.637 0 0 0 3.637 3.637h25.184v10.385h5.385v-10.385H375z" style="fill:#418c48"/>
                <path data-name="패스 16127" d="M375 294.794H233.237v5.135a3.637 3.637 0 0 0 3.637 3.637h25.184v10.385h5.385v-10.385H375z" style="fill:#418c48"/>
                <path data-name="패스 16128" d="M0 210.709h141.763v5.135a3.637 3.637 0 0 1-3.637 3.637h-25.184v10.385h-5.385v-10.385H0z" style="fill:#418c48"/>
                <path data-name="패스 16129" d="M335.7 89.831a59.555 59.555 0 0 1 7.033-26.989 59.548 59.548 0 0 1 7.034 26.989 59.548 59.548 0 0 1-7.034 26.989 59.554 59.554 0 0 1-7.033-26.989" style="fill:#479e57"/>
                <path data-name="패스 16130" d="M346.989 92.221a69.948 69.948 0 0 1 8.911-19.983 67.828 67.828 0 0 1-11 41.762 69.957 69.957 0 0 1 2.086-21.781" style="fill:#73be84"/>
                <path data-name="패스 16131" d="M338.477 92.221a69.948 69.948 0 0 0-8.912-19.983 67.828 67.828 0 0 0 11 41.764 69.957 69.957 0 0 0-2.086-21.781" style="fill:#73be84"/>
                <path data-name="사각형 3012" transform="translate(342.311 76.372)" style="fill:#418c48" d="M0 0h.844v30.604H0z"/>
                <path data-name="사각형 3013" transform="rotate(-13.075 524.295 -1406.709)" style="fill:#418c48" d="M0 0h.844v30.605H0z"/>
                <path data-name="사각형 3014" transform="rotate(-76.92 243.298 -161.854)" style="fill:#418c48" d="M0 0h30.605v.844H0z"/>
                <path data-name="패스 16132" d="M335.587 94.834a69.949 69.949 0 0 0-12.557-17.919 67.831 67.831 0 0 0 18.756 38.9 69.974 69.974 0 0 0-6.2-20.984" style="fill:#479e57"/>
                <path data-name="패스 16133" d="M349.879 94.834a69.949 69.949 0 0 1 12.557-17.919 67.831 67.831 0 0 1-18.756 38.9 69.974 69.974 0 0 1 6.2-20.984" style="fill:#479e57"/>
                <path data-name="사각형 3015" transform="rotate(-25.43 360.438 -684.254)" style="fill:#418c48" d="M0 0h.844v30.605H0z"/>
                <path data-name="사각형 3016" transform="rotate(-64.59 263.058 -213.383)" style="fill:#418c48" d="M0 0h30.605v.844H0z"/>
                <path data-name="패스 16134" d="M356.5 105.577h-27.538l3.291 19.183h20.96z" style="fill:#418c48"/>
                <path data-name="패스 16135" d="M80.968 76.471H62.211A15.932 15.932 0 0 1 78.143 60.54H96.9a15.931 15.931 0 0 1-15.932 15.931" style="fill:#479e57"/>
                <path data-name="패스 16136" d="M72.073 108.968H53.316a15.932 15.932 0 0 1 15.932-15.932H88a15.932 15.932 0 0 1-15.932 15.932" style="fill:#479e57"/>
                <path data-name="패스 16137" d="m99.057 134.642-13.263-13.263a15.931 15.931 0 0 1 22.531 0l13.263 13.263a15.931 15.931 0 0 1-22.531 0" style="fill:#479e57"/>
                <path data-name="패스 16138" d="m28.118 124.313 13.263-13.263a15.931 15.931 0 0 0-22.531 0L5.587 124.313a15.931 15.931 0 0 0 22.531 0" style="fill:#479e57"/>
                <path data-name="패스 16139" d="M80.6 210.635H26.035a3.825 3.825 0 0 1-3.758-4.532l8.191-43.468h45.7l8.186 43.465a3.824 3.824 0 0 1-3.758 4.532" style="fill:#91d09f"/>
                <path data-name="사각형 3017" transform="translate(27.886 166.608)" style="fill:#56b36b" d="M0 0h50.912v2H0z"/>
                <path data-name="패스 16140" d="M53.816 162.635h-1V83.58A15.591 15.591 0 0 1 68.39 68.006h15.068v1H68.39A14.591 14.591 0 0 0 53.816 83.58z" style="fill:#418c48"/>
                <path data-name="패스 16141" d="m53.67 154.725-.707-.707 32.7-32.705a8.375 8.375 0 0 1 11.829 0l6.282 6.282-.707.707-6.282-6.282a7.374 7.374 0 0 0-10.415 0z" style="fill:#418c48"/>
                <path data-name="패스 16142" d="M53.209 124.062 39.043 109.9a7.247 7.247 0 0 0-10.238 0l-4.21 4.21-.615-.615 4.209-4.21a8.111 8.111 0 0 1 11.469 0l14.166 14.166z" style="fill:#418c48"/>
                <path data-name="패스 16143" d="M53.842 108.969h-1a8.476 8.476 0 0 1 8.466-8.466H75.73v1H61.308a7.475 7.475 0 0 0-7.466 7.466" style="fill:#418c48"/>
                <path data-name="패스 16144" d="M34.558 92.1h18.757a15.932 15.932 0 0 0-15.932-15.934H18.626A15.932 15.932 0 0 0 34.558 92.1" style="fill:#479e57"/>
                <path data-name="패스 16145" d="M53.789 92.1h-1a7.475 7.475 0 0 0-7.466-7.465H30.9v-1h14.423a8.475 8.475 0 0 1 8.466 8.465" style="fill:#418c48"/>
                <path data-name="패스 16146" d="M34.558 153.773h18.757a15.932 15.932 0 0 0-15.932-15.932H18.626a15.932 15.932 0 0 0 15.932 15.932" style="fill:#479e57"/>
                <path data-name="패스 16147" d="M53.789 153.773h-1a7.475 7.475 0 0 0-7.466-7.466H30.9v-1h14.423a8.476 8.476 0 0 1 8.466 8.466" style="fill:#418c48"/>
                <path data-name="패스 16148" d="M246.626 46.162c2.2 2.2 3.121 4.854 2.053 5.923s-3.721.149-5.923-2.053-3.121-4.854-2.053-5.923 3.721-.149 5.923 2.053" style="fill:#479e57"/>
                <path data-name="패스 16149" d="M238.769 46.162c2.2 2.2 3.121 4.854 2.053 5.923s-3.721.149-5.923-2.053-3.121-4.854-2.053-5.923 3.721-.149 5.923 2.053" style="fill:#479e57"/>
                <path data-name="패스 16150" d="M230.913 46.162c2.2 2.2 3.121 4.854 2.053 5.923s-3.721.149-5.923-2.053-3.121-4.854-2.053-5.923 3.721-.149 5.923 2.053" style="fill:#479e57"/>
                <path data-name="패스 16151" d="M223.056 46.162c2.2 2.2 3.121 4.854 2.053 5.923s-3.721.149-5.923-2.053-3.121-4.854-2.053-5.923 3.721-.149 5.923 2.053" style="fill:#479e57"/>
                <path data-name="패스 16152" d="M215.2 46.162c2.2 2.2 3.121 4.854 2.053 5.923s-3.721.149-5.923-2.053-3.121-4.854-2.053-5.923 3.723-.149 5.923 2.053" style="fill:#479e57"/>
                <path data-name="패스 16153" d="M246.626 58.007c2.2-2.2 3.121-4.854 2.053-5.923s-3.721-.149-5.923 2.053-3.121 4.854-2.053 5.923 3.721.149 5.923-2.053" style="fill:#479e57"/>
                <path data-name="패스 16154" d="M238.769 58.007c2.2-2.2 3.121-4.854 2.053-5.923s-3.721-.149-5.923 2.053-3.121 4.854-2.053 5.923 3.721.149 5.923-2.053" style="fill:#479e57"/>
                <path data-name="패스 16155" d="M230.913 58.007c2.2-2.2 3.121-4.854 2.053-5.923s-3.721-.149-5.923 2.053-3.121 4.854-2.053 5.923 3.721.149 5.923-2.053" style="fill:#479e57"/>
                <path data-name="패스 16156" d="M223.056 58.007c2.2-2.2 3.121-4.854 2.053-5.923s-3.721-.149-5.923 2.053-3.121 4.854-2.053 5.923 3.721.149 5.923-2.053" style="fill:#479e57"/>
                <path data-name="패스 16157" d="M215.2 58.007c2.2-2.2 3.121-4.854 2.053-5.923s-3.721-.149-5.923 2.053-3.121 4.854-2.053 5.923 3.721.149 5.923-2.053" style="fill:#479e57"/>
                <path data-name="패스 16158" d="M289.724 123.878h-49.5a3.1 3.1 0 0 1-3.105-3.1v-3.291h55.707v3.291a3.1 3.1 0 0 1-3.105 3.1" style="fill:#73be84"/>
                <path data-name="패스 16159" d="M265.63 89.6h-.854V71.705a19.215 19.215 0 0 0-19.193-19.193H216.1v-.854h29.485a20.07 20.07 0 0 1 20.045 20.047z" style="fill:#418c48"/>
                <path data-name="패스 16160" d="M246.626 23.567c2.2 2.2 3.121 4.854 2.053 5.923s-3.721.149-5.923-2.053-3.121-4.854-2.053-5.923 3.721-.149 5.923 2.053" style="fill:#479e57"/>
                <path data-name="패스 16161" d="M238.769 23.567c2.2 2.2 3.121 4.854 2.053 5.923s-3.721.149-5.923-2.053-3.121-4.854-2.053-5.923 3.721-.149 5.923 2.053" style="fill:#479e57"/>
                <path data-name="패스 16162" d="M230.913 23.567c2.2 2.2 3.121 4.854 2.053 5.923s-3.721.149-5.923-2.053-3.121-4.854-2.053-5.923 3.721-.149 5.923 2.053" style="fill:#479e57"/>
                <path data-name="패스 16163" d="M223.056 23.567c2.2 2.2 3.121 4.854 2.053 5.923s-3.721.149-5.923-2.053-3.121-4.854-2.053-5.923 3.721-.149 5.923 2.053" style="fill:#479e57"/>
                <path data-name="패스 16164" d="M215.2 23.567c2.2 2.2 3.121 4.854 2.053 5.923s-3.721.149-5.923-2.053-3.121-4.854-2.053-5.923 3.721-.149 5.923 2.053" style="fill:#479e57"/>
                <path data-name="패스 16165" d="M246.626 35.413c2.2-2.2 3.121-4.854 2.053-5.923s-3.721-.149-5.923 2.053-3.121 4.854-2.053 5.923 3.721.149 5.923-2.053" style="fill:#479e57"/>
                <path data-name="패스 16166" d="M238.769 35.413c2.2-2.2 3.121-4.854 2.053-5.923s-3.721-.149-5.923 2.053-3.121 4.854-2.053 5.923 3.721.149 5.923-2.053" style="fill:#479e57"/>
                <path data-name="패스 16167" d="M230.913 35.413c2.2-2.2 3.121-4.854 2.053-5.923s-3.721-.149-5.923 2.053-3.121 4.854-2.053 5.923 3.721.149 5.923-2.053" style="fill:#479e57"/>
                <path data-name="패스 16168" d="M223.056 35.413c2.2-2.2 3.121-4.854 2.053-5.923s-3.721-.149-5.923 2.053-3.121 4.854-2.053 5.923 3.721.149 5.923-2.053" style="fill:#479e57"/>
                <path data-name="패스 16169" d="M215.2 35.413c2.2-2.2 3.121-4.854 2.053-5.923s-3.721-.149-5.923 2.053-3.121 4.854-2.053 5.923 3.721.149 5.923-2.053" style="fill:#479e57"/>
                <path data-name="패스 16170" d="M265.63 69.827h-.854V49.11a19.215 19.215 0 0 0-19.193-19.193H216.1v-.854h29.485A20.07 20.07 0 0 1 265.63 49.11z" style="fill:#418c48"/>
                <path data-name="패스 16171" d="M246.626 2.5c2.2 2.2 3.121 4.854 2.053 5.923s-3.721.149-5.923-2.053-3.121-4.855-2.056-5.924S244.424.3 246.626 2.5" style="fill:#479e57"/>
                <path data-name="패스 16172" d="M238.769 2.5c2.2 2.2 3.121 4.854 2.053 5.923s-3.721.149-5.923-2.053-3.121-4.854-2.053-5.923S236.567.3 238.769 2.5" style="fill:#479e57"/>
                <path data-name="패스 16173" d="M230.913 2.5c2.2 2.2 3.121 4.854 2.053 5.923s-3.721.149-5.923-2.053-3.121-4.855-2.053-5.924S228.711.3 230.913 2.5" style="fill:#479e57"/>
                <path data-name="패스 16174" d="M223.056 2.5c2.2 2.2 3.121 4.854 2.053 5.923s-3.721.149-5.923-2.053-3.121-4.854-2.053-5.923S220.854.3 223.056 2.5" style="fill:#479e57"/>
                <path data-name="패스 16175" d="M215.2 2.5c2.2 2.2 3.121 4.854 2.053 5.923s-3.721.149-5.923-2.053-3.121-4.854-2.053-5.923S213 .3 215.2 2.5" style="fill:#479e57"/>
                <path data-name="패스 16176" d="M246.626 14.344c2.2-2.2 3.121-4.854 2.053-5.923s-3.721-.149-5.923 2.053-3.121 4.854-2.053 5.923 3.721.149 5.923-2.053" style="fill:#479e57"/>
                <path data-name="패스 16177" d="M238.769 14.344c2.2-2.2 3.121-4.854 2.053-5.923s-3.721-.149-5.923 2.053-3.121 4.854-2.053 5.923 3.721.149 5.923-2.053" style="fill:#479e57"/>
                <path data-name="패스 16178" d="M230.913 14.344c2.2-2.2 3.121-4.854 2.053-5.923s-3.721-.149-5.923 2.053-3.121 4.854-2.053 5.923 3.721.149 5.923-2.053" style="fill:#479e57"/>
                <path data-name="패스 16179" d="M223.056 14.344c2.2-2.2 3.121-4.854 2.053-5.923s-3.721-.149-5.923 2.053-3.121 4.854-2.053 5.923 3.721.149 5.923-2.053" style="fill:#479e57"/>
                <path data-name="패스 16180" d="M215.2 14.344c2.2-2.2 3.121-4.854 2.053-5.923s-3.721-.149-5.923 2.053-3.121 4.854-2.053 5.923 3.721.149 5.923-2.053" style="fill:#479e57"/>
                <path data-name="패스 16181" d="M265.63 48.758h-.854V28.041a19.215 19.215 0 0 0-19.193-19.193H216.1v-.854h29.485a20.07 20.07 0 0 1 20.045 20.047z" style="fill:#418c48"/>
                <path data-name="패스 16182" d="M283.78 61.241c-2.2 2.2-3.121 4.854-2.053 5.923s3.721.149 5.923-2.053 3.121-4.854 2.053-5.923-3.721-.149-5.923 2.053" style="fill:#479e57"/>
                <path data-name="패스 16183" d="M291.637 61.241c-2.2 2.2-3.121 4.854-2.053 5.923s3.721.149 5.923-2.053 3.121-4.854 2.053-5.923-3.721-.149-5.923 2.053" style="fill:#479e57"/>
                <path data-name="패스 16184" d="M299.494 61.241c-2.2 2.2-3.121 4.854-2.053 5.923s3.721.149 5.923-2.053 3.121-4.854 2.053-5.923-3.721-.149-5.923 2.053" style="fill:#479e57"/>
                <path data-name="패스 16185" d="M307.35 61.241c-2.2 2.2-3.121 4.854-2.053 5.923s3.721.149 5.923-2.053 3.121-4.854 2.053-5.923-3.721-.149-5.923 2.053" style="fill:#479e57"/>
                <path data-name="패스 16186" d="M315.207 61.241c-2.2 2.2-3.121 4.854-2.053 5.923s3.721.149 5.923-2.053 3.121-4.854 2.053-5.923-3.721-.149-5.923 2.053" style="fill:#479e57"/>
                <path data-name="패스 16187" d="M283.78 73.087c-2.2-2.2-3.121-4.854-2.053-5.923s3.721-.149 5.923 2.053 3.121 4.854 2.053 5.923-3.721.149-5.923-2.053" style="fill:#479e57"/>
                <path data-name="패스 16188" d="M291.637 73.087c-2.2-2.2-3.121-4.854-2.053-5.923s3.721-.149 5.923 2.053 3.121 4.854 2.053 5.923-3.721.149-5.923-2.053" style="fill:#479e57"/>
                <path data-name="패스 16189" d="M299.494 73.087c-2.2-2.2-3.121-4.854-2.053-5.923s3.721-.149 5.923 2.053 3.121 4.854 2.053 5.923-3.721.149-5.923-2.053" style="fill:#479e57"/>
                <path data-name="패스 16190" d="M307.35 73.087c-2.2-2.2-3.121-4.854-2.053-5.923s3.721-.149 5.923 2.053 3.121 4.854 2.053 5.923-3.721.149-5.923-2.053" style="fill:#479e57"/>
                <path data-name="패스 16191" d="M315.207 73.087c-2.2-2.2-3.121-4.854-2.053-5.923s3.721-.149 5.923 2.053 3.121 4.854 2.053 5.923-3.721.149-5.923-2.053" style="fill:#479e57"/>
                <path data-name="패스 16192" d="M265.63 87.705h-.854v-.921a20.07 20.07 0 0 1 20.047-20.047h29.486v.854h-29.486a19.215 19.215 0 0 0-19.193 19.193z" style="fill:#418c48"/>
                <path data-name="패스 16193" d="M283.78 38.646c-2.2 2.2-3.121 4.854-2.053 5.923s3.721.149 5.923-2.053 3.121-4.854 2.053-5.923-3.721-.149-5.923 2.053" style="fill:#479e57"/>
                <path data-name="패스 16194" d="M291.637 38.646c-2.2 2.2-3.121 4.854-2.053 5.923s3.721.149 5.923-2.053 3.121-4.854 2.053-5.923-3.721-.149-5.923 2.053" style="fill:#479e57"/>
                <path data-name="패스 16195" d="M299.494 38.646c-2.2 2.2-3.121 4.854-2.053 5.923s3.721.149 5.923-2.053 3.121-4.854 2.053-5.923-3.721-.149-5.923 2.053" style="fill:#479e57"/>
                <path data-name="패스 16196" d="M307.35 38.646c-2.2 2.2-3.121 4.854-2.053 5.923s3.721.149 5.923-2.053 3.121-4.854 2.053-5.923-3.721-.149-5.923 2.053" style="fill:#479e57"/>
                <path data-name="패스 16197" d="M315.207 38.646c-2.2 2.2-3.121 4.854-2.053 5.923s3.721.149 5.923-2.053 3.121-4.854 2.053-5.923-3.721-.149-5.923 2.053" style="fill:#479e57"/>
                <path data-name="패스 16198" d="M283.78 50.492c-2.2-2.2-3.121-4.854-2.053-5.923s3.721-.149 5.923 2.053 3.121 4.854 2.053 5.923-3.721.149-5.923-2.053" style="fill:#479e57"/>
                <path data-name="패스 16199" d="M291.637 50.492c-2.2-2.2-3.121-4.854-2.053-5.923s3.721-.149 5.923 2.053 3.121 4.854 2.053 5.923-3.721.149-5.923-2.053" style="fill:#479e57"/>
                <path data-name="패스 16200" d="M299.494 50.492c-2.2-2.2-3.121-4.854-2.053-5.923s3.721-.149 5.923 2.053 3.121 4.854 2.053 5.923-3.721.149-5.923-2.053" style="fill:#479e57"/>
                <path data-name="패스 16201" d="M307.35 50.492c-2.2-2.2-3.121-4.854-2.053-5.923s3.721-.149 5.923 2.053 3.121 4.854 2.053 5.923-3.721.149-5.923-2.053" style="fill:#479e57"/>
                <path data-name="패스 16202" d="M315.207 50.492c-2.2-2.2-3.121-4.854-2.053-5.923s3.721-.149 5.923 2.053 3.121 4.854 2.053 5.923-3.721.149-5.923-2.053" style="fill:#479e57"/>
                <path data-name="패스 16203" d="M265.63 84.906h-.854V64.19a20.07 20.07 0 0 1 20.047-20.047h29.486V45h-29.486a19.215 19.215 0 0 0-19.193 19.19z" style="fill:#418c48"/>
                <path data-name="패스 16204" d="M283.78 17.578c-2.2 2.2-3.121 4.854-2.053 5.923s3.721.149 5.923-2.053 3.121-4.854 2.053-5.923-3.721-.149-5.923 2.053" style="fill:#479e57"/>
                <path data-name="패스 16205" d="M291.637 17.578c-2.2 2.2-3.121 4.854-2.053 5.923s3.721.149 5.923-2.053 3.121-4.854 2.053-5.923-3.721-.149-5.923 2.053" style="fill:#479e57"/>
                <path data-name="패스 16206" d="M299.494 17.578c-2.2 2.2-3.121 4.854-2.053 5.923s3.721.149 5.923-2.053 3.121-4.854 2.053-5.923-3.721-.149-5.923 2.053" style="fill:#479e57"/>
                <path data-name="패스 16207" d="M307.35 17.578c-2.2 2.2-3.121 4.854-2.053 5.923s3.721.149 5.923-2.053 3.121-4.854 2.053-5.923-3.721-.149-5.923 2.053" style="fill:#479e57"/>
                <path data-name="패스 16208" d="M315.207 17.578c-2.2 2.2-3.121 4.854-2.053 5.923s3.721.149 5.923-2.053 3.121-4.854 2.053-5.923-3.721-.149-5.923 2.053" style="fill:#479e57"/>
                <path data-name="패스 16209" d="M283.78 29.423c-2.2-2.2-3.121-4.854-2.053-5.923s3.721-.149 5.923 2.053 3.121 4.854 2.053 5.923-3.721.149-5.923-2.053" style="fill:#479e57"/>
                <path data-name="패스 16210" d="M291.637 29.423c-2.2-2.2-3.121-4.854-2.053-5.923s3.721-.149 5.923 2.053 3.121 4.854 2.053 5.923-3.721.149-5.923-2.053" style="fill:#479e57"/>
                <path data-name="패스 16211" d="M299.494 29.423c-2.2-2.2-3.121-4.854-2.053-5.923s3.721-.149 5.923 2.053 3.121 4.854 2.053 5.923-3.721.149-5.923-2.053" style="fill:#479e57"/>
                <path data-name="패스 16212" d="M307.35 29.423c-2.2-2.2-3.121-4.854-2.053-5.923s3.721-.149 5.923 2.053 3.121 4.854 2.053 5.923-3.721.149-5.923-2.053" style="fill:#479e57"/>
                <path data-name="패스 16213" d="M315.207 29.423c-2.2-2.2-3.121-4.854-2.053-5.923s3.721-.149 5.923 2.053 3.121 4.854 2.053 5.923-3.721.149-5.923-2.053" style="fill:#479e57"/>
                <path data-name="패스 16214" d="M265.63 63.837h-.854V43.12a20.07 20.07 0 0 1 20.047-20.047h29.486v.854h-29.486A19.215 19.215 0 0 0 265.63 43.12z" style="fill:#418c48"/>
                <path data-name="패스 16215" d="M287.35 91.354h-44.294l-1.263-7.3h46.82z" style="fill:#91d09f"/>
                <path data-name="패스 16216" d="M280.4 117.479h-30.84L245.583 92.6h38.784z" style="fill:#91d09f"/>
                <path data-name="패스 16217" d="m293.506 261.43-4.3 10.088-4.515-3.368 1.2-11.165z" style="fill:#3e934e"/>
                <path data-name="패스 16218" d="M253.416 230.139a9.647 9.647 0 0 1 1.257 8.64l16.129 9.408h16.027l-.31 2.882h-10.777l10.143 5.916-1.2 11.165-33.278-24.818a9.652 9.652 0 0 1-8.159 1.7z" style="fill:#73be84"/>
                <path data-name="패스 16219" d="M292.493 248.188v2.881h-5.973l.309-2.881z" style="fill:#3e934e"/>
                <path data-name="사각형 3018" transform="translate(285.452 285.194)" style="fill:#73be84" d="M0 0h46.116v9.842H0z"/>
                <path data-name="사각형 3019" transform="translate(331.569 285.194)" style="fill:#3e934e" d="M0 0h6.07v9.842H0z"/>
                <path data-name="패스 16220" d="M342.213 271.554a1.337 1.337 0 0 0 1.336-1.336v-15.761a1.337 1.337 0 0 0-1.336-1.336h-5.22l-.591-5.515h5.811a6.859 6.859 0 0 1 6.851 6.851v15.761a6.858 6.858 0 0 1-6.851 6.851h-2.65l-.592-5.515z" style="fill:#73be84"/>
                <path data-name="패스 16221" d="M327.195 247.606h9.205l.592 5.515h-4.282v18.433h6.261l.592 5.515h-12.368z" style="fill:#3e934e"/>
                <path data-name="패스 16222" d="m240.128 243.64 10.855-15.9a9.615 9.615 0 0 1 1.678 1.461L242.1 244.672a9.646 9.646 0 0 1-1.971-1.032" style="fill:#73be84"/>
                <path data-name="패스 16223" d="M252.662 229.2a9.6 9.6 0 0 1 .755.938l-10.166 14.892a9.561 9.561 0 0 1-1.151-.358z" style="fill:#3e934e"/>
                <path data-name="사각형 3020" transform="translate(285.452 285.193)" style="fill:#3e934e" d="M0 0h52.187v1.153H0z"/>
                <path data-name="패스 16224" d="M290.062 242.227h37.133l4.61 42.967h-46.353z" style="fill:#73be84"/>
                <path data-name="패스 16225" d="m333.029 242.227 4.61 42.967H331.8l-4.61-42.967z" style="fill:#3e934e"/>
                <path data-name="사각형 3021" transform="translate(36.762 226.976)" style="fill:#479e57" d="M0 0h5.775v36.549H0z"/>
                <path data-name="패스 16226" d="M25.8 288.513a12.1 12.1 0 0 0 3.237 8.238l8.292 8.924a3.169 3.169 0 0 0 4.643 0l8.292-8.924a12.1 12.1 0 0 0 3.237-8.238v-27.1a7.869 7.869 0 0 0-7.869-7.869H33.668a7.869 7.869 0 0 0-7.869 7.869z" style="fill:#91d09f"/>
                <path data-name="패스 16227" d="M44.4 219.1v21.385a4.768 4.768 0 0 1-9.537 0V219.1a4.768 4.768 0 0 1 9.537 0" style="fill:#91d09f"/>
                <path data-name="패스 16228" d="M39.342 217.546a2.122 2.122 0 1 1-2.122 2.122 2.122 2.122 0 0 1 2.122-2.122" style="fill:#479e57"/>
                <path data-name="사각형 3022" transform="translate(69.893 226.976)" style="fill:#479e57" d="M0 0h5.775v36.549H0z"/>
                <path data-name="패스 16229" d="M58.93 288.513a12.1 12.1 0 0 0 3.237 8.238l8.292 8.924a3.169 3.169 0 0 0 4.643 0l8.292-8.924a12.1 12.1 0 0 0 3.237-8.238v-27.1a7.869 7.869 0 0 0-7.869-7.869H66.8a7.869 7.869 0 0 0-7.869 7.869z" style="fill:#91d09f"/>
                <path data-name="패스 16230" d="M77.535 219.1v21.385a4.769 4.769 0 0 1-9.537 0V219.1a4.769 4.769 0 0 1 9.537 0" style="fill:#91d09f"/>
                <path data-name="패스 16231" d="M72.474 217.546a2.122 2.122 0 1 1-2.122 2.122 2.122 2.122 0 0 1 2.122-2.122" style="fill:#479e57"/>
                <path data-name="사각형 3023" transform="translate(295.602 144.661)" style="fill:#479e57" d="M0 0h54.856v78.674H0z"/>
                <path data-name="사각형 3024" transform="translate(301.299 152.831)" style="fill:#91d09f" d="M0 0h43.463v62.334H0z"/>
                <path data-name="패스 16232" d="M302.809 148.4a1.8 1.8 0 1 1-1.8-1.8 1.8 1.8 0 0 1 1.8 1.8" style="fill:#91d09f"/>
                <path data-name="패스 16233" d="M346.559 148.4a1.8 1.8 0 1 1-1.8-1.8 1.8 1.8 0 0 1 1.8 1.8" style="fill:#91d09f"/>
                <path data-name="패스 16234" d="M302.809 219.944a1.8 1.8 0 1 1-1.8-1.8 1.8 1.8 0 0 1 1.8 1.8" style="fill:#91d09f"/>
                <path data-name="패스 16235" d="M346.559 219.944a1.8 1.8 0 1 1-1.8-1.8 1.8 1.8 0 0 1 1.8 1.8" style="fill:#91d09f"/>
                <path data-name="패스 16236" d="M317.237 176.6c4.223 3.464 4.7 9.863 4.7 9.863s-6.368.783-10.591-2.681-4.7-9.863-4.7-9.863 6.368-.783 10.591 2.681" style="fill:#479e57"/>
                <path data-name="패스 16237" d="M335.737 178.2c.461 5.442-3.794 10.246-3.794 10.246s-5-4.019-5.462-9.461 3.794-10.246 3.794-10.246 5 4.02 5.462 9.461" style="fill:#479e57"/>
                <path data-name="패스 16238" d="M327.355 205.785h-1c0-18.588-9.436-22.823-9.53-22.864l.387-.92c.414.173 10.143 4.476 10.143 23.784" style="fill:#418c48"/>
                <path data-name="패스 16239" d="m326.777 199.754-.66-.751c7.813-6.867 4.254-17.465 4.217-17.571l.944-.329c.04.112 3.824 11.334-4.5 18.651" style="fill:#418c48"/>
                <path data-name="패스 16240" d="M327.376 190.69a3.058 3.058 0 1 1-3.058-3.058 3.058 3.058 0 0 1 3.058 3.058" style="fill:#73be84"/>
            </g>
        </g>
    </g>
</svg>
