<svg xmlns="http://www.w3.org/2000/svg" width="375" height="540" viewBox="0 0 375 540">
    <defs>
        <clipPath id="2mdvtlm00a">
            <path data-name="사각형 2856" style="fill:none" d="M0 0h375v468.216H0z"/>
        </clipPath>
    </defs>
    <g data-name="그룹 2552">
        <g data-name="그룹 2551" style="clip-path:url(#2mdvtlm00a)" transform="translate(0 71)">
            <path data-name="패스 14762" d="M279.249 173.083a13.6 13.6 0 0 0-4.23.677 22.136 22.136 0 0 0-17.143-14.753 40.043 40.043 0 0 0-77.927-5.4 13.567 13.567 0 0 0-15.331 13.529 13.81 13.81 0 0 0 .115 1.687c-.039 0-.076-.006-.115-.006a13.581 13.581 0 0 0-4.911.926 32.736 32.736 0 1 0-6.137 34.93 40.033 40.033 0 0 0 64.93 41.479 40.036 40.036 0 0 0 57.777-46.115 13.641 13.641 0 1 0 2.974-26.954" style="fill:#3e9b67"/>
            <path data-name="패스 14763" d="M368.467 234.023c.01-.459.035-.914.035-1.375a59.573 59.573 0 0 0-117.229-14.982 18.772 18.772 0 0 0-29.785 11.385 40.376 40.376 0 0 0-46.075 32.811 24.092 24.092 0 0 0-13.5 37.464H156.4a4.984 4.984 0 1 0 0 9.967H375V236.23a13.107 13.107 0 0 0-6.533-2.207" style="fill:#73be84"/>
            <path data-name="패스 14764" d="M257.02 297.012h-6.793a29.683 29.683 0 0 0-16.634-46.157 49.743 49.743 0 0 0-56.767-40.425 23.129 23.129 0 0 0-36.7-14.027A73.406 73.406 0 0 0 0 190.071v119.222h257.02a6.141 6.141 0 0 0 0-12.281" style="fill:#91d09f"/>
            <path data-name="패스 14765" d="M52.3 309.293H29.024V297.62a11.626 11.626 0 0 1 11.627-11.627h.019A11.627 11.627 0 0 1 52.3 297.62z" style="fill:#3e9b67"/>
            <path data-name="패스 14766" d="M65.046 309.293H41.773v-42.529A11.627 11.627 0 0 1 53.4 255.137h.019a11.628 11.628 0 0 1 11.627 11.627z" style="fill:#73be84"/>
            <path data-name="패스 14767" d="M94.684 309.293h-37.33v-68.216A18.65 18.65 0 0 1 76 222.427h.03a18.65 18.65 0 0 1 18.65 18.65z" style="fill:#73be84"/>
            <path data-name="패스 14768" d="M166.256 309.293h-23.273V297.62a11.626 11.626 0 0 1 11.627-11.627h.019a11.627 11.627 0 0 1 11.627 11.627z" style="fill:#3e9b67"/>
            <path data-name="패스 14769" d="M182.737 309.293h-20.783v-25.341a10.383 10.383 0 0 1 10.383-10.383h.017a10.383 10.383 0 0 1 10.383 10.383z" style="fill:#73be84"/>
            <path data-name="패스 14770" d="M132.719 309.293h-24.424v-29.78a12.2 12.2 0 0 1 12.2-12.2h.02a12.2 12.2 0 0 1 12.2 12.2z" style="fill:#73be84"/>
            <path data-name="패스 14771" d="M144.9 309.293h-19.264v-9.66a9.622 9.622 0 0 1 9.622-9.621h.015a9.622 9.622 0 0 1 9.622 9.621z" style="fill:#3e9b67"/>
            <path data-name="패스 14772" d="M108.295 309.293H79.1v-14.642a14.584 14.584 0 0 1 14.584-14.584h.024a14.585 14.585 0 0 1 14.584 14.584z" style="fill:#3e9b67"/>
            <path data-name="패스 14773" d="M134.806 309.293a15.174 15.174 0 0 0 0 30.349h74.1a6.485 6.485 0 1 1 0 12.97H122.03a19.738 19.738 0 0 0-19.739 19.738 19.738 19.738 0 0 0 19.739 19.738h45.408a11.049 11.049 0 0 1 11.049 11.049 11.049 11.049 0 0 1-11.049 11.049h-14.711a11.049 11.049 0 1 0 0 22.1h62.454a5.972 5.972 0 1 1 0 11.944h-2.361a9.993 9.993 0 0 0 0 19.986h161.933L375 309.293z" style="fill:#91d09f"/>
            <path data-name="패스 14774" d="M244.2 323.344h-30.743a1.261 1.261 0 1 1 0-2.523H244.2a1.261 1.261 0 0 1 0 2.523" style="fill:#ace2b6"/>
            <path data-name="패스 14775" d="M263.568 368.847h-30.739a1.261 1.261 0 1 1 0-2.523h30.739a1.261 1.261 0 0 1 0 2.523" style="fill:#ace2b6"/>
            <path data-name="패스 14776" d="M358.047 340.024h-30.739a1.261 1.261 0 1 1 0-2.523h30.739a1.261 1.261 0 0 1 0 2.523" style="fill:#ace2b6"/>
            <path data-name="패스 14777" d="M185.7 379.016h-19.409a1.261 1.261 0 0 1 0-2.523H185.7a1.261 1.261 0 0 1 0 2.523" style="fill:#ace2b6"/>
            <path data-name="패스 14778" d="M339.619 448.723H308.88a1.261 1.261 0 1 1 0-2.523h30.739a1.261 1.261 0 0 1 0 2.523" style="fill:#ace2b6"/>
            <path data-name="패스 14779" d="M239.014 425.221h-30.739a1.262 1.262 0 1 1 0-2.523h30.739a1.262 1.262 0 0 1 0 2.523" style="fill:#ace2b6"/>
            <path data-name="패스 14780" d="M270.479 341.363h-19.372a1.262 1.262 0 0 1 0-2.523h19.372a1.262 1.262 0 0 1 0 2.523" style="fill:#ace2b6"/>
            <path data-name="패스 14781" d="M217.96 407.645h-19.372a1.261 1.261 0 0 1 0-2.523h19.372a1.261 1.261 0 0 1 0 2.523" style="fill:#ace2b6"/>
            <path data-name="패스 14782" d="M365.562 356.942H346.19a1.261 1.261 0 0 1 0-2.523h19.372a1.261 1.261 0 0 1 0 2.523" style="fill:#ace2b6"/>
            <path data-name="패스 14783" d="M48.663 422.451h15.824v-7.937a7.906 7.906 0 0 0-7.9-7.906h-.013a7.906 7.906 0 0 0-7.906 7.906z" style="fill:#3e9b67"/>
            <path data-name="패스 14784" d="M39.995 422.451h15.824v-28.917a7.9 7.9 0 0 0-7.9-7.9H47.9a7.906 7.906 0 0 0-7.906 7.9z" style="fill:#73be84"/>
            <path data-name="패스 14785" d="M19.843 422.451h25.382v-46.382a12.68 12.68 0 0 0-12.681-12.681h-.02a12.68 12.68 0 0 0-12.681 12.681z" style="fill:#73be84"/>
            <path data-name="패스 14786" d="M10.588 422.451h19.849V412.5a9.917 9.917 0 0 0-9.917-9.917h-.02a9.917 9.917 0 0 0-9.916 9.917z" style="fill:#3e9b67"/>
            <path data-name="패스 14787" d="M154.375 48.156a17.187 17.187 0 0 0-19.207-21.148 10.053 10.053 0 0 0-13.2-6.962 26.82 26.82 0 0 0-52.715 5.041 21.718 21.718 0 0 0-19.191 21.568c0 .51.024 1.013.059 1.514A7.331 7.331 0 0 0 51.489 62.7h101.6a7.33 7.33 0 0 0 1.281-14.547" style="fill:#91d09f"/>
            <path data-name="패스 14788" d="M255.09 99.521a11.2 11.2 0 0 1 12.52-13.785 6.554 6.554 0 0 1 8.6-4.538 17.482 17.482 0 0 1 34.361 3.285 14.158 14.158 0 0 1 12.512 14.06c0 .332-.015.66-.038.987a4.778 4.778 0 0 1-.892 9.473h-66.228a4.778 4.778 0 0 1-.835-9.482" style="fill:#91d09f"/>
        </g>
    </g>
    <path data-name="사각형 2857" style="fill:none" d="M0 0h375v540H0z"/>
</svg>
