<svg xmlns="http://www.w3.org/2000/svg" width="140" height="140" viewBox="0 0 140 140">
    <g data-name="그룹 2541">
        <g data-name="그룹 2041">
            <g data-name="그룹 1943">
                <path data-name="패스 1306" d="M73.7 15.743a3.249 3.249 0 0 0-3.92-2.633 3.174 3.174 0 0 0-2.453 4.035c.381 1.731 2.4 3.718 3.625 4.787a.933.933 0 0 0 1.468-.324c.661-1.483 1.661-4.134 1.281-5.866" transform="translate(4.4 2.222)" style="fill:#fff"/>
                <path data-name="패스 1307" d="M93.839 23.33a3.247 3.247 0 0 0-3.139-3.523 3.173 3.173 0 0 0-3.379 3.3c-.061 1.772 1.4 4.2 2.322 5.538a.934.934 0 0 0 1.5.053c1.007-1.273 2.636-3.593 2.7-5.365" transform="translate(5.715 2.284)" style="fill:#fff"/>
                <path data-name="패스 1308" d="M38.746 11.285A3.247 3.247 0 0 0 35.6 7.762a3.173 3.173 0 0 0-3.379 3.3c-.061 1.772 1.4 4.2 2.322 5.538a.934.934 0 0 0 1.5.053c1.007-1.273 2.636-3.593 2.7-5.365" transform="translate(2.109 1.728)" style="fill:#fff"/>
                <path data-name="패스 1309" d="M101.927 35.453a3.248 3.248 0 0 0 .2 4.717 3.173 3.173 0 0 0 4.7-.408c1.17-1.331 1.577-4.136 1.716-5.753a.932.932 0 0 0-1.129-.993c-1.587.345-4.317 1.106-5.487 2.437" transform="translate(6.59 3.148)" style="fill:#fff"/>
                <path data-name="패스 1311" d="M51.665 4.808A3.247 3.247 0 0 0 53.391 9.2 3.172 3.172 0 0 0 57.7 7.281c.672-1.641.14-4.424-.256-6a.934.934 0 0 0-1.389-.569c-1.387.844-3.719 2.456-4.39 4.1" transform="translate(3.361 1.054)" style="fill:#fff"/>
                <path data-name="패스 1312" d="M102.165 29.923a3.248 3.248 0 0 0-1.713-4.4 3.172 3.172 0 0 0-4.318 1.909c-.677 1.638-.153 4.424.238 6a.932.932 0 0 0 1.39.568c1.39-.84 3.726-2.443 4.4-4.082" transform="translate(6.268 2.639)" style="fill:#fff"/>
                <path data-name="패스 1313" d="M113.6 47.145a3.248 3.248 0 0 0-.669-4.674 3.171 3.171 0 0 0-4.639.878c-1.031 1.443-1.154 4.274-1.13 5.9a.933.933 0 0 0 1.223.875c1.544-.5 4.184-1.536 5.215-2.977" transform="translate(6.501 3.72)" style="fill:#fff"/>
                <path data-name="패스 1314" d="M47.45 125.684a3.248 3.248 0 0 0-.669-4.674 3.173 3.173 0 0 0-4.64.878c-1.03 1.443-1.153 4.274-1.129 5.9a.933.933 0 0 0 1.223.875c1.544-.5 4.184-1.536 5.215-2.977" transform="translate(2.679 8.815)" style="fill:#fff"/>
                <path data-name="패스 1315" d="M113.041 59.048a3.248 3.248 0 0 0 4.379-1.764 3.173 3.173 0 0 0-1.96-4.3c-1.646-.657-4.425-.1-6 .31a.933.933 0 0 0-.558 1.4c.856 1.379 2.488 3.7 4.134 4.354" transform="translate(6.651 4.446)" style="fill:#fff"/>
                <path data-name="패스 1316" d="M12.007 99.77a3.248 3.248 0 0 0 4.379-1.764 3.173 3.173 0 0 0-1.96-4.3c-1.646-.657-4.425-.1-6 .31a.933.933 0 0 0-.558 1.4c.856 1.379 2.488 3.7 4.134 4.354" transform="translate(.725 7.109)" style="fill:#fff"/>
                <path data-name="패스 1317" d="M117.181 68a3.248 3.248 0 0 0 1.848-4.344 3.172 3.172 0 0 0-4.423-1.652c-1.629.7-3.2 3.058-4.021 4.458a.933.933 0 0 0 .593 1.383c1.582.37 4.374.854 6 .155" transform="translate(6.81 5.033)" style="fill:#fff"/>
                <path data-name="패스 1318" d="M121.916 99.235a3.248 3.248 0 0 0 1.848-4.344 3.172 3.172 0 0 0-4.423-1.652c-1.629.7-3.2 3.058-4.021 4.458a.933.933 0 0 0 .593 1.383c1.582.37 4.374.854 6 .155" transform="translate(7.254 7.075)" style="fill:#fff"/>
                <path data-name="패스 1320" d="M28.4 115.868a3.249 3.249 0 0 0 1.85-4.344 3.173 3.173 0 0 0-4.424-1.652c-1.629.7-3.2 3.058-4.021 4.458a.933.933 0 0 0 .593 1.383c1.582.37 4.374.854 6 .155" transform="translate(1.408 7.801)" style="fill:#fff"/>
                <path data-name="패스 1322" d="M109.515 19.73a3.248 3.248 0 0 0-.2-4.717 3.173 3.173 0 0 0-4.7.413c-1.168 1.332-1.572 4.138-1.71 5.755a.933.933 0 0 0 1.13.992c1.587-.347 4.316-1.111 5.485-2.443" transform="translate(6.713 2.328)" style="fill:#fff"/>
                <path data-name="패스 1323" d="M91.234 9.921a3.248 3.248 0 0 0 .306-4.712 3.173 3.173 0 0 0-4.721-.094c-1.3 1.2-2.007 3.945-2.319 5.539a.933.933 0 0 0 1.017 1.107c1.614-.174 4.41-.641 5.716-1.84" transform="translate(5.505 1.386)" style="fill:#fff"/>
                <path data-name="패스 1324" d="M100.742 12.208A3.248 3.248 0 0 0 98.6 8a3.172 3.172 0 0 0-4.1 2.333c-.509 1.7.292 4.417.84 5.946a.933.933 0 0 0 1.44.431c1.3-.976 3.462-2.807 3.97-4.5" transform="translate(6.173 1.736)" style="fill:#fff"/>
                <path data-name="패스 1325" d="M113.664 79.365a3.246 3.246 0 0 0 4.5-1.437 3.173 3.173 0 0 0-1.638-4.429c-1.594-.775-4.406-.427-6-.131a.932.932 0 0 0-.66 1.351c.753 1.438 2.209 3.87 3.8 4.646" transform="translate(6.744 5.775)" style="fill:#fff"/>
                <path data-name="패스 1327" d="M73.736 7.62a3.248 3.248 0 0 0 4.49 1.461 3.172 3.172 0 0 0 1.258-4.551c-.84-1.562-3.327-2.92-4.794-3.615a.932.932 0 0 0-1.325.712c-.23 1.607-.468 4.432.371 5.993" transform="translate(4.783 1.078)" style="fill:#fff"/>
                <path data-name="패스 1328" d="M113.617 109.152a3.248 3.248 0 0 0 4.687-.569 3.173 3.173 0 0 0-.779-4.657c-1.42-1.062-4.248-1.245-5.871-1.256a.934.934 0 0 0-.9 1.2c.47 1.554 1.445 4.215 2.865 5.277" transform="translate(6.834 7.157)" style="fill:#fff"/>
                <path data-name="패스 1330" d="M128.629 81.231a3.249 3.249 0 0 0 3.4-3.271 3.173 3.173 0 0 0-3.422-3.254c-1.772 0-4.143 1.559-5.447 2.526a.933.933 0 0 0 0 1.5c1.309.959 3.688 2.5 5.461 2.5" transform="translate(7.966 5.888)" style="fill:#fff"/>
                <path data-name="패스 1331" d="M96.27 104.025a3.247 3.247 0 0 0 4.081 2.375 3.172 3.172 0 0 0 2.189-4.184c-.491-1.7-2.636-3.556-3.924-4.545a.933.933 0 0 0-1.445.417c-.563 1.524-1.391 4.234-.9 5.937" transform="translate(6.29 7.324)" style="fill:#fff"/>
                <path data-name="패스 1333" d="M84.025 125.842a3.248 3.248 0 0 0 3.325 3.352 3.172 3.172 0 0 0 3.2-3.473c-.033-1.772-1.623-4.118-2.611-5.408a.934.934 0 0 0-1.5.028c-.938 1.325-2.442 3.728-2.41 5.5" transform="translate(5.5 8.777)" style="fill:#fff"/>
                <path data-name="패스 1334" d="M97.435 122.864a3.248 3.248 0 0 0 4.646-.842 3.172 3.172 0 0 0-1.05-4.6c-1.479-.978-4.314-1-5.935-.911a.933.933 0 0 0-.829 1.255c.56 1.525 1.689 4.125 3.168 5.1" transform="translate(6.128 8.451)" style="fill:#fff"/>
                <path data-name="패스 1335" d="M107.954 110.034a3.249 3.249 0 0 0-4.69.546 3.173 3.173 0 0 0 .757 4.662c1.414 1.068 4.242 1.264 5.866 1.284a.934.934 0 0 0 .906-1.2c-.462-1.556-1.424-4.222-2.838-5.291" transform="translate(6.675 7.777)" style="fill:#fff"/>
                <path data-name="패스 1339" d="M47.09 112.02a3.248 3.248 0 0 0 .917 4.632 3.173 3.173 0 0 0 4.586-1.123c.953-1.5.924-4.329.815-5.949a.933.933 0 0 0-1.268-.808c-1.515.583-4.1 1.754-5.05 3.248" transform="translate(3.039 7.723)" style="fill:#fff"/>
                <path data-name="패스 1340" d="M124.361 64.865a3.248 3.248 0 0 0 .917 4.632 3.173 3.173 0 0 0 4.586-1.123c.953-1.5.924-4.329.815-5.949a.933.933 0 0 0-1.268-.808c-1.515.583-4.1 1.754-5.05 3.248" transform="translate(8.058 5.001)" style="fill:#fff"/>
                <path data-name="패스 1342" d="M31.31 119.11a3.248 3.248 0 0 0 .917 4.632 3.173 3.173 0 0 0 4.586-1.123c.953-1.5.924-4.329.815-5.949a.933.933 0 0 0-1.268-.808c-1.515.583-4.1 1.754-5.05 3.248" transform="translate(2.008 8.388)" style="fill:#fff"/>
                <path data-name="패스 1344" d="M29.946 101.275a3.248 3.248 0 0 0 .917 4.632 3.173 3.173 0 0 0 4.586-1.123c.953-1.5.924-4.329.815-5.949A.933.933 0 0 0 35 98.026c-1.515.583-4.1 1.754-5.05 3.248" transform="translate(1.919 7.368)" style="fill:#fff"/>
                <path data-name="패스 1345" d="M25.646 91.183a3.248 3.248 0 0 0-2.843 3.77 3.173 3.173 0 0 0 3.895 2.67c1.749-.285 3.844-2.2 4.978-3.358a.932.932 0 0 0-.242-1.483c-1.446-.741-4.039-1.885-5.788-1.6" transform="translate(1.477 6.962)" style="fill:#fff"/>
                <path data-name="패스 1346" d="M18.935 83.522a3.249 3.249 0 0 0-.617 4.681 3.173 3.173 0 0 0 4.7.406c1.381-1.11 2.264-3.8 2.679-5.374a.933.933 0 0 0-.942-1.173c-1.622.068-4.443.349-5.824 1.459" transform="translate(1.649 6.354)" style="fill:#fff"/>
                <path data-name="패스 1348" d="M110.638 24.03a3.249 3.249 0 0 0-1.186 4.571 3.172 3.172 0 0 0 4.619.978c1.508-.932 2.713-3.5 3.317-5.005a.933.933 0 0 0-.788-1.274c-1.618-.131-4.452-.2-5.959.735" transform="translate(6.669 2.517)" style="fill:#fff"/>
                <path data-name="패스 1349" d="M15.67 103.6a3.249 3.249 0 0 0-1.186 4.571 3.172 3.172 0 0 0 4.619.978c1.508-.932 2.713-3.5 3.317-5.005a.933.933 0 0 0-.792-1.279c-1.618-.131-4.452-.2-5.959.735" transform="translate(1.311 7.168)" style="fill:#fff"/>
                <path data-name="패스 1352" d="M66.836.664a3.248 3.248 0 0 0-4.663.747 3.173 3.173 0 0 0 .956 4.623c1.459 1.007 4.293 1.083 5.915 1.031a.932.932 0 0 0 .856-1.236c-.528-1.536-1.6-4.159-3.063-5.165" transform="translate(4.005 1)" style="fill:#fff"/>
                <path data-name="패스 1354" d="M7.182 40.367A3.247 3.247 0 0 0 3.744 43.6a3.172 3.172 0 0 0 3.387 3.289c1.773.014 4.16-1.515 5.473-2.469a.933.933 0 0 0 .012-1.5c-1.3-.973-3.662-2.54-5.435-2.553" transform="translate(.351 3.641)" style="fill:#fff"/>
                <path data-name="패스 1355" d="M4.011 72.829a3.247 3.247 0 0 0-3.438 3.236 3.172 3.172 0 0 0 3.387 3.289c1.773.014 4.16-1.515 5.473-2.469a.933.933 0 0 0 .012-1.5c-1.3-.973-3.662-2.54-5.435-2.553" transform="translate(.054 5.765)" style="fill:#fff"/>
                <path data-name="패스 1356" d="M16.31 62.55a3.249 3.249 0 0 0-2.485 4.015 3.173 3.173 0 0 0 4.124 2.3c1.715-.445 3.626-2.539 4.649-3.8a.933.933 0 0 0-.377-1.456c-1.506-.6-4.194-1.506-5.91-1.061" transform="translate(1.286 5.084)" style="fill:#fff"/>
                <path data-name="패스 1357" d="M23.558 42.807a3.248 3.248 0 0 0-4.716-.228 3.171 3.171 0 0 0-.015 4.721c1.221 1.286 3.978 1.943 5.576 2.227a.933.933 0 0 0 1.09-1.036c-.2-1.611-.714-4.4-1.935-5.684" transform="translate(1.668 3.715)" style="fill:#fff"/>
                <path data-name="패스 1358" d="M35.947 27.335a3.247 3.247 0 0 0-4.559-1.229 3.173 3.173 0 0 0-1.024 4.609c.919 1.516 3.472 2.746 4.973 3.366a.933.933 0 0 0 1.286-.779c.148-1.618.241-4.451-.677-5.967" transform="translate(1.947 2.666)" style="fill:#fff"/>
                <path data-name="패스 1359" d="M42.827 19.789a3.248 3.248 0 0 0-4.622.965 3.173 3.173 0 0 0 1.171 4.574c1.505.937 4.339.879 5.958.753a.933.933 0 0 0 .8-1.276c-.6-1.508-1.8-4.078-3.3-5.015" transform="translate(2.45 2.802)" style="fill:#fff"/>
                <path data-name="패스 1361" d="M21.792 24.218a3.248 3.248 0 0 0-3.626-3.024 3.172 3.172 0 0 0-2.858 3.758c.2 1.761 2 3.947 3.108 5.137a.933.933 0 0 0 1.494-.17c.81-1.407 2.08-3.941 1.881-5.7" transform="translate(1.433 2.373)" style="fill:#fff"/>
                <path data-name="패스 1363" d="M7.6 51.647a3.249 3.249 0 0 0-4.722.026 3.172 3.172 0 0 0 .238 4.715c1.288 1.218 4.076 1.725 5.689 1.923a.932.932 0 0 0 1.033-1.093c-.288-1.6-.949-4.354-2.238-5.572" transform="translate(.183 4.301)" style="fill:#fff"/>
                <path data-name="패스 1364" d="M53.274 16.943a3.248 3.248 0 0 0-4.6-1.052 3.171 3.171 0 0 0-.844 4.645c.976 1.48 3.574 2.61 5.1 3.171a.933.933 0 0 0 1.255-.828c.085-1.622.069-4.456-.907-5.936" transform="translate(3.083 2.439)" style="fill:#fff"/>
                <path data-name="패스 1365" d="M24.87 39.442a3.247 3.247 0 0 0 4.69.535 3.172 3.172 0 0 0 .323-4.711c-1.134-1.363-3.842-2.2-5.419-2.585a.932.932 0 0 0-1.155.963c.1 1.621.425 4.436 1.561 5.8" transform="translate(1.521 3.126)" style="fill:#fff"/>
                <path data-name="패스 1367" d="M58.174 19.859a3.249 3.249 0 0 0 4.32 1.905 3.172 3.172 0 0 0 1.708-4.4c-.678-1.638-3.016-3.241-4.406-4.08a.934.934 0 0 0-1.39.575c-.389 1.576-.911 4.363-.233 6" transform="translate(3.784 2.233)" style="fill:#fff"/>
                <path data-name="패스 1368" d="M11.19 36.5a3.249 3.249 0 0 0 4.32 1.905A3.171 3.171 0 0 0 17.219 34c-.678-1.638-3.016-3.241-4.406-4.08a.934.934 0 0 0-1.39.575c-.389 1.576-.911 4.363-.233 6" transform="translate(1.019 2.934)" style="fill:#fff"/>
                <path data-name="패스 1369" d="M15.75 54.061a3.249 3.249 0 0 0 .1 4.721 3.173 3.173 0 0 0 4.712-.313c1.2-1.306 1.66-4.1 1.833-5.717a.933.933 0 0 0-1.109-1.016c-1.593.313-4.338 1.018-5.536 2.325" transform="translate(1.386 4.368)" style="fill:#fff"/>
                <path data-name="패스 1370" d="M83.981 110.2a3.248 3.248 0 0 0-4.492-1.456 3.173 3.173 0 0 0-1.252 4.552c.841 1.561 3.331 2.916 4.8 3.609a.933.933 0 0 0 1.323-.713c.229-1.608.464-4.432-.377-5.993" transform="translate(5.084 7.689)" style="fill:#fff"/>
                <path data-name="패스 1372" d="M44.53 107.842a3.247 3.247 0 0 0-1.963-4.294 3.171 3.171 0 0 0-4.2 2.154c-.582 1.675.1 4.425.583 5.976a.933.933 0 0 0 1.421.493c1.339-.919 3.579-2.655 4.161-4.329" transform="translate(2.496 7.22)" style="fill:#fff"/>
                <path data-name="패스 1373" d="M22.7 77.084a3.248 3.248 0 0 0-.285-4.713 3.172 3.172 0 0 0-4.7.5c-1.145 1.353-1.5 4.165-1.607 5.785a.933.933 0 0 0 1.147.972c1.579-.375 4.3-1.188 5.44-2.541" transform="translate(1.511 5.657)" style="fill:#fff"/>
                <path data-name="패스 1375" d="M130.129 56.222a3.248 3.248 0 0 0-.286-4.713 3.172 3.172 0 0 0-4.7.5c-1.145 1.353-1.5 4.165-1.607 5.785a.933.933 0 0 0 1.147.972c1.579-.375 4.3-1.188 5.44-2.541" transform="translate(8.037 4.3)" style="fill:#fff"/>
                <path data-name="패스 1376" d="M126.16 47.74a3.248 3.248 0 0 0 3.131-3.534 3.173 3.173 0 0 0-3.672-2.97c-1.766.147-4.005 1.886-5.227 2.954a.933.933 0 0 0 .124 1.5c1.383.852 3.877 2.2 5.644 2.051" transform="translate(7.712 3.697)" style="fill:#fff"/>
                <path data-name="패스 1377" d="M124.085 35.807a3.249 3.249 0 0 0-.123-4.721 3.172 3.172 0 0 0-4.71.336c-1.191 1.313-1.642 4.11-1.806 5.726a.933.933 0 0 0 1.113 1.011c1.591-.32 4.334-1.039 5.525-2.352" transform="translate(7.465 2.966)" style="fill:#fff"/>
                <path data-name="패스 1378" d="M106.041 98.1a3.248 3.248 0 0 0 4.213-2.132 3.172 3.172 0 0 0-2.319-4.113c-1.7-.515-4.418.277-5.949.819a.934.934 0 0 0-.436 1.439c.971 1.3 2.795 3.472 4.491 3.986" transform="translate(6.581 6.998)" style="fill:#fff"/>
                <path data-name="패스 1380" d="M24.187 20.666a3.249 3.249 0 0 0 4.487 1.472 3.174 3.174 0 0 0 1.269-4.549c-.836-1.563-3.321-2.928-4.786-3.626a.933.933 0 0 0-1.326.709c-.234 1.607-.479 4.431.357 5.994" transform="translate(1.544 2.301)" style="fill:#fff"/>
                <path data-name="패스 1381" d="M121.757 89.661a3.249 3.249 0 0 0 4.487 1.472 3.174 3.174 0 0 0 1.269-4.549c-.836-1.563-3.321-2.928-4.786-3.626a.933.933 0 0 0-1.326.709c-.234 1.607-.479 4.431.357 5.994" transform="translate(7.815 6.384)" style="fill:#fff"/>
                <path data-name="패스 1384" d="M5.275 86.441a3.248 3.248 0 0 0 1.489 4.481 3.173 3.173 0 0 0 4.41-1.69c.758-1.6.375-4.41.063-6a.933.933 0 0 0-1.36-.643c-1.43.769-3.845 2.253-4.6 3.856" transform="translate(.46 6.356)" style="fill:#fff"/>
                <path data-name="패스 1386" d="M4.677 68.56a3.248 3.248 0 0 0 4.213-2.132 3.172 3.172 0 0 0-2.319-4.113c-1.7-.515-4.418.277-5.949.819a.934.934 0 0 0-.436 1.439c.971 1.3 2.795 3.472 4.491 3.986" transform="translate(0 5.066)" style="fill:#fff"/>
                <path data-name="패스 1387" d="M90.737 111.14a3.248 3.248 0 0 0 4.213-2.132 3.172 3.172 0 0 0-2.319-4.113c-1.7-.515-4.418.277-5.949.819a.934.934 0 0 0-.436 1.439c.971 1.3 2.795 3.472 4.491 3.986" transform="translate(5.587 7.35)" style="fill:#fff"/>
                <path data-name="패스 1389" d="M42.065 10a3.249 3.249 0 0 0 4.06 2.412 3.174 3.174 0 0 0 2.226-4.165c-.476-1.707-2.6-3.579-3.884-4.579a.933.933 0 0 0-1.448.4c-.578 1.518-1.43 4.221-.954 5.928" transform="translate(2.744 1.325)" style="fill:#fff"/>
                <path data-name="패스 1390" d="M111.7 81.431a3.249 3.249 0 0 0-4.5 1.416 3.173 3.173 0 0 0 1.618 4.436c1.59.784 4.4.446 6 .16a.933.933 0 0 0 .665-1.349c-.746-1.442-2.191-3.88-3.781-4.664" transform="translate(6.47 6.298)" style="fill:#fff"/>
                <path data-name="패스 1393" d="M83.92 21.445a3.247 3.247 0 0 0 .3-4.712 3.173 3.173 0 0 0-4.721-.087c-1.3 1.2-2 3.949-2.309 5.543a.932.932 0 0 0 1.018 1.106c1.614-.177 4.409-.649 5.713-1.85" transform="translate(5.029 2.467)" style="fill:#fff"/>
            </g>
        </g>
    </g>
    <path data-name="사각형 2849" style="fill:none" d="M0 0h140v140H0z"/>
</svg>
