<svg xmlns="http://www.w3.org/2000/svg" width="375" height="540" viewBox="0 0 375 540">
    <defs>
        <clipPath id="4zuodovila">
            <path data-name="사각형 2883" transform="translate(0 96)" style="fill:none" d="M0 0h375v60.256H0z"/>
        </clipPath>
        <clipPath id="z3o5f07kzb">
            <path data-name="사각형 2884" transform="translate(0 48.001)" style="fill:none" d="M0 0h374.998v60.256H0z"/>
        </clipPath>
        <clipPath id="yqg18vul8c">
            <path data-name="사각형 2885" style="fill:none" d="M0 0h374.998v60.256H0z"/>
        </clipPath>
        <clipPath id="okfhisbv4d">
            <path data-name="사각형 2898" style="fill:none" d="M0 0h375v539.806H0z"/>
        </clipPath>
    </defs>
    <g data-name="그룹 2572">
        <g data-name="그룹 2565">
            <g data-name="그룹 2564" style="clip-path:url(#4zuodovila)">
                <path data-name="패스 15027" d="M14.515 149.258a12.985 12.985 0 0 0 17.854-.014 18.552 18.552 0 0 0 29.03.027 18.552 18.552 0 0 0 29.02-.014 12.985 12.985 0 0 0 17.854-.014 18.535 18.535 0 0 0 28.409.757 15.89 15.89 0 0 0 9.4 0 18.538 18.538 0 0 0 28.4-.737 12.985 12.985 0 0 0 17.854-.014 18.567 18.567 0 0 0 31.576-4.191 12.015 12.015 0 0 0 3.09 0 18.567 18.567 0 0 0 31.565 4.2 12.984 12.984 0 0 0 17.854-.014 18.531 18.531 0 0 0 26.035 3q.432-.344.844-.712a15.808 15.808 0 0 0 12.457 0 18.531 18.531 0 0 0 26.167-1.439q.363-.405.7-.831a12.985 12.985 0 0 0 17.854-.014A18.537 18.537 0 0 0 375 156.256V96H0v60.256a18.537 18.537 0 0 0 14.515-7" style="fill:#418c48"/>
            </g>
        </g>
        <g data-name="그룹 2567">
            <g data-name="그룹 2566" style="clip-path:url(#z3o5f07kzb)">
                <path data-name="패스 15028" d="M360.483 101.259a12.985 12.985 0 0 1-17.854-.014 18.552 18.552 0 0 1-29.03.027 18.552 18.552 0 0 1-29.02-.014 12.985 12.985 0 0 1-17.854-.014 18.535 18.535 0 0 1-28.408.757 15.89 15.89 0 0 1-9.4 0 18.538 18.538 0 0 1-28.4-.737 12.985 12.985 0 0 1-17.854-.014 18.566 18.566 0 0 1-31.576-4.191 12.015 12.015 0 0 1-3.09 0 18.567 18.567 0 0 1-31.564 4.2 12.984 12.984 0 0 1-17.854-.014 18.529 18.529 0 0 1-26.033 3q-.433-.343-.846-.713a15.808 15.808 0 0 1-12.457 0 18.53 18.53 0 0 1-26.167-1.439q-.363-.4-.7-.831a12.985 12.985 0 0 1-17.854-.014A18.537 18.537 0 0 1 0 108.257V48h375v60.256a18.537 18.537 0 0 1-14.515-7" style="fill:#409b54"/>
            </g>
        </g>
        <g data-name="그룹 2569">
            <g data-name="그룹 2568" style="clip-path:url(#yqg18vul8c)">
                <path data-name="패스 15029" d="M360.483 53.258a12.985 12.985 0 0 1-17.854-.014 18.552 18.552 0 0 1-29.03.027 18.552 18.552 0 0 1-29.02-.014 12.985 12.985 0 0 1-17.854-.014 18.535 18.535 0 0 1-28.408.757 15.89 15.89 0 0 1-9.4 0 18.538 18.538 0 0 1-28.4-.737 12.985 12.985 0 0 1-17.854-.014 18.566 18.566 0 0 1-31.576-4.191 12.015 12.015 0 0 1-3.09 0 18.567 18.567 0 0 1-31.564 4.2 12.984 12.984 0 0 1-17.854-.014 18.529 18.529 0 0 1-26.033 3q-.433-.344-.846-.713a15.808 15.808 0 0 1-12.457 0 18.53 18.53 0 0 1-26.167-1.439q-.363-.405-.7-.831a12.985 12.985 0 0 1-17.854-.014A18.537 18.537 0 0 1 0 60.256V0h375v60.256a18.537 18.537 0 0 1-14.515-7" style="fill:#56b36b"/>
            </g>
        </g>
        <path data-name="사각형 2886" transform="translate(85.609 448.413)" style="fill:#73be84" d="M0 0h18.85v52.7H0z"/>
        <path data-name="사각형 2887" transform="translate(85.609 434.6)" style="fill:#409b54" d="M0 0h18.85v28.97H0z"/>
        <g data-name="그룹 2571">
            <g data-name="그룹 2570" style="clip-path:url(#okfhisbv4d)">
                <path data-name="패스 15030" d="M119.71 439.842a8.531 8.531 0 0 1-11.654-10.779 28.694 28.694 0 0 0-4.132-1.654 8.549 8.549 0 1 1-16.953-.179 28.9 28.9 0 0 0-3.388 1.208A8.537 8.537 0 0 1 71 439.142a25.4 25.4 0 0 0-3.622 9.908 3.119 3.119 0 0 0 3.1 3.535h3.838a8.547 8.547 0 1 1 16.993 0h7.672a8.546 8.546 0 1 1 17.044-.91 8.825 8.825 0 0 1-.05.91h3.838a3.119 3.119 0 0 0 3.1-3.535 25.367 25.367 0 0 0-3.2-9.208" style="fill:#73be84"/>
                <path data-name="패스 15031" d="M95.434 436.91a8.547 8.547 0 0 0 8.546-8.547 8.839 8.839 0 0 0-.056-.954 29.6 29.6 0 0 0-16.954-.179 8.819 8.819 0 0 0-.084 1.133 8.548 8.548 0 0 0 8.548 8.547" style="fill:#91d09f"/>
                <path data-name="패스 15032" d="M116.021 440.688a8.485 8.485 0 0 0 3.688-.846 27.477 27.477 0 0 0-11.654-10.779 8.531 8.531 0 0 0 7.966 11.625" style="fill:#91d09f"/>
                <path data-name="패스 15033" d="M84.436 432.141a8.493 8.493 0 0 0-.853-3.7A27.648 27.648 0 0 0 71 439.142a8.54 8.54 0 0 0 13.44-7" style="fill:#91d09f"/>
                <path data-name="패스 15034" d="M107.475 443.128a8.548 8.548 0 0 0-8.548 8.547 8.3 8.3 0 0 0 .051.91h16.993a8.3 8.3 0 0 0 .05-.91 8.547 8.547 0 0 0-8.546-8.547" style="fill:#91d09f"/>
                <path data-name="패스 15035" d="M82.809 443.128a8.534 8.534 0 0 0-8.5 9.457h16.997a8.534 8.534 0 0 0-8.5-9.457" style="fill:#91d09f"/>
                <path data-name="패스 15036" d="M18.59 445.713A72.6 72.6 0 0 0 0 448.048v16.765A56.577 56.577 0 0 1 74.857 518.5h15.96a72.508 72.508 0 0 0-72.227-72.787" style="fill:#73be84"/>
                <path data-name="패스 15037" d="M18.3 473.977A44.532 44.532 0 0 1 62.842 518.5h12.014A56.579 56.579 0 0 0 0 464.813v13.105a44.356 44.356 0 0 1 18.3-3.941" style="fill:#91d09f"/>
                <path data-name="패스 15038" d="M18.3 473.977A44.356 44.356 0 0 0 0 477.918V518.5h62.842A44.532 44.532 0 0 0 18.3 473.977" style="fill:#56b36b"/>
                <path data-name="패스 15039" d="M233.691 518.809a20.923 20.923 0 0 0-7.958 1.571 41.988 41.988 0 0 0-71.793-4.418 28.083 28.083 0 0 0-26.44-1.762 60.8 60.8 0 0 0-104.7-9.65A41.784 41.784 0 0 0 0 497.811v42h254.689a21 21 0 0 0-21-21" style="fill:#409b54"/>
                <path data-name="패스 15040" d="M98.849 539.789h8.651v-30.248l-4.324-6.022-4.325 6.022z" style="fill:#91d09f"/>
                <path data-name="패스 15041" d="M86.493 539.789h8.649v-30.248l-4.324-6.022-4.325 6.022z" style="fill:#91d09f"/>
                <path data-name="패스 15042" d="M74.137 539.789h8.649v-30.248l-4.324-6.022-4.325 6.022z" style="fill:#91d09f"/>
                <path data-name="패스 15043" d="M61.78 539.789h8.649v-30.248l-4.324-6.022-4.325 6.022z" style="fill:#91d09f"/>
                <path data-name="패스 15044" d="M49.424 539.789h8.649v-30.248l-4.324-6.022-4.325 6.022z" style="fill:#91d09f"/>
                <path data-name="패스 15045" d="M37.068 539.789h8.649v-30.248l-4.324-6.022-4.325 6.022z" style="fill:#91d09f"/>
                <path data-name="패스 15046" d="M24.712 539.789h8.649v-30.248l-4.324-6.022-4.325 6.022z" style="fill:#91d09f"/>
                <path data-name="패스 15047" d="M12.356 539.789h8.649v-30.248l-4.324-6.022-4.325 6.022z" style="fill:#91d09f"/>
                <path data-name="패스 15048" d="M0 539.789h8.649v-30.248l-4.324-6.022L0 509.541z" style="fill:#91d09f"/>
                <path data-name="사각형 2888" transform="translate(5.157 516.838)" style="fill:#91d09f" d="M0 0h98.016v2.928H0z"/>
                <path data-name="사각형 2889" transform="translate(5.157 528.49)" style="fill:#91d09f" d="M0 0h98.016v2.928H0z"/>
                <path data-name="패스 15049" d="M356.643 514.2a28.09 28.09 0 0 0-26.437 1.762 41.988 41.988 0 0 0-71.793 4.419 20.986 20.986 0 0 0-28.955 19.426H375V491.4a61.067 61.067 0 0 0-18.357 22.8" style="fill:#409b54"/>
                <path data-name="사각형 2890" transform="translate(273.603 441.579)" style="fill:#73be84" d="M0 0h59.311v98.21H0z"/>
                <path data-name="사각형 2891" transform="translate(273.603 423.489)" style="fill:#409b54" d="M0 0h59.311v25.313H0z"/>
                <path data-name="사각형 2892" transform="translate(228.258 487.089)" style="fill:#73be84" d="M0 0h18.85v52.7H0z"/>
                <path data-name="사각형 2893" transform="translate(228.258 473.276)" style="fill:#409b54" d="M0 0h18.85v28.97H0z"/>
                <path data-name="패스 15050" d="M303.6 309.665c-62.388 0-113.931 43.936-121.952 100.89a13.7 13.7 0 0 0 13.62 15.523H375v-94.809a127.262 127.262 0 0 0-71.4-21.6" style="fill:#73be84"/>
                <path data-name="패스 15051" d="M235.6 385.892A12.9 12.9 0 1 1 222.7 373a12.9 12.9 0 0 1 12.9 12.9" style="fill:#91d09f"/>
                <path data-name="패스 15052" d="M291.572 385.892a12.9 12.9 0 1 1-12.9-12.9 12.9 12.9 0 0 1 12.9 12.9" style="fill:#91d09f"/>
                <path data-name="패스 15053" d="M347.549 385.892a12.9 12.9 0 1 1-12.9-12.9 12.9 12.9 0 0 1 12.9 12.9" style="fill:#91d09f"/>
                <path data-name="패스 15054" d="M262.359 478.517a8.531 8.531 0 0 1-11.654-10.779 28.7 28.7 0 0 0-4.132-1.654 8.549 8.549 0 1 1-16.953-.179 28.9 28.9 0 0 0-3.388 1.208 8.537 8.537 0 0 1-12.587 10.7 25.4 25.4 0 0 0-3.622 9.908 3.119 3.119 0 0 0 3.1 3.535h3.838a8.547 8.547 0 1 1 16.993 0h7.672a8.546 8.546 0 1 1 17.044-.91 8.824 8.824 0 0 1-.05.91h3.838a3.119 3.119 0 0 0 3.1-3.535 25.367 25.367 0 0 0-3.2-9.208" style="fill:#73be84"/>
                <path data-name="패스 15055" d="M238.083 475.585a8.517 8.517 0 0 0 8.49-9.5 29.6 29.6 0 0 0-16.953-.179 8.645 8.645 0 0 0-.084 1.133 8.547 8.547 0 0 0 8.547 8.547" style="fill:#91d09f"/>
                <path data-name="패스 15056" d="M258.671 479.363a8.485 8.485 0 0 0 3.688-.846 27.477 27.477 0 0 0-11.654-10.779 8.531 8.531 0 0 0 7.966 11.625" style="fill:#91d09f"/>
                <path data-name="패스 15057" d="M227.086 470.817a8.493 8.493 0 0 0-.853-3.7 27.648 27.648 0 0 0-12.587 10.7 8.54 8.54 0 0 0 13.44-7" style="fill:#91d09f"/>
                <path data-name="패스 15058" d="M250.124 481.8a8.534 8.534 0 0 0-8.5 9.457h16.994a8.535 8.535 0 0 0-8.5-9.457" style="fill:#91d09f"/>
                <path data-name="패스 15059" d="M225.459 481.8a8.534 8.534 0 0 0-8.5 9.457h16.994a8.534 8.534 0 0 0-8.5-9.457" style="fill:#91d09f"/>
                <path data-name="사각형 2894" transform="translate(39.891 408.307)" style="fill:#73be84" d="M0 0h18.85v52.7H0z"/>
                <path data-name="사각형 2895" transform="translate(39.891 394.494)" style="fill:#409b54" d="M0 0h18.85v28.97H0z"/>
                <path data-name="패스 15060" d="M73.992 399.736a8.531 8.531 0 0 1-11.654-10.779 28.694 28.694 0 0 0-4.132-1.654 8.549 8.549 0 1 1-16.953-.179 28.9 28.9 0 0 0-3.388 1.208 8.537 8.537 0 0 1-12.587 10.7 25.4 25.4 0 0 0-3.622 9.908 3.119 3.119 0 0 0 3.1 3.535h3.838a8.547 8.547 0 1 1 16.993 0h7.673a8.546 8.546 0 1 1 17.044-.91 8.824 8.824 0 0 1-.05.91h3.838a3.119 3.119 0 0 0 3.1-3.535 25.367 25.367 0 0 0-3.2-9.208" style="fill:#73be84"/>
                <path data-name="패스 15061" d="M49.716 396.8a8.517 8.517 0 0 0 8.49-9.5 29.6 29.6 0 0 0-16.953-.179 8.644 8.644 0 0 0-.084 1.133 8.547 8.547 0 0 0 8.547 8.547" style="fill:#91d09f"/>
                <path data-name="패스 15062" d="M70.3 400.582a8.485 8.485 0 0 0 3.688-.846 27.477 27.477 0 0 0-11.654-10.779 8.531 8.531 0 0 0 7.966 11.625" style="fill:#91d09f"/>
                <path data-name="패스 15063" d="M38.718 392.035a8.493 8.493 0 0 0-.853-3.7 27.648 27.648 0 0 0-12.587 10.7 8.54 8.54 0 0 0 13.44-7" style="fill:#91d09f"/>
                <path data-name="패스 15064" d="M61.757 403.022a8.534 8.534 0 0 0-8.5 9.457h16.997a8.534 8.534 0 0 0-8.5-9.457" style="fill:#91d09f"/>
                <path data-name="패스 15065" d="M37.092 403.022a8.534 8.534 0 0 0-8.5 9.457h16.997a8.534 8.534 0 0 0-8.5-9.457" style="fill:#91d09f"/>
                <path data-name="패스 15066" d="M237.792 426.078a12.9 12.9 0 0 1 25.792 0z" style="fill:#91d09f"/>
                <path data-name="패스 15067" d="M293.768 426.078a12.9 12.9 0 0 1 25.792 0z" style="fill:#91d09f"/>
                <path data-name="패스 15068" d="M347.549 426.078a12.9 12.9 0 0 1 25.792 0z" style="fill:#91d09f"/>
                <path data-name="패스 15069" d="M366.351 539.789H375v-30.248l-4.324-6.022-4.325 6.022z" style="fill:#91d09f"/>
                <path data-name="패스 15070" d="M353.995 539.789h8.649v-30.248l-4.324-6.022-4.325 6.022z" style="fill:#91d09f"/>
                <path data-name="패스 15071" d="M341.638 539.789h8.649v-30.248l-4.324-6.022-4.325 6.022z" style="fill:#91d09f"/>
                <path data-name="패스 15072" d="M329.283 539.789h8.649v-30.248l-4.324-6.022-4.325 6.022z" style="fill:#91d09f"/>
                <path data-name="패스 15073" d="M316.926 539.789h8.649v-30.248l-4.324-6.022-4.325 6.022z" style="fill:#91d09f"/>
                <path data-name="패스 15074" d="M304.57 539.789h8.649v-30.248l-4.324-6.022-4.325 6.022z" style="fill:#91d09f"/>
                <path data-name="패스 15075" d="M292.214 539.789h8.649v-30.248l-4.324-6.022-4.325 6.022z" style="fill:#91d09f"/>
                <path data-name="패스 15076" d="M279.858 539.789h8.649v-30.248l-4.324-6.022-4.325 6.022z" style="fill:#91d09f"/>
                <path data-name="패스 15077" d="M267.5 539.789h8.649v-30.248l-4.324-6.022-4.325 6.022z" style="fill:#91d09f"/>
                <path data-name="사각형 2896" transform="translate(272.659 516.838)" style="fill:#91d09f" d="M0 0h98.016v2.928H0z"/>
                <path data-name="사각형 2897" transform="translate(272.659 528.49)" style="fill:#91d09f" d="M0 0h98.016v2.928H0z"/>
            </g>
        </g>
    </g>
    <path data-name="사각형 2871" style="fill:none" d="M0 0h375v540H0z"/>
</svg>
