<svg xmlns="http://www.w3.org/2000/svg" width="375" height="380" viewBox="0 0 375 380">
    <defs>
        <clipPath id="fsx40co9pa">
            <path data-name="사각형 2855" style="fill:none" d="M0 0h375v318.442H0z"/>
        </clipPath>
    </defs>
    <path data-name="사각형 2852" style="fill:none" d="M0 0h375v380H0z"/>
    <g data-name="그룹 2549">
        <g data-name="그룹 2548" style="clip-path:url(#fsx40co9pa)" transform="translate(0 61)">
            <path data-name="패스 14741" d="M0 92.237h141.246a18.493 18.493 0 0 1 18.493 18.493v97.834H0z" style="fill:#3e9b67"/>
            <path data-name="패스 14742" d="M116.877 138.341h238.117a20 20 0 0 1 20 20v68.222a20 20 0 0 1-20 20H116.877a20 20 0 0 1-20-20v-68.222a20 20 0 0 1 20-20" style="fill:#73be84"/>
            <path data-name="패스 14743" d="M354.994 246.562H116.877a20.022 20.022 0 0 1-20-20v-68.221a20.023 20.023 0 0 1 20-20h238.117a20.023 20.023 0 0 1 20 20v68.222a20.022 20.022 0 0 1-20 20m-238.117-98.222a10.011 10.011 0 0 0-10 10v68.222a10.011 10.011 0 0 0 10 10h238.117a10.011 10.011 0 0 0 10-10v-68.222a10.011 10.011 0 0 0-10-10z" style="fill:#91d09f"/>
            <path data-name="패스 14744" d="m368.194 162.774-5.044 5.045a4.8 4.8 0 0 1-6.772 0l-5.044-5.045a10.289 10.289 0 0 0-14.534 0l-5.045 5.045a4.8 4.8 0 0 1-6.771 0l-5.048-5.045a10.289 10.289 0 0 0-14.534 0l-5.044 5.045a4.8 4.8 0 0 1-6.771 0l-5.045-5.045a10.289 10.289 0 0 0-14.534 0l-5.045 5.045a4.8 4.8 0 0 1-6.771 0l-5.045-5.045a10.289 10.289 0 0 0-14.534 0l-5.045 5.045a4.8 4.8 0 0 1-6.771 0l-5.046-5.045a10.288 10.288 0 0 0-14.533 0l-5.045 5.045a4.8 4.8 0 0 1-6.772 0l-5.045-5.045a10.232 10.232 0 0 0-6.856-2.995 10.207 10.207 0 0 0-6.806 3l-5.044 5.045a4.8 4.8 0 0 1-6.771 0l-5.046-5.045a10.288 10.288 0 0 0-14.533 0l-5.045 5.045a4.8 4.8 0 0 1-6.771 0l-5.048-5.045a10.289 10.289 0 0 0-14.534 0l-5.044 5.045a4.8 4.8 0 0 1-6.771 0l-5.045-5.045a10.289 10.289 0 0 0-14.534 0l-5.044 5.045a4.8 4.8 0 0 1-6.772 0l-5.045-5.045a10.288 10.288 0 0 0-14.533 0l-5.045 5.045a4.8 4.8 0 0 1-6.772 0l-5.046-5.045a10.288 10.288 0 0 0-14.533 0l-5.045 5.045a4.8 4.8 0 0 1-6.772 0l-5.045-5.045a10.232 10.232 0 0 0-6.856-3v48.2h375v-48.204a10.207 10.207 0 0 0-6.806 3" style="fill:#91d09f"/>
            <path data-name="패스 14745" d="m368.194 183.87-5.044 5.045a4.8 4.8 0 0 1-6.772 0l-5.044-5.045a10.289 10.289 0 0 0-14.534 0l-5.045 5.045a4.8 4.8 0 0 1-6.771 0l-5.048-5.045a10.289 10.289 0 0 0-14.534 0l-5.044 5.045a4.8 4.8 0 0 1-6.771 0l-5.045-5.045a10.289 10.289 0 0 0-14.534 0l-5.045 5.045a4.8 4.8 0 0 1-6.771 0l-5.045-5.045a10.289 10.289 0 0 0-14.534 0l-5.045 5.045a4.8 4.8 0 0 1-6.771 0l-5.046-5.045a10.288 10.288 0 0 0-14.533 0l-5.045 5.045a4.8 4.8 0 0 1-6.772 0l-5.045-5.045a10.232 10.232 0 0 0-6.856-2.995 10.207 10.207 0 0 0-6.806 3l-5.044 5.045a4.8 4.8 0 0 1-6.771 0l-5.046-5.045a10.288 10.288 0 0 0-14.533 0l-5.045 5.045a4.8 4.8 0 0 1-6.771 0l-5.048-5.045a10.289 10.289 0 0 0-14.534 0l-5.044 5.045a4.8 4.8 0 0 1-6.771 0l-5.045-5.045a10.289 10.289 0 0 0-14.534 0l-5.044 5.045a4.8 4.8 0 0 1-6.772 0l-5.045-5.045a10.288 10.288 0 0 0-14.533 0l-5.045 5.045a4.8 4.8 0 0 1-6.772 0l-5.046-5.045a10.288 10.288 0 0 0-14.533 0l-5.045 5.045a4.8 4.8 0 0 1-6.772 0l-5.045-5.05A10.232 10.232 0 0 0 0 180.875v96.448h375v-96.452a10.207 10.207 0 0 0-6.806 3" style="fill:#56b36b"/>
            <path data-name="패스 14746" d="M343.849 138.127a89.358 89.358 0 0 0-178.715-.845v.845z" style="fill:#91d09f"/>
            <path data-name="패스 14747" d="M324.179 138.127A69.687 69.687 0 0 0 184.8 138.1v.023z" style="fill:#56b36b"/>
            <path data-name="패스 14748" d="M317.447 138.127a62.954 62.954 0 0 0-125.909 0z" style="fill:#73be84"/>
            <path data-name="패스 14749" d="M304.47 138.127a49.979 49.979 0 0 0-99.957 0z" style="fill:#3e9b67"/>
            <path data-name="패스 14750" d="M297.291 138.127a42.8 42.8 0 0 0-85.6 0z" style="fill:#91d09f"/>
            <path data-name="패스 14751" d="M297.248 252.361a132.116 132.116 0 1 0-264.23-1.022v1.022z" style="fill:#73be84"/>
            <path data-name="패스 14752" d="M268.167 252.361A103.032 103.032 0 0 0 62.1 251.72v.641z" style="fill:#91d09f"/>
            <path data-name="패스 14753" d="M246.276 252.361a81.141 81.141 0 0 0-162.282 0z" style="fill:#56b36b"/>
            <path data-name="패스 14754" d="M228.414 252.361a63.281 63.281 0 0 0-126.562 0z" style="fill:#3e9b67"/>
            <path data-name="패스 14755" d="m363.257 232.548-8.663 8.663a8.231 8.231 0 0 1-11.626 0l-8.663-8.663a17.57 17.57 0 0 0-11.766-5.143v-.005a17.514 17.514 0 0 0-11.689 5.151l-8.662 8.662a8.229 8.229 0 0 1-11.626 0l-8.662-8.663a17.664 17.664 0 0 0-24.952 0l-8.662 8.663a8.232 8.232 0 0 1-11.627 0l-4.52-4.521-4.139-4.143a17.664 17.664 0 0 0-24.952 0l-8.662 8.663a8.232 8.232 0 0 1-11.627 0l-8.662-8.662a17.664 17.664 0 0 0-24.952 0l-8.663 8.662a8.229 8.229 0 0 1-11.626 0l-8.662-8.663a17.664 17.664 0 0 0-24.952 0l-8.663 8.662a8.232 8.232 0 0 1-11.627 0l-8.662-8.663a17.667 17.667 0 0 0-24.954 0l-8.661 8.663a8.232 8.232 0 0 1-11.627 0l-8.663-8.663A17.573 17.573 0 0 0 .611 227.4v29.048a17.568 17.568 0 0 1 11.771 5.152l8.663 8.662a8.232 8.232 0 0 0 11.627 0l8.661-8.662a17.665 17.665 0 0 1 24.954 0l8.662 8.662a8.23 8.23 0 0 0 11.627 0l8.663-8.661a17.662 17.662 0 0 1 24.952 0l8.662 8.662a8.229 8.229 0 0 0 11.626 0l8.663-8.661a17.662 17.662 0 0 1 24.952 0l8.662 8.661a8.23 8.23 0 0 0 11.627 0l8.662-8.662a17.662 17.662 0 0 1 24.952 0l4.142 4.141 4.52 4.521a8.232 8.232 0 0 0 11.627 0l8.662-8.662a17.662 17.662 0 0 1 24.952 0l8.662 8.662a8.229 8.229 0 0 0 11.626 0l8.662-8.661a17.51 17.51 0 0 1 11.689-5.151v.006A17.565 17.565 0 0 1 334.3 261.6l8.663 8.662a8.231 8.231 0 0 0 11.626 0l8.663-8.662a17.582 17.582 0 0 1 11.737-5.125v-29.051a17.581 17.581 0 0 0-11.737 5.124" style="fill:#73be84"/>
            <path data-name="패스 14756" d="m363.257 261.6-8.663 8.663a8.231 8.231 0 0 1-11.626 0L334.3 261.6a17.57 17.57 0 0 0-11.766-5.143v-.006a17.514 17.514 0 0 0-11.684 5.149l-8.662 8.662a8.229 8.229 0 0 1-11.626 0L281.9 261.6a17.664 17.664 0 0 0-24.952 0l-8.662 8.663a8.232 8.232 0 0 1-11.627 0l-4.52-4.521L228 261.6a17.664 17.664 0 0 0-24.952 0l-8.662 8.663a8.232 8.232 0 0 1-11.627 0l-8.662-8.662a17.664 17.664 0 0 0-24.952 0l-8.663 8.662a8.229 8.229 0 0 1-11.626 0l-8.662-8.663a17.664 17.664 0 0 0-24.952 0l-8.663 8.662a8.232 8.232 0 0 1-11.627 0l-8.665-8.662a17.667 17.667 0 0 0-24.954 0l-8.661 8.663a8.232 8.232 0 0 1-11.627 0l-8.663-8.663a17.573 17.573 0 0 0-11.771-5.148v61.989h374.383v-61.97a17.58 17.58 0 0 0-11.737 5.124" style="fill:#56b36b"/>
            <path data-name="패스 14757" d="M34.471 36.355c1.941.572 5.768 1.433 8.475.332 3.767-1.531 4.835-4.061 3.933-6.28s-3.433-3.287-7.2-1.755c-2.235.908-4.075 3.3-5.209 5.1V23.494c1.941.572 5.768 1.433 8.475.332 3.767-1.531 4.835-4.061 3.933-6.28s-3.433-3.287-7.2-1.755a7.039 7.039 0 0 0-1.446.839v-.05c0-3.01-2.418-6.193-3.485-7.452V4.035a2.051 2.051 0 1 0-1 0v5.093c-1.066 1.259-3.484 4.442-3.484 7.452 0 .255.028.483.043.723a7.98 7.98 0 0 0-2.279-1.512c-3.766-1.531-6.3-.464-7.2 1.755s.173 4.754 3.937 6.28c2.706 1.1 6.535.239 8.476-.332v10.261c-1.136-1.8-2.974-4.194-5.208-5.1-3.766-1.531-6.3-.464-7.2 1.755s.166 4.749 3.933 6.28c2.706 1.1 6.535.239 8.476-.332v10.258c-1.136-1.8-2.974-4.194-5.208-5.1-3.766-1.531-6.3-.464-7.2 1.755s.166 4.749 3.933 6.28c2.706 1.1 6.535.239 8.476-.332v10.26c-1.136-1.8-2.974-4.193-5.208-5.1-3.766-1.531-6.3-.464-7.2 1.755s.166 4.749 3.933 6.28c2.706 1.1 6.535.239 8.476-.332v10.26c-1.136-1.8-2.974-4.194-5.208-5.1-3.766-1.53-6.3-.463-7.2 1.755s.166 4.749 3.933 6.28c2.706 1.1 6.535.239 8.476-.332v17.3h1.231v-17.3c1.941.572 5.768 1.433 8.475.332 3.767-1.531 4.835-4.061 3.933-6.28s-3.433-3.286-7.2-1.755c-2.235.909-4.075 3.3-5.209 5.1V62.077c1.941.572 5.768 1.433 8.475.332 3.767-1.531 4.835-4.061 3.933-6.28s-3.433-3.287-7.2-1.755c-2.235.908-4.075 3.3-5.209 5.1V49.216c1.941.572 5.768 1.433 8.475.332 3.767-1.531 4.835-4.061 3.933-6.28s-3.433-3.287-7.2-1.755c-2.235.908-4.075 3.3-5.209 5.1V36.355z" style="fill:#3e9b67"/>
            <path data-name="패스 14758" d="M62.718 36.355c1.941.572 5.768 1.433 8.475.332 3.767-1.531 4.835-4.061 3.933-6.28s-3.433-3.287-7.2-1.755c-2.235.908-4.075 3.3-5.209 5.1V23.494c1.941.572 5.768 1.433 8.475.332 3.767-1.531 4.835-4.061 3.933-6.28s-3.433-3.287-7.2-1.755a7.039 7.039 0 0 0-1.446.839v-.05c0-3.01-2.418-6.193-3.485-7.452V4.035a2.051 2.051 0 1 0-1 0v5.093c-1.066 1.259-3.484 4.442-3.484 7.452 0 .255.028.483.043.723a7.98 7.98 0 0 0-2.279-1.512c-3.766-1.531-6.3-.464-7.2 1.755s.166 4.749 3.933 6.28c2.706 1.1 6.535.239 8.476-.332v10.261c-1.136-1.8-2.974-4.194-5.208-5.1-3.766-1.531-6.3-.464-7.2 1.755s.166 4.749 3.933 6.28c2.706 1.1 6.535.239 8.476-.332v10.258c-1.136-1.8-2.974-4.194-5.208-5.1-3.766-1.531-6.3-.464-7.2 1.755s.166 4.749 3.933 6.28c2.706 1.1 6.535.239 8.476-.332v10.26c-1.136-1.8-2.974-4.193-5.208-5.1-3.766-1.531-6.3-.464-7.2 1.755s.166 4.749 3.933 6.28c2.706 1.1 6.535.239 8.476-.332v10.26c-1.136-1.8-2.974-4.194-5.208-5.1-3.766-1.53-6.3-.463-7.2 1.755s.166 4.749 3.933 6.28c2.706 1.1 6.535.239 8.476-.332v17.3h1.231v-17.3c1.941.572 5.768 1.433 8.475.332 3.767-1.531 4.835-4.061 3.933-6.28s-3.433-3.286-7.2-1.755c-2.235.909-4.075 3.3-5.209 5.1V62.077c1.941.572 5.768 1.433 8.475.332 3.767-1.531 4.835-4.061 3.933-6.28s-3.433-3.287-7.2-1.755c-2.235.908-4.075 3.3-5.209 5.1V49.216c1.941.572 5.768 1.433 8.475.332 3.767-1.531 4.835-4.061 3.933-6.28s-3.433-3.287-7.2-1.755c-2.235.908-4.075 3.3-5.209 5.1V36.355z" style="fill:#3e9b67"/>
            <path data-name="패스 14759" d="M90.966 36.355c1.941.572 5.768 1.433 8.475.332 3.767-1.531 4.835-4.061 3.933-6.28s-3.433-3.287-7.2-1.755c-2.235.908-4.075 3.3-5.209 5.1V23.494c1.941.572 5.768 1.433 8.475.332 3.767-1.531 4.835-4.061 3.933-6.28s-3.433-3.287-7.2-1.755a7.039 7.039 0 0 0-1.446.839v-.05c0-3.01-2.418-6.193-3.485-7.452V4.035a2.051 2.051 0 1 0-1 0v5.093c-1.066 1.259-3.484 4.442-3.484 7.452 0 .255.028.483.043.723a7.98 7.98 0 0 0-2.279-1.512c-3.766-1.531-6.3-.464-7.2 1.755s.166 4.749 3.933 6.28c2.706 1.1 6.535.239 8.476-.332v10.261c-1.136-1.8-2.974-4.194-5.208-5.1-3.766-1.531-6.3-.464-7.2 1.755s.166 4.749 3.933 6.28c2.706 1.1 6.535.239 8.476-.332v10.258c-1.136-1.8-2.974-4.194-5.208-5.1-3.766-1.531-6.3-.464-7.2 1.755s.166 4.749 3.933 6.28c2.706 1.1 6.535.239 8.476-.332v10.26c-1.136-1.8-2.974-4.193-5.208-5.1-3.766-1.531-6.3-.464-7.2 1.755s.166 4.749 3.933 6.28c2.706 1.1 6.535.239 8.476-.332v10.26c-1.136-1.8-2.974-4.194-5.208-5.1-3.766-1.53-6.3-.463-7.2 1.755s.166 4.749 3.933 6.28c2.706 1.1 6.535.239 8.476-.332v17.3h1.231v-17.3c1.941.572 5.768 1.433 8.475.332 3.767-1.531 4.835-4.061 3.933-6.28s-3.433-3.286-7.2-1.755c-2.235.909-4.075 3.3-5.209 5.1V62.077c1.941.572 5.768 1.433 8.475.332 3.767-1.531 4.835-4.061 3.933-6.28s-3.433-3.287-7.2-1.755c-2.235.908-4.075 3.3-5.209 5.1V49.216c1.941.572 5.768 1.433 8.475.332 3.767-1.531 4.835-4.061 3.933-6.28s-3.433-3.287-7.2-1.755c-2.235.908-4.075 3.3-5.209 5.1V36.355z" style="fill:#3e9b67"/>
            <path data-name="패스 14760" d="M119.214 36.355c1.941.572 5.768 1.433 8.475.332 3.767-1.531 4.835-4.061 3.933-6.28s-3.433-3.287-7.2-1.755c-2.235.908-4.075 3.3-5.209 5.1V23.494c1.941.572 5.768 1.433 8.475.332 3.767-1.531 4.835-4.061 3.933-6.28s-3.433-3.287-7.2-1.755a7.04 7.04 0 0 0-1.446.839v-.05c0-3.01-2.418-6.193-3.485-7.452V4.035a2.051 2.051 0 1 0-1 0v5.093c-1.066 1.259-3.484 4.442-3.484 7.452 0 .255.028.483.043.723a7.98 7.98 0 0 0-2.279-1.512c-3.766-1.531-6.3-.464-7.2 1.755s.166 4.749 3.933 6.28c2.706 1.1 6.535.239 8.476-.332v10.261c-1.136-1.8-2.974-4.194-5.208-5.1-3.766-1.531-6.3-.464-7.2 1.755s.166 4.749 3.933 6.28c2.706 1.1 6.535.239 8.476-.332v10.258c-1.136-1.8-2.974-4.194-5.208-5.1-3.766-1.531-6.3-.464-7.2 1.755s.166 4.749 3.933 6.28c2.706 1.1 6.535.239 8.476-.332v10.26c-1.136-1.8-2.974-4.193-5.208-5.1-3.766-1.531-6.3-.464-7.2 1.755s.166 4.749 3.933 6.28c2.706 1.1 6.535.239 8.476-.332v10.26c-1.136-1.8-2.974-4.194-5.208-5.1-3.766-1.53-6.3-.463-7.2 1.755s.166 4.749 3.933 6.28c2.706 1.1 6.535.239 8.476-.332v17.3h1.231v-17.3c1.941.572 5.768 1.433 8.475.332 3.767-1.531 4.835-4.061 3.933-6.28s-3.433-3.286-7.2-1.755c-2.235.909-4.075 3.3-5.209 5.1V62.077c1.941.572 5.768 1.433 8.475.332 3.767-1.531 4.835-4.061 3.933-6.28s-3.433-3.287-7.2-1.755c-2.235.908-4.075 3.3-5.209 5.1V49.216c1.941.572 5.768 1.433 8.475.332 3.767-1.531 4.835-4.061 3.933-6.28s-3.433-3.287-7.2-1.755c-2.235.908-4.075 3.3-5.209 5.1V36.355z" style="fill:#3e9b67"/>
        </g>
    </g>
</svg>
