<svg xmlns="http://www.w3.org/2000/svg" width="375.001" height="667" viewBox="0 0 375.001 667">
    <defs>
        <clipPath id="ckn4icgo8a">
            <path data-name="사각형 2848" style="fill:none" d="M0 0h375v667H0z"/>
        </clipPath>
    </defs>
    <path data-name="사각형 2846" style="fill:#56b36b" d="M0 0h375v667H0z"/>
    <path data-name="사각형 2847" style="fill:#56b36b" d="M0 0h375v667H0z"/>
    <path data-name="패스 14705" d="M0 133.083h62.5L0 .453z" style="fill:#64bc74"/>
    <path data-name="패스 14706" d="M62.5 133.083h125L125 .453z" style="fill:#64bc74"/>
    <path data-name="패스 14707" d="M0 267.412h125l-62.5-132.63z" style="fill:#64bc74"/>
    <path data-name="패스 14708" d="M187.5 134.781 125 267.411h125z" style="fill:#64bc74"/>
    <path data-name="패스 14709" d="M250 267.412h125l-62.5-132.63z" style="fill:#64bc74"/>
    <path data-name="패스 14710" d="M187.5 133.083h125L250 .453z" style="fill:#4ca55d"/>
    <path data-name="패스 14711" d="M144.555 91.587 125 133.084h39.11z" style="fill:#4ca55d"/>
    <path data-name="패스 14712" d="M312.5 133.083H375V.453z" style="fill:#64bc74"/>
    <path data-name="패스 14713" d="M0 400.042h62.5L0 267.412z" style="fill:#64bc74"/>
    <path data-name="패스 14714" d="m125 267.411-62.5 132.63h125z" style="fill:#4ca55d"/>
    <path data-name="패스 14715" d="M0 534.37h125L62.5 401.74z" style="fill:#64bc74"/>
    <path data-name="패스 14716" d="M187.5 401.739 125 534.369h125z" style="fill:#64bc74"/>
    <path data-name="패스 14717" d="M250 534.37h125l-62.5-132.63z" style="fill:#64bc74"/>
    <path data-name="패스 14718" d="m250 267.411-62.5 132.63h125z" style="fill:#64bc74"/>
    <path data-name="패스 14719" d="M312.5 400.042H375v-132.63z" style="fill:#64bc74"/>
    <path data-name="패스 14720" d="M0 667h62.5L0 534.37z" style="fill:#4ca55d"/>
    <path data-name="패스 14721" d="M62.5 667h125L125 534.37z" style="fill:#64bc74"/>
    <path data-name="패스 14722" d="M187.5 667h125L250 534.37z" style="fill:#64bc74"/>
    <path data-name="패스 14723" d="M312.5 667H375V534.37z" style="fill:#64bc74"/>
    <g data-name="그룹 2540">
        <g data-name="그룹 2539" style="clip-path:url(#ckn4icgo8a)">
            <path data-name="패스 14724" d="M138.159 368.14 127.5 380.366v-11.385l14.452-16.581a2.436 2.436 0 0 0-.268-3.471 2.526 2.526 0 0 0-3.525.264l-10.659 12.23V336.75a2.5 2.5 0 0 0-5 0v25.482l-11.161-12.2a2.529 2.529 0 0 0-3.531-.18 2.437 2.437 0 0 0-.183 3.477l14.875 16.259v11.587l-11.161-12.2a2.529 2.529 0 0 0-3.531-.181 2.437 2.437 0 0 0-.183 3.477L122.5 388.53v42.652a2.5 2.5 0 0 0 5 0v-43.258l14.452-16.577a2.436 2.436 0 0 0-.268-3.471 2.524 2.524 0 0 0-3.525.264" style="fill:#429650"/>
            <path data-name="패스 14725" d="M325.89 505.972 315.231 518.2v-11.387l14.452-16.577a2.436 2.436 0 0 0-.268-3.471 2.526 2.526 0 0 0-3.525.264l-10.659 12.226v-24.673a2.5 2.5 0 0 0-5 0v25.482l-11.161-12.2a2.529 2.529 0 0 0-3.531-.18 2.437 2.437 0 0 0-.183 3.477l14.875 16.255v11.587l-11.161-12.2a2.529 2.529 0 0 0-3.531-.181 2.437 2.437 0 0 0-.183 3.477l14.875 16.255v42.652a2.5 2.5 0 0 0 5 0v-43.25l14.452-16.577a2.436 2.436 0 0 0-.268-3.471 2.524 2.524 0 0 0-3.525.264" style="fill:#56b36b"/>
            <path data-name="패스 14726" d="m75.89 227.365-10.659 12.226v-11.385l14.452-16.577a2.436 2.436 0 0 0-.268-3.471 2.526 2.526 0 0 0-3.525.264l-10.659 12.226v-24.673a2.5 2.5 0 0 0-5 0v25.482l-11.161-12.2a2.529 2.529 0 0 0-3.531-.18 2.437 2.437 0 0 0-.183 3.477l14.875 16.255V240.4L49.07 228.2a2.529 2.529 0 0 0-3.531-.181 2.437 2.437 0 0 0-.183 3.477l14.875 16.255v42.652a2.5 2.5 0 0 0 5 0v-43.254l14.452-16.577a2.436 2.436 0 0 0-.268-3.471 2.524 2.524 0 0 0-3.525.264" style="fill:#56b36b"/>
            <path data-name="패스 14727" d="m263.467 101.313-10.89 12.487v-11.381l14.683-16.842a2.434 2.434 0 0 0-.268-3.471 2.526 2.526 0 0 0-3.525.264l-10.89 12.491V69.922a2.5 2.5 0 0 0-5 0v25.23l-10.929-11.943a2.528 2.528 0 0 0-3.531-.181 2.436 2.436 0 0 0-.184 3.477l14.644 16V114.1l-10.929-11.943a2.528 2.528 0 0 0-3.531-.181 2.436 2.436 0 0 0-.184 3.477l14.644 16v42.9a2.5 2.5 0 0 0 5 0v-42.991l14.683-16.842a2.434 2.434 0 0 0-.268-3.471 2.526 2.526 0 0 0-3.525.264" style="fill:#429650"/>
            <path data-name="패스 14728" d="m187.5 492.873-19.555 41.5h39.11z" style="fill:#4ca55d"/>
            <path data-name="패스 14729" d="M234.713 625.5 215.158 667h39.11z" style="fill:#4ca55d"/>
            <path data-name="패스 14730" d="m250 533.8 19.555-41.5h-39.11z" style="fill:#4ca55d"/>
            <path data-name="패스 14731" d="m312.5 399.063 19.555-41.5h-39.11z" style="fill:#4ca55d"/>
        </g>
    </g>
</svg>
