<svg xmlns="http://www.w3.org/2000/svg" width="375" height="499" viewBox="0 0 375 499">
    <g data-name="그룹 2724">
        <path data-name="사각형 3289" style="fill:#56b36b" d="M0 0h375v499H0z"/>
        <g data-name="그룹 2723">
            <path data-name="패스 16657" d="M-5032.716-3184.492h374.5v-48.043a33.561 33.561 0 0 0-26.278 12.669 23.485 23.485 0 0 0-16.148-6.424 23.487 23.487 0 0 0-16.175 6.449 33.56 33.56 0 0 0-26.3-12.694 33.559 33.559 0 0 0-26.26 12.644 33.561 33.561 0 0 0-26.261-12.644 33.56 33.56 0 0 0-26.278 12.669 23.486 23.486 0 0 0-16.148-6.424 23.49 23.49 0 0 0-16.175 6.449 33.557 33.557 0 0 0-26.3-12.694 33.523 33.523 0 0 0-25.134 11.334 28.6 28.6 0 0 0-8.507-1.286 28.6 28.6 0 0 0-8.507 1.286 33.523 33.523 0 0 0-25.135-11.334 33.559 33.559 0 0 0-26.278 12.668 23.488 23.488 0 0 0-16.148-6.424 23.486 23.486 0 0 0-16.174 6.449 33.561 33.561 0 0 0-26.3-12.694z" transform="translate(5032.716 3683.493)" style="fill:#418c48"/>
            <path data-name="패스 16658" d="M-4607.432-3174.869a32.085 32.085 0 0 1 32.085-32.085 32.084 32.084 0 0 1 32.084 32.085z" transform="translate(4872.737 3673.87)" style="fill:#409b54"/>
            <path data-name="패스 16659" d="M-4642.852-3170.116a24.2 24.2 0 0 1 24.2-24.2 24.2 24.2 0 0 1 24.2 24.2z" transform="translate(4886.061 3669.117)" style="fill:#409b54"/>
            <path data-name="패스 16660" d="M-4549.741-3170.116a24.2 24.2 0 0 1 24.2-24.2 24.2 24.2 0 0 1 24.2 24.2z" transform="translate(4851.035 3669.117)" style="fill:#409b54"/>
            <g data-name="그룹 2715">
                <path data-name="패스 16661" d="M-4470.456-3206.954a32.085 32.085 0 0 0-32.085 32.085h43.761v-29.883a31.974 31.974 0 0 0-11.676-2.202z" transform="translate(4833.28 3673.869)" style="fill:#409b54"/>
            </g>
            <path data-name="패스 16662" d="M-4896.057-3174.869a32.085 32.085 0 0 0-32.084-32.085 32.085 32.085 0 0 0-32.085 32.085z" transform="translate(5005.448 3673.87)" style="fill:#409b54"/>
            <path data-name="패스 16663" d="M-4851.13-3170.116a24.2 24.2 0 0 0-24.2-24.2 24.2 24.2 0 0 0-24.2 24.2z" transform="translate(4982.617 3669.117)" style="fill:#409b54"/>
            <path data-name="패스 16664" d="M-4944.242-3170.116a24.2 24.2 0 0 0-24.2-24.2 24.2 24.2 0 0 0-24.2 24.2z" transform="translate(5017.643 3669.117)" style="fill:#409b54"/>
            <g data-name="그룹 2716">
                <path data-name="패스 16665" d="M-5021.039-3206.954a32.084 32.084 0 0 1 32.084 32.085h-43.761v-29.883a31.983 31.983 0 0 1 11.677-2.202z" transform="translate(5032.716 3673.869)" style="fill:#409b54"/>
            </g>
            <g data-name="그룹 2717">
                <path data-name="패스 16666" d="M-4980.013-3285.381a11.561 11.561 0 0 1 11.561-11.561 11.561 11.561 0 0 1 11.561 11.561z" transform="translate(5012.891 3707.721)" style="fill:#418c48"/>
                <path data-name="패스 16667" d="M-4980.013-3269.948a11.562 11.562 0 0 1 11.561-11.561 11.562 11.562 0 0 1 11.561 11.561z" transform="translate(5012.891 3701.915)" style="fill:#418c48"/>
                <path data-name="패스 16668" d="M-4980.013-3254.513a11.561 11.561 0 0 1 11.561-11.562 11.561 11.561 0 0 1 11.561 11.562z" transform="translate(5012.891 3696.11)" style="fill:#418c48"/>
                <path data-name="패스 16669" d="M-4980.013-3239.08a11.561 11.561 0 0 1 11.561-11.561 11.561 11.561 0 0 1 11.561 11.561z" transform="translate(5012.891 3690.304)" style="fill:#418c48"/>
                <path data-name="사각형 3293" transform="translate(43.389 414.678)" style="fill:#418c48" d="M0 0h2.101v46.351H0z"/>
            </g>
            <g data-name="그룹 2718">
                <path data-name="패스 16670" d="M-4954.35-3263.251a11.561 11.561 0 0 1 11.562-11.561 11.561 11.561 0 0 1 11.561 11.561z" transform="translate(5003.237 3699.396)" style="fill:#409b54"/>
                <path data-name="패스 16671" d="M-4954.35-3247.817a11.561 11.561 0 0 1 11.562-11.562 11.561 11.561 0 0 1 11.561 11.562z" transform="translate(5003.237 3693.591)" style="fill:#409b54"/>
                <path data-name="패스 16672" d="M-4954.35-3232.384a11.561 11.561 0 0 1 11.562-11.561 11.561 11.561 0 0 1 11.561 11.561z" transform="translate(5003.237 3687.785)" style="fill:#409b54"/>
                <path data-name="패스 16673" d="M-4954.35-3216.95a11.561 11.561 0 0 1 11.562-11.561 11.561 11.561 0 0 1 11.561 11.561z" transform="translate(5003.237 3681.979)" style="fill:#409b54"/>
                <path data-name="사각형 3294" transform="translate(59.398 428.483)" style="fill:#409b54" d="M0 0h2.101v46.351H0z"/>
            </g>
            <g data-name="그룹 2719">
                <path data-name="패스 16674" d="M-5003.166-3263.251a11.561 11.561 0 0 1 11.561-11.561 11.561 11.561 0 0 1 11.561 11.561z" transform="translate(5021.6 3699.396)" style="fill:#409b54"/>
                <path data-name="패스 16675" d="M-5003.166-3247.817a11.561 11.561 0 0 1 11.561-11.562 11.562 11.562 0 0 1 11.561 11.562z" transform="translate(5021.6 3693.591)" style="fill:#409b54"/>
                <path data-name="패스 16676" d="M-5003.166-3232.384a11.561 11.561 0 0 1 11.561-11.561 11.561 11.561 0 0 1 11.561 11.561z" transform="translate(5021.6 3687.785)" style="fill:#409b54"/>
                <path data-name="패스 16677" d="M-5003.166-3216.95a11.561 11.561 0 0 1 11.561-11.561 11.561 11.561 0 0 1 11.561 11.561z" transform="translate(5021.6 3681.979)" style="fill:#409b54"/>
                <path data-name="사각형 3295" transform="translate(28.945 428.483)" style="fill:#409b54" d="M0 0h2.101v46.351H0z"/>
            </g>
            <g data-name="그룹 2720" transform="translate(320.553 405.895)">
                <path data-name="사각형 3296" transform="translate(11.433 20.029)" style="fill:#418c48" d="M0 0h2.189v48.305H0z"/>
                <circle data-name="타원 752" cx="6.559" cy="6.559" r="6.559" transform="translate(5.969)" style="fill:#418c48"/>
                <circle data-name="타원 753" cx="6.559" cy="6.559" r="6.559" transform="translate(5.969 33.72)" style="fill:#418c48"/>
                <circle data-name="타원 754" cx="6.559" cy="6.559" r="6.559" transform="translate(1.996 6.559)" style="fill:#418c48"/>
                <circle data-name="타원 755" cx="6.559" cy="6.559" r="6.559" transform="translate(9.993 6.559)" style="fill:#418c48"/>
                <circle data-name="타원 756" cx="6.559" cy="6.559" r="6.559" transform="translate(1.996 27.161)" style="fill:#418c48"/>
                <circle data-name="타원 757" cx="6.559" cy="6.559" r="6.559" transform="translate(9.993 27.161)" style="fill:#418c48"/>
                <circle data-name="타원 758" cx="12.528" cy="12.528" r="12.528" transform="translate(0 11.071)" style="fill:#418c48"/>
            </g>
            <g data-name="그룹 2721" transform="translate(303.738 413.124)">
                <path data-name="사각형 3297" transform="translate(11.433 20.029)" style="fill:#409b54" d="M0 0h2.189v48.305H0z"/>
                <circle data-name="타원 759" cx="6.559" cy="6.559" r="6.559" transform="translate(5.969)" style="fill:#409b54"/>
                <circle data-name="타원 760" cx="6.559" cy="6.559" r="6.559" transform="translate(5.969 33.719)" style="fill:#409b54"/>
                <circle data-name="타원 761" cx="6.559" cy="6.559" r="6.559" transform="translate(1.996 6.559)" style="fill:#409b54"/>
                <circle data-name="타원 762" cx="6.559" cy="6.559" r="6.559" transform="translate(9.993 6.559)" style="fill:#409b54"/>
                <circle data-name="타원 763" cx="6.559" cy="6.559" r="6.559" transform="translate(1.996 27.161)" style="fill:#409b54"/>
                <circle data-name="타원 764" cx="6.559" cy="6.559" r="6.559" transform="translate(9.993 27.161)" style="fill:#409b54"/>
                <circle data-name="타원 765" cx="12.528" cy="12.528" r="12.528" transform="translate(0 11.071)" style="fill:#409b54"/>
            </g>
            <g data-name="그룹 2722" transform="translate(336.381 413.124)">
                <path data-name="사각형 3298" transform="translate(11.433 20.029)" style="fill:#409b54" d="M0 0h2.189v48.305H0z"/>
                <circle data-name="타원 766" cx="6.559" cy="6.559" r="6.559" transform="translate(5.969)" style="fill:#409b54"/>
                <circle data-name="타원 767" cx="6.559" cy="6.559" r="6.559" transform="translate(5.969 33.719)" style="fill:#409b54"/>
                <circle data-name="타원 768" cx="6.559" cy="6.559" r="6.559" transform="translate(1.996 6.559)" style="fill:#409b54"/>
                <circle data-name="타원 769" cx="6.559" cy="6.559" r="6.559" transform="translate(9.993 6.559)" style="fill:#409b54"/>
                <circle data-name="타원 770" cx="6.559" cy="6.559" r="6.559" transform="translate(1.996 27.161)" style="fill:#409b54"/>
                <circle data-name="타원 771" cx="6.559" cy="6.559" r="6.559" transform="translate(9.993 27.161)" style="fill:#409b54"/>
                <circle data-name="타원 772" cx="12.528" cy="12.528" r="12.528" transform="translate(0 11.071)" style="fill:#409b54"/>
            </g>
        </g>
    </g>
</svg>
