<?xml version="1.0" encoding="UTF-8"?>
<svg width="40px" height="40px" viewBox="0 0 40 40" version="1.1" xmlns="http://www.w3.org/2000/svg" xmlns:xlink="http://www.w3.org/1999/xlink">
    <title>icon-login-apple</title>
    <defs>
        <path d="M9.4453125,8.41015625 C10,8.36328125 10.4140625,8.296875 10.6875,8.2109375 C11.1171875,8.0625 11.5507812,7.7734375 11.9882812,7.34375 C12.4960938,6.8359375 12.8671875,6.28515625 13.1015625,5.69140625 C13.3359375,5.09765625 13.453125,4.55078125 13.453125,4.05078125 C13.453125,3.97265625 13.4492188,3.89453125 13.4414062,3.81640625 C13.4335938,3.73828125 13.4140625,3.6484375 13.3828125,3.546875 C11.984375,3.8671875 10.9824219,4.4609375 10.3769531,5.328125 C9.77148438,6.1953125 9.4609375,7.22265625 9.4453125,8.41015625 Z M6.609375,23.5507812 C7.015625,23.5507812 7.54492188,23.4160156 8.19726562,23.1464844 C8.84960938,22.8769531 9.421875,22.7421875 9.9140625,22.7421875 C10.40625,22.7421875 11.0097656,22.8710938 11.7246094,23.1289062 C12.4394531,23.3867188 13,23.515625 13.40625,23.515625 C14.4296875,23.515625 15.4609375,22.7304688 16.5,21.1601562 C17.1875,20.1132812 17.6796875,19.109375 17.9765625,18.1484375 C17.265625,17.9375 16.6328125,17.4335938 16.078125,16.6367188 C15.5234375,15.8398438 15.2460938,14.9453125 15.2460938,13.953125 C15.2460938,13.046875 15.5078125,12.21875 16.03125,11.46875 C16.3203125,11.0546875 16.7773438,10.5820312 17.4023438,10.0507812 C16.9882812,9.54296875 16.5703125,9.140625 16.1484375,8.84375 C15.3984375,8.328125 14.5429688,8.0703125 13.5820312,8.0703125 C12.9960938,8.0703125 12.3046875,8.20703125 11.5078125,8.48046875 C10.7109375,8.75390625 10.1367188,8.890625 9.78515625,8.890625 C9.51171875,8.890625 8.95898438,8.76953125 8.12695312,8.52734375 C7.29492188,8.28515625 6.5859375,8.1640625 6,8.1640625 C4.625,8.1640625 3.48632812,8.7421875 2.58398438,9.8984375 C1.68164062,11.0546875 1.23046875,12.5507812 1.23046875,14.3867188 C1.23046875,16.3632812 1.8203125,18.3789062 3,20.4335938 C4.1796875,22.5117188 5.3828125,23.5507812 6.609375,23.5507812 Z" id="path-1"></path>
    </defs>
    <g id="Page-1" stroke="none" stroke-width="1" fill="none" fill-rule="evenodd">
        <g id="icon-login-apple" fill-rule="nonzero">
            <circle id="Oval" fill="#000000" cx="20" cy="20" r="20"></circle>
            <g id="" transform="translate(10.520000, 6.000000)">
                <use fill="#000000" xlink:href="#path-1"></use>
                <use fill="#FFFFFF" xlink:href="#path-1"></use>
            </g>
        </g>
    </g>
</svg>