<svg xmlns="http://www.w3.org/2000/svg" width="98" height="98" viewBox="0 0 98 98">
    <defs>
        <clipPath id="waco4gftsb">
            <path data-name="사각형 3115" style="fill:none" d="M0 0h50v50H0z"/>
        </clipPath>
        <filter id="8uqn07719a" x="0" y="0" width="98" height="98" filterUnits="userSpaceOnUse">
            <feOffset/>
            <feGaussianBlur stdDeviation="3" result="blur"/>
            <feFlood flood-opacity=".161"/>
            <feComposite operator="in" in2="blur"/>
            <feComposite in="SourceGraphic"/>
        </filter>
    </defs>
    <g data-name="그룹 2662">
        <g style="filter:url(#8uqn07719a)">
            <rect data-name="사각형 3114" width="80" height="80" rx="20" transform="translate(9 9)" style="fill:#fff"/>
        </g>
        <g data-name="그룹 2661">
            <g data-name="그룹 2660" style="clip-path:url(#waco4gftsb)" transform="translate(24 24)">
                <path data-name="패스 16314" d="M74.28 163.289h3.2v-3.2a13.2 13.2 0 0 1-3.2 3.2" transform="translate(-53.67 -115.67)" style="fill:#56b36b"/>
                <path data-name="패스 16315" d="M18.119 47.16h-5.076a6.812 6.812 0 0 1-4.462-1.66v11.184h9.538z" transform="translate(-6.2 -32.874)" style="fill:#78daff"/>
                <path data-name="패스 16316" d="M8.581 160.09v3.2h3.2a13.2 13.2 0 0 1-3.2-3.2" transform="translate(-6.2 -115.67)" style="fill:#56b36b"/>
                <path data-name="패스 16317" d="M11.78 94.391h-3.2v3.2a13.206 13.206 0 0 1 3.2-3.2" transform="translate(-6.2 -68.201)" style="fill:#56b36b"/>
                <path data-name="패스 16318" d="M13.276 33.605h5.062v-3.571H8.9a4.469 4.469 0 0 0 4.372 3.571" transform="translate(-6.433 -21.701)" style="fill:#56b36b"/>
                <path data-name="패스 16319" d="m120.548 15.492-19.316 19.316a22.663 22.663 0 0 0 19.316-19.316" transform="translate(-73.143 -11.193)" style="fill:#56b36b"/>
                <path data-name="패스 16320" d="m95.165 39.1 9.309-9.309v-6.03A22.636 22.636 0 0 0 95.165 39.1" transform="translate(-68.76 -17.165)" style="fill:#56b36b"/>
                <path data-name="패스 16321" d="M106.411 8.581h-12.02v3.571h.028V19.6c0 .2-.011.4-.028.6v.383a25.159 25.159 0 0 1 12.02-12" transform="translate(-68.201 -6.2)" style="fill:#fcee21"/>
                <path data-name="패스 16322" d="M13.644 8.581H8.581v3.571h9.434a4.469 4.469 0 0 0-4.372-3.571" transform="translate(-6.2 -6.2)" style="fill:#56b36b"/>
                <path data-name="패스 16323" d="m137.3 17.051 7.626-7.626a22.441 22.441 0 0 0-7.626 2.494z" transform="translate(-99.201 -6.81)" style="fill:#56b36b"/>
                <path data-name="패스 16324" d="M47.16 13.043v.8a6.812 6.812 0 0 1 4.49-1.686h5.034V8.581H45.5a6.813 6.813 0 0 1 1.661 4.462" transform="translate(-32.874 -6.2)" style="fill:#fcee21"/>
                <path data-name="패스 16325" d="M106.041 130.971a13.417 13.417 0 0 1-6.6 1.769 13.194 13.194 0 0 1-5.049-1.017v4.559a10.837 10.837 0 0 0 10.259-.317 13.149 13.149 0 0 1 11.169-.935v-4.594a10.824 10.824 0 0 0-9.779.535" transform="translate(-68.201 -93.58)" style="fill:#78daff"/>
                <path data-name="패스 16326" d="M106.041 105.494a13.416 13.416 0 0 1-6.6 1.769 13.194 13.194 0 0 1-5.049-1.016v4.442a10.841 10.841 0 0 0 10.482-.2 13.151 13.151 0 0 1 10.946-1.018v-4.51a10.824 10.824 0 0 0-9.779.535" transform="translate(-68.201 -75.172)" style="fill:#78daff"/>
                <path data-name="패스 16327" d="M94.391 57.04v2.266a10.841 10.841 0 0 0 10.482-.2 13.157 13.157 0 0 1 10.946-1.018V42.71a25.041 25.041 0 0 1-21.428 14.33" transform="translate(-68.201 -30.859)" style="fill:#ff9100"/>
                <path data-name="패스 16328" d="M105.817 156.448a13.416 13.416 0 0 1-6.6 1.769 13.173 13.173 0 0 1-4.826-.93v2.32h21.429v-3.595a10.827 10.827 0 0 0-10 .436" transform="translate(-68.2 -111.988)" style="fill:#56b36b"/>
                <path data-name="패스 16329" d="M61.021 51.486h-9.434v3.572h5.062a4.469 4.469 0 0 0 4.372-3.572" transform="translate(-37.273 -37.2)" style="fill:#56b36b"/>
                <path data-name="패스 16330" d="M51.536 68.678v3.571h9.51v-5.208a6.812 6.812 0 0 1-4.433 1.637z" transform="translate(-37.236 -48.439)" style="fill:#78daff"/>
                <path data-name="패스 16331" d="M77.479 97.59v-3.2h-3.2a13.2 13.2 0 0 1 3.2 3.2" transform="translate(-53.67 -68.201)" style="fill:#56b36b"/>
                <path data-name="패스 16332" d="M51.91 33.605h9.406v-3.571h-5.034a4.47 4.47 0 0 0-4.372 3.571" transform="translate(-37.507 -21.701)" style="fill:#56b36b"/>
                <path data-name="패스 16333" d="M19.3 94.391a10.714 10.714 0 1 0 10.71 10.714A10.726 10.726 0 0 0 19.3 94.391" transform="translate(-6.2 -68.201)" style="fill:#ff9100"/>
                <path data-name="패스 16334" d="M0 0v50h50V0zm47.4 4.3a22.663 22.663 0 0 1-19.311 19.314zm-21 17.632a22.636 22.636 0 0 1 9.314-15.34v6.03zm11.7-11.691V5.109a22.441 22.441 0 0 1 7.626-2.494zM26.19 14c.017-.2.028-.4.028-.6V5.953h-.028V2.381h12.02a25.16 25.16 0 0 0-12.02 12zM2.381 2.381h5.063a4.469 4.469 0 0 1 4.372 3.572H2.381zM11.9 8.333V11.9H6.843a4.469 4.469 0 0 1-4.372-3.567zm-9.519 4.292a6.813 6.813 0 0 0 4.462 1.661h5.076v9.524H2.381zm0 13.566h3.2a13.211 13.211 0 0 0-3.2 3.2zm0 21.429v-3.2a13.2 13.2 0 0 0 3.2 3.2zm21.429 0h-3.2a13.191 13.191 0 0 0 3.2-3.2zm-10.714 0A10.714 10.714 0 1 1 23.81 36.9 10.726 10.726 0 0 1 13.1 47.619M23.81 26.21v3.18a13.2 13.2 0 0 0-3.2-3.2h3.2zm0-2.4H14.3v-3.572h5.076A6.81 6.81 0 0 0 23.81 18.6zm-9.5-5.952v-3.572h9.434a4.468 4.468 0 0 1-4.372 3.572zm9.5-5.953H14.4a4.47 4.47 0 0 1 4.372-3.571h5.038zm0-5.952h-5.034a6.812 6.812 0 0 0-4.49 1.686v-.8a6.813 6.813 0 0 0-1.661-4.462H23.81zM47.62 47.62H26.19V45.3a13.166 13.166 0 0 0 4.826.93 13.416 13.416 0 0 0 6.6-1.769 10.827 10.827 0 0 1 10-.436zm0-6.17a13.148 13.148 0 0 0-11.169.935 10.836 10.836 0 0 1-10.261.315v-4.557a13.191 13.191 0 0 0 5.05 1.017 13.413 13.413 0 0 0 6.6-1.769 10.824 10.824 0 0 1 9.779-.535zm0-7.153a13.15 13.15 0 0 0-10.946 1.018 10.841 10.841 0 0 1-10.482.2v-4.441a13.2 13.2 0 0 0 5.05 1.016 13.412 13.412 0 0 0 6.6-1.769 10.824 10.824 0 0 1 9.779-.535zm0-7.069a13.156 13.156 0 0 0-10.946 1.018 10.841 10.841 0 0 1-10.482.2v-2.265A25.041 25.041 0 0 0 47.619 11.85z"/>
            </g>
        </g>
    </g>
</svg>
