<svg xmlns="http://www.w3.org/2000/svg" width="48" height="40" viewBox="0 0 48 40">
    <path data-name="패스 10904" d="M40.934 32.069h-8.242v1.307h8.241z" transform="translate(-18.447 -17.095)" style="fill:#1a1818"/>
    <path data-name="패스 10905" d="M40.934 43.026h-8.242v1.307h8.241z" transform="translate(-18.447 -23.277)" style="fill:#1a1818"/>
    <path data-name="패스 10906" d="M48.922 54.637v-.654H32.693v1.307h16.229z" transform="translate(-18.447 -29.46)" style="fill:#1a1818"/>
    <path data-name="패스 10907" d="M48.922 65.594v-.654H32.693v1.307h16.229z" transform="translate(-18.447 -35.643)" style="fill:#1a1818"/>
    <g data-name="그룹 2245">
        <g data-name="그룹 2205">
            <g data-name="그룹 2244">
                <path data-name="패스 10908" d="M46.291 10.886a10.885 10.885 0 0 0-21.063-3.86H4.973v.012A5.213 5.213 0 0 0 0 12.237v.654h8.954v20.9a5.214 5.214 0 0 0 4.838 5.192V39h22.267v-.045a5.215 5.215 0 0 0 4.557-5.165v-.654h-4.557V21.75a10.9 10.9 0 0 0 10.232-10.864m-44.928.7a3.908 3.908 0 0 1 3.724-3.247 3.957 3.957 0 0 1 3.807 3.244zm12.616 26.1a3.905 3.905 0 0 1-3.717-3.894V12.237a5.228 5.228 0 0 0-1.789-3.9h16.351a10.855 10.855 0 0 0-.305 2.552c0 .234.01.467.024.7s.035.437.062.654.061.438.1.654a10.9 10.9 0 0 0 10.044 8.86v11.379H17.695v.654a3.905 3.905 0 0 1-3.717 3.894m25.276-3.241a3.916 3.916 0 0 1-3.849 3.25H17.24a5.2 5.2 0 0 0 1.722-3.25h20.292zm-3.849-13.978c-.22 0-.437-.01-.654-.025a9.578 9.578 0 0 1-8.925-9.554c0-.108 0-.214.008-.32a9.609 9.609 0 0 1 .185-1.6c.044-.214.1-.424.155-.633s.129-.439.206-.654.166-.44.261-.654a9.577 9.577 0 1 1 9.418 13.415 9.432 9.432 0 0 1-.654.025" transform="translate(1 1)" style="fill:#1a1818"/>
                <path data-name="패스 10909" d="m80.682 16.954-.938-.911-6.063 6.248-3.014-2.5-.835 1.009 3.944 3.272z" transform="translate(-38.403 -8.052)" style="fill:#1a1818"/>
            </g>
        </g>
        <path data-name="사각형 1571" style="fill:none" d="M0 0h48v40H0z"/>
    </g>
</svg>
