<svg xmlns="http://www.w3.org/2000/svg" width="25" height="25" viewBox="0 0 25 25">
    <defs>
        <clipPath id="a6g061nlfa">
            <path data-name="사각형 3302" style="fill:#339349" d="M0 0h18.849v18.027H0z"/>
        </clipPath>
        <clipPath id="66y5ss5tib">
            <path data-name="사각형 3303" style="fill:none" d="M0 0h18.849v18.027H0z"/>
        </clipPath>
    </defs>
    <g data-name="그룹 2806">
        <g data-name="그룹 1810">
            <g data-name="그룹 1808">
                <g data-name="그룹 2803">
                    <g data-name="그룹 2802" style="clip-path:url(#a6g061nlfa)" transform="translate(2.001 4.036)">
                        <g data-name="그룹 1807">
                            <path data-name="패스 1611" d="M3335.078 3498.888a2.875 2.875 0 0 0 2.185-2.294c.048-.361-.511-.95-.568-1.552-.246-2.536-.9-6.267-3.057-3.873a20.8 20.8 0 0 0-3.775 7.3 11.5 11.5 0 0 1-.527-5.187v-.008a4.014 4.014 0 0 1 .882-2.416 1.489 1.489 0 0 1 1.547-.047l.07-.144a1.654 1.654 0 0 0-1.713.065l-.012.006-.008.009a4.17 4.17 0 0 0-.928 2.517 11.734 11.734 0 0 0 .608 5.472c-.039.135-.058.21-.058.21l-.21-.064a11.759 11.759 0 0 0-4.287-3.449 4.162 4.162 0 0 0-2.621-.568h-.012l-.011.008a1.646 1.646 0 0 0-.974 1.407l.159.019a1.484 1.484 0 0 1 .87-1.279 4.012 4.012 0 0 1 2.517.552 11.507 11.507 0 0 1 4.091 3.232 20.827 20.827 0 0 0-8.186-.736c-3.183.533-.384 3.091 1.623 4.66.476.374.673 1.162 1 1.314a2.874 2.874 0 0 0 3.108-.612s-1.394 4.693 1.477 4.536 2.181.505 3.006.457 1.334-4.215 1.334-4.215 3.789 1.811 4.271 1.141-.446-.445 1.228-2.781-3.032-3.682-3.032-3.682" transform="translate(-3319.622 -3490.401)" style="fill:#339349"/>
                        </g>
                    </g>
                </g>
            </g>
            <g data-name="그룹 1809">
                <g data-name="그룹 2805">
                    <g data-name="그룹 2804" style="clip-path:url(#66y5ss5tib)" transform="translate(3.632 .999)">
                        <g data-name="그룹 1807-2">
                            <path data-name="패스 1611-2" d="M3337.411 3494.545a2.876 2.876 0 0 0 2.185-2.294c.048-.361-.511-.95-.568-1.552-.245-2.536-.9-6.268-3.057-3.873a20.8 20.8 0 0 0-3.775 7.3 11.493 11.493 0 0 1-.526-5.186v-.008a4.013 4.013 0 0 1 .882-2.416 1.488 1.488 0 0 1 1.547-.047l.07-.144a1.653 1.653 0 0 0-1.713.065l-.012.006-.008.009a4.171 4.171 0 0 0-.928 2.517 11.725 11.725 0 0 0 .608 5.471c-.039.136-.058.21-.058.21l-.21-.064a11.761 11.761 0 0 0-4.287-3.45 4.161 4.161 0 0 0-2.621-.568h-.012l-.011.008a1.645 1.645 0 0 0-.974 1.407l.159.019a1.485 1.485 0 0 1 .87-1.279 4.012 4.012 0 0 1 2.517.552 11.507 11.507 0 0 1 4.091 3.232 20.833 20.833 0 0 0-8.186-.736c-3.183.534-.384 3.091 1.623 4.661.476.374.673 1.161 1 1.314a2.873 2.873 0 0 0 3.108-.613s-1.394 4.693 1.476 4.536 2.181.5 3.007.457 1.334-4.215 1.334-4.215 3.789 1.811 4.271 1.141-.446-.445 1.228-2.781-3.032-3.682-3.032-3.682" transform="translate(-3321.955 -3486.057)" style="fill:#ffeb00"/>
                        </g>
                    </g>
                </g>
            </g>
        </g>
        <path data-name="사각형 3305" style="fill:none" d="M0 0h25v25H0z"/>
    </g>
</svg>
