<svg xmlns="http://www.w3.org/2000/svg" width="46" height="40" viewBox="0 0 46 40">
    <g data-name="그룹 2252">
        <g data-name="그룹 2247">
            <path data-name="사각형 1544" style="fill:none" d="M0 0h46v40H0z"/>
        </g>
        <g data-name="그룹 2249">
            <g data-name="그룹 2250">
                <path data-name="패스 10956" d="M25.3 38.865H3.619A.619.619 0 0 1 3 38.246V9.503a.619.619 0 0 1 .619-.62h10.968a.62.62 0 1 1 0 1.239H4.239v27.5h20.446v-1.749a.62.62 0 0 1 1.239 0v2.373a.619.619 0 0 1-.62.62"/>
                <path data-name="패스 10957" d="M25.305 30.965a.62.62 0 0 1-.62-.62V11.133a.62.62 0 0 1 1.239 0v19.213a.619.619 0 0 1-.62.62"/>
                <path data-name="패스 10958" d="M21.252 17.592h-5.8a.62.62 0 0 1 0-1.239h5.8a.62.62 0 1 1 0 1.239"/>
                <path data-name="패스 10959" d="M11.26 17.592H7.673a.62.62 0 1 1 0-1.239h3.588a.62.62 0 1 1 0 1.239"/>
                <path data-name="패스 10960" d="M21.253 24.556h-5.791a.62.62 0 1 1 0-1.239h5.791a.62.62 0 1 1 0 1.239"/>
                <path data-name="패스 10961" d="M11.152 24.556h-3.48a.62.62 0 1 1 0-1.239h3.48a.62.62 0 1 1 0 1.239"/>
                <path data-name="패스 10962" d="M21.251 31.519H20.02a.62.62 0 1 1 0-1.239h1.231a.62.62 0 1 1 0 1.239"/>
                <path data-name="패스 10963" d="M14.674 31.519h-7a.62.62 0 1 1 0-1.239h7a.62.62 0 1 1 0 1.239"/>
                <path data-name="패스 10964" d="M7.203 7.444a.62.62 0 0 1-.62-.62V5.561a.619.619 0 0 1 .62-.62h11.934a.62.62 0 1 1 0 1.239H7.822v.648a.62.62 0 0 1-.62.62"/>
                <path data-name="패스 10965" d="M29.337 30.318a.62.62 0 0 1-.62-.62V11.801a.62.62 0 0 1 1.239 0v17.9a.62.62 0 0 1-.62.62"/>
                <path data-name="패스 10966" d="M32.472 5.764a.62.62 0 0 1-.62-.62V2.239H11.406v.648a.62.62 0 0 1-1.239 0V1.62a.619.619 0 0 1 .621-.62h21.684a.62.62 0 0 1 .62.62v3.525a.619.619 0 0 1-.62.62"/>
                <path data-name="패스 10967" d="M33.368 28.265a.619.619 0 0 1-.62-.62V13.734a.62.62 0 0 1 1.239 0v13.911a.62.62 0 0 1-.62.62"/>
                <path data-name="패스 10968" d="M25.453 34.54h-.019a13.742 13.742 0 0 1 .018-27.484h.019a13.742 13.742 0 0 1-.019 27.484m-12.5-13.759a12.518 12.518 0 0 0 12.486 12.52h.017a12.503 12.503 0 0 0 .01-25.006h-.017A12.517 12.517 0 0 0 12.95 20.781z"/>
                <path data-name="패스 10969" d="M39.786 38.289a3.09 3.09 0 0 1-2.2-.914l-5.179-5.209a.62.62 0 0 1 .879-.874l5.178 5.209a1.859 1.859 0 0 0 1.322.549 1.871 1.871 0 0 0 1.325-3.193l-5.177-5.209a.62.62 0 0 1 .879-.874l5.178 5.209a3.111 3.111 0 0 1-2.2 5.306"/>
            </g>
        </g>
    </g>
</svg>
