<svg xmlns="http://www.w3.org/2000/svg" width="160" height="40" viewBox="0 0 160 40">
    <defs>
        <clipPath id="ewkdhnym1a">
            <path data-name="사각형 3113" style="fill:none" d="M0 0h147.5v32.348H0z"/>
        </clipPath>
    </defs>
    <g data-name="그룹 2687">
        <g data-name="그룹 2659">
            <g data-name="그룹 2658" transform="translate(6 4)" style="clip-path:url(#ewkdhnym1a)">
                <path data-name="패스 16306" d="M57.417 38.012h-2.356v-7.279a7.629 7.629 0 0 1 7.62-7.621v2.356a5.27 5.27 0 0 0-5.265 5.265z" transform="translate(-32.478 -13.633)" style="fill:#fff"/>
                <path data-name="패스 16307" d="M7.621 9.479A7.588 7.588 0 0 0 2.356 11.6V0H0v17.1a7.621 7.621 0 1 0 7.621-7.621m0 12.886a5.265 5.265 0 1 1 5.265-5.265 5.271 5.271 0 0 1-5.265 5.265" style="fill:#fff"/>
                <path data-name="패스 16308" d="M322.472 17.1a7.621 7.621 0 0 0 15.242 0V0h-2.356v11.6a7.611 7.611 0 0 0-12.886 5.5m2.356 0a5.265 5.265 0 1 1 5.265 5.265 5.271 5.271 0 0 1-5.265-5.265" transform="translate(-190.214)" style="fill:#fff"/>
                <path data-name="패스 16309" d="M98.368 33.432a5.254 5.254 0 0 1-9.021-2.356H102a7.61 7.61 0 1 0-.774 2.356zm-3.893-8.8A5.271 5.271 0 0 1 99.6 28.72H89.347a5.271 5.271 0 0 1 5.128-4.087" transform="translate(-51.232 -13.14)" style="fill:#fff"/>
                <path data-name="패스 16310" d="M148.944 33.432a5.254 5.254 0 0 1-9.021-2.356h12.648a7.61 7.61 0 1 0-.774 2.356zm-3.893-8.8a5.271 5.271 0 0 1 5.128 4.087h-10.256a5.271 5.271 0 0 1 5.128-4.087" transform="translate(-81.065 -13.14)" style="fill:#fff"/>
                <path data-name="패스 16311" d="M233.386 33.432a5.254 5.254 0 0 1-9.021-2.356h12.648a7.61 7.61 0 1 0-.774 2.356zm-3.893-8.8a5.271 5.271 0 0 1 5.128 4.087h-10.256a5.271 5.271 0 0 1 5.128-4.087" transform="translate(-130.874 -13.14)" style="fill:#fff"/>
                <path data-name="패스 16312" d="M282.585 33.432a5.254 5.254 0 0 1-9.021-2.356h12.648a7.61 7.61 0 1 0-.774 2.356zm-3.893-8.8a5.271 5.271 0 0 1 5.128 4.087h-10.256a5.271 5.271 0 0 1 5.128-4.087" transform="translate(-159.894 -13.14)" style="fill:#fff"/>
                <path data-name="패스 16313" d="M187.652 34.027h-1.871v-2.483h1.871a4.678 4.678 0 0 0 4.193-6.751L186.1 13.18a7.16 7.16 0 0 1 6.42-10.334h2.405v2.483h-2.405a4.677 4.677 0 0 0-4.193 6.751l5.743 11.613a7.16 7.16 0 0 1-6.418 10.334" transform="translate(-109.333 -1.679)" style="fill:#fff"/>
            </g>
        </g>
        <path data-name="사각형 3273" style="fill:none" d="M0 0h160v40H0z"/>
    </g>
</svg>
