<svg xmlns="http://www.w3.org/2000/svg" width="160" height="130" viewBox="0 0 160 130">
    <defs>
        <clipPath id="9x2lbxiywa">
            <path data-name="사각형 3112" style="fill:none" d="M0 0h139.045v119.753H0z"/>
        </clipPath>
    </defs>
    <g data-name="그룹 2690">
        <path data-name="사각형 3274" style="fill:none" d="M0 0h160v130H0z"/>
        <g data-name="그룹 2657">
            <g data-name="그룹 2656" transform="translate(10 5.002)" style="clip-path:url(#9x2lbxiywa)">
                <path data-name="패스 16277" d="M164 164.547h4.458v-4.458a18.4 18.4 0 0 1-4.458 4.458" transform="translate(-100.591 -98.194)" style="fill:#56b36b"/>
                <path data-name="패스 16278" d="M111.588 47.813h-7.073A9.492 9.492 0 0 1 98.3 45.5v15.583h13.29z" transform="translate(-60.293 -27.907)" style="fill:#78daff"/>
                <path data-name="패스 16279" d="M98.3 160.089v4.458h4.458a18.388 18.388 0 0 1-4.458-4.458" transform="translate(-60.293 -98.194)" style="fill:#56b36b"/>
                <path data-name="패스 16280" d="M102.756 94.39H98.3v4.458a18.4 18.4 0 0 1 4.458-4.458" transform="translate(-60.293 -57.896)" style="fill:#56b36b"/>
                <path data-name="패스 16281" d="M104.714 35.01h7.053v-4.976H98.621a6.227 6.227 0 0 0 6.092 4.976" transform="translate(-60.491 -18.422)" style="fill:#56b36b"/>
                <path data-name="패스 16282" d="m217.863 15.491-26.915 26.915a31.58 31.58 0 0 0 26.915-26.915" transform="translate(-117.122 -9.502)" style="fill:#56b36b"/>
                <path data-name="패스 16283" d="m184.882 45.13 12.971-12.971v-8.4a31.541 31.541 0 0 0-12.971 21.371" transform="translate(-113.401 -14.571)" style="fill:#56b36b"/>
                <path data-name="패스 16284" d="M200.857 8.581h-16.749v4.976h.039v10.372c0 .282-.015.561-.039.837v.534a35.057 35.057 0 0 1 16.749-16.719" transform="translate(-112.926 -5.263)" style="fill:#fcee21"/>
                <path data-name="패스 16285" d="M105.351 8.581H98.3v4.976h13.146a6.227 6.227 0 0 0-6.091-4.976" transform="translate(-60.293 -5.263)" style="fill:#56b36b"/>
                <path data-name="패스 16286" d="m227.013 20.05 10.626-10.626a31.27 31.27 0 0 0-10.626 3.476z" transform="translate(-139.243 -5.78)" style="fill:#56b36b"/>
                <path data-name="패스 16287" d="M137.531 14.8v1.108a9.492 9.492 0 0 1 6.256-2.349h7.013V8.58h-15.584a9.493 9.493 0 0 1 2.315 6.217" transform="translate(-82.938 -5.263)" style="fill:#fcee21"/>
                <path data-name="패스 16288" d="M200.341 131.541a18.7 18.7 0 0 1-9.2 2.466 18.386 18.386 0 0 1-7.036-1.417v6.352a15.1 15.1 0 0 0 14.3-.442 18.322 18.322 0 0 1 15.563-1.3v-6.4a15.082 15.082 0 0 0-13.626.746" transform="translate(-112.926 -79.441)" style="fill:#78daff"/>
                <path data-name="패스 16289" d="M200.341 106.065a18.694 18.694 0 0 1-9.2 2.464 18.384 18.384 0 0 1-7.036-1.416v6.187a15.106 15.106 0 0 0 14.606-.28 18.325 18.325 0 0 1 15.253-1.419v-6.281a15.082 15.082 0 0 0-13.626.746" transform="translate(-112.926 -63.815)" style="fill:#78daff"/>
                <path data-name="패스 16290" d="M184.107 62.677v3.157a15.106 15.106 0 0 0 14.606-.28 18.333 18.333 0 0 1 15.253-1.419V42.709a34.893 34.893 0 0 1-29.859 19.968" transform="translate(-112.926 -26.196)" style="fill:#ff9100"/>
                <path data-name="패스 16291" d="M200.029 157.019a18.694 18.694 0 0 1-9.2 2.464 18.355 18.355 0 0 1-6.725-1.3v3.233h29.859v-5.009a15.086 15.086 0 0 0-13.937.607" transform="translate(-112.926 -95.068)" style="fill:#56b36b"/>
                <path data-name="패스 16292" d="M154.45 51.485H141.3v4.977h7.054a6.227 6.227 0 0 0 6.092-4.977" transform="translate(-86.672 -31.579)" style="fill:#56b36b"/>
                <path data-name="패스 16293" d="M141.253 69.32v4.98H154.5v-7.26a9.492 9.492 0 0 1-6.178 2.28z" transform="translate(-86.64 -41.12)" style="fill:#78daff"/>
                <path data-name="패스 16294" d="M168.455 98.849v-4.458H164a18.4 18.4 0 0 1 4.458 4.458" transform="translate(-100.591 -57.897)" style="fill:#56b36b"/>
                <path data-name="패스 16295" d="M141.626 35.01h13.107v-4.976h-7.014a6.228 6.228 0 0 0-6.092 4.976" transform="translate(-86.869 -18.422)" style="fill:#56b36b"/>
                <path data-name="패스 16296" d="M113.227 94.39a14.929 14.929 0 1 0 14.93 14.93 14.946 14.946 0 0 0-14.93-14.93" transform="translate(-60.293 -57.896)" style="fill:#ff9100"/>
                <path data-name="패스 16297" d="M34.687.001v69.67h69.671V.001zm66.054 5.99a31.58 31.58 0 0 1-26.915 26.91zm-29.26 24.568A31.542 31.542 0 0 1 84.452 9.185v8.4zm16.29-16.289V7.119a31.27 31.27 0 0 1 10.626-3.475zm-16.59 5.231c.024-.276.039-.555.039-.837V8.294h-.039V3.318H87.93a35.059 35.059 0 0 0-16.749 16.718zM38.005 3.318h7.054a6.227 6.227 0 0 1 6.091 4.977H38.005zm13.266 8.294v4.976h-7.049a6.228 6.228 0 0 1-6.093-4.976zm-13.266 5.979a9.493 9.493 0 0 0 6.217 2.31h7.073v13.276h-13.29zm0 18.9h4.458a18.409 18.409 0 0 0-4.458 4.458zm0 29.859v-4.455a18.39 18.39 0 0 0 4.458 4.458zm29.859 0h-4.458a18.382 18.382 0 0 0 4.458-4.458zm-14.929 0a14.929 14.929 0 1 1 14.929-14.929A14.946 14.946 0 0 1 52.935 66.35m14.929-29.829v4.431a18.4 18.4 0 0 0-4.458-4.458h4.458zm0-3.345H54.613v-4.975h7.073a9.49 9.49 0 0 0 6.178-2.281zm-13.232-8.294v-4.981h13.146a6.226 6.226 0 0 1-6.092 4.977zm13.232-8.294H54.757a6.229 6.229 0 0 1 6.092-4.976h7.014zm0-8.294H60.85a9.492 9.492 0 0 0-6.256 2.349V9.535a9.493 9.493 0 0 0-2.315-6.217h15.585zm33.177 58.059h-29.86V63.12a18.346 18.346 0 0 0 6.725 1.3 18.694 18.694 0 0 0 9.2-2.464 15.087 15.087 0 0 1 13.937-.608zm0-8.6a18.32 18.32 0 0 0-15.563 1.3 15.1 15.1 0 0 1-14.3.442v-6.346a18.38 18.38 0 0 0 7.036 1.417 18.69 18.69 0 0 0 9.2-2.466 15.082 15.082 0 0 1 13.626-.746zm0-9.967a18.324 18.324 0 0 0-15.253 1.419 15.106 15.106 0 0 1-14.606.279v-6.183a18.386 18.386 0 0 0 7.036 1.416 18.689 18.689 0 0 0 9.2-2.465 15.083 15.083 0 0 1 13.626-.746zm0-9.85a18.331 18.331 0 0 0-15.253 1.419 15.106 15.106 0 0 1-14.606.28v-3.154a34.892 34.892 0 0 0 29.859-19.969z"/>
                <path data-name="패스 16298" d="M57.282 268.022h-2.221v-6.862a7.192 7.192 0 0 1 7.184-7.184v2.224a4.968 4.968 0 0 0-4.963 4.963z" transform="translate(-33.773 -155.782)" style="fill:#fff"/>
                <path data-name="패스 16299" d="M7.184 239.8a7.153 7.153 0 0 0-4.963 2v-10.935H0v16.12a7.184 7.184 0 1 0 7.184-7.185m0 12.148a4.963 4.963 0 1 1 4.963-4.963 4.968 4.968 0 0 1-4.963 4.963" transform="translate(0 -141.606)" style="fill:#fff"/>
                <path data-name="패스 16300" d="M322.472 246.985a7.184 7.184 0 0 0 14.368 0v-16.12h-2.221V241.8a7.175 7.175 0 0 0-12.147 5.182m2.221 0a4.963 4.963 0 1 1 4.963 4.963 4.969 4.969 0 0 1-4.963-4.963" transform="translate(-197.795 -141.606)" style="fill:#fff"/>
                <path data-name="패스 16301" d="M97.708 263.657a4.953 4.953 0 0 1-8.5-2.221h11.923a7.174 7.174 0 1 0-.73 2.221zm-3.67-8.294a4.969 4.969 0 0 1 4.834 3.853H89.2a4.969 4.969 0 0 1 4.834-3.853" transform="translate(-53.274 -155.27)" style="fill:#fff"/>
                <path data-name="패스 16302" d="M148.284 263.657a4.953 4.953 0 0 1-8.5-2.221H151.7a7.174 7.174 0 1 0-.73 2.221zm-3.67-8.294a4.969 4.969 0 0 1 4.834 3.853h-9.668a4.969 4.969 0 0 1 4.834-3.853" transform="translate(-84.296 -155.27)" style="fill:#fff"/>
                <path data-name="패스 16303" d="M232.726 263.657a4.953 4.953 0 0 1-8.5-2.221h11.923a7.174 7.174 0 1 0-.73 2.221zm-3.67-8.294a4.969 4.969 0 0 1 4.834 3.853h-9.667a4.969 4.969 0 0 1 4.834-3.853" transform="translate(-136.09 -155.27)" style="fill:#fff"/>
                <path data-name="패스 16304" d="M281.925 263.657a4.953 4.953 0 0 1-8.5-2.221h11.923a7.174 7.174 0 1 0-.73 2.221zm-3.67-8.294a4.969 4.969 0 0 1 4.834 3.853h-9.667a4.969 4.969 0 0 1 4.834-3.853" transform="translate(-166.267 -155.27)" style="fill:#fff"/>
                <path data-name="패스 16305" d="M187.52 263.1h-1.763v-2.34h1.763a4.41 4.41 0 0 0 3.953-6.364l-5.414-10.947a6.75 6.75 0 0 1 6.05-9.742h2.267v2.341h-2.267a4.409 4.409 0 0 0-3.952 6.364l5.414 10.947a6.75 6.75 0 0 1-6.05 9.741" transform="translate(-113.691 -143.352)" style="fill:#fff"/>
            </g>
        </g>
    </g>
</svg>
